SplineFontDB: 3.2
FontName: WilliasBlack
FullName: Willias Black
FamilyName: Willias
Weight: Black
Copyright: Copyright (c) 2023, LMNOP Type Foundry
UComments: "2022-11-6: Created with FontForge (http://fontforge.org)"
Version: 001.000
ItalicAngle: 0
UnderlinePosition: -277
UnderlineWidth: 55
Ascent: 800
Descent: 200
InvalidEm: 0
LayerCount: 2
Layer: 0 0 "Back" 1
Layer: 1 0 "Fore" 0
XUID: [1021 501 -1863293109 31748]
StyleMap: 0x0000
FSType: 0
OS2Version: 0
OS2_WeightWidthSlopeOnly: 0
OS2_UseTypoMetrics: 1
CreationTime: 1667733671
ModificationTime: 1703087013
PfmFamily: 17
TTFWeight: 900
TTFWidth: 5
LineGap: 100
VLineGap: 100
OS2TypoAscent: 0
OS2TypoAOffset: 1
OS2TypoDescent: 0
OS2TypoDOffset: 1
OS2TypoLinegap: 100
OS2WinAscent: 0
OS2WinAOffset: 1
OS2WinDescent: 0
OS2WinDOffset: 1
HheadAscent: 0
HheadAOffset: 1
HheadDescent: 0
HheadDOffset: 1
OS2Vendor: 'PfEd'
Lookup: 1 0 0 "'unic' Unicase lookup 15" { "'unic' Unicase lookup 15-1" ("uni") } ['unic' ('DFLT' <'dflt' > 'cyrl' <'BRG ' 'dflt' > 'grek' <'dflt' > 'latn' <'AZE ' 'CAT ' 'CRT ' 'KAZ ' 'MOL ' 'ROM ' 'TAT ' 'TRK ' 'dflt' > ) ]
Lookup: 1 0 0 "'case' Case-Sensitive Forms lookup 14" { "'case' Case-Sensitive Forms lookup 14-1" ("case") } ['case' ('DFLT' <'dflt' > 'cyrl' <'BRG ' 'dflt' > 'grek' <'dflt' > 'latn' <'AZE ' 'CAT ' 'CRT ' 'KAZ ' 'MOL ' 'ROM ' 'TAT ' 'TRK ' 'dflt' > ) ]
Lookup: 1 0 0 "'ss05' Style Set 5 lookup 11" { "'ss05' Style Set 5 lookup 11-1" ("ss05") } ['ss05' ('DFLT' <'dflt' > 'cyrl' <'BRG ' 'dflt' > 'grek' <'dflt' > 'latn' <'AZE ' 'CAT ' 'CRT ' 'KAZ ' 'MOL ' 'ROM ' 'TAT ' 'TRK ' 'dflt' > ) ]
Lookup: 1 0 0 "'ss06' Style Set 6 lookup 12" { "'ss06' Style Set 6 lookup 12-1" ("ss06") } ['ss06' ('DFLT' <'dflt' > 'cyrl' <'BRG ' 'dflt' > 'grek' <'dflt' > 'latn' <'AZE ' 'CAT ' 'CRT ' 'KAZ ' 'MOL ' 'ROM ' 'TAT ' 'TRK ' 'dflt' > ) ]

StartChar: A
Encoding: 65 65 0
Width: 678
VWidth: 1111
Flags: W
HStem: -15 21G<6.72727 189.076 446.05 669.182> 182 162<245 382>
AnchorPoint: "Anchor-2" 320 7 basechar 0
AnchorPoint: "Anchor-3" 487 31 basechar 0
AnchorPoint: "Anchor-0" 340 788 basechar 0
LayerCount: 2
Fore
SplineSet
317 594 m 1
 245 344 l 0
 382 342 l 1
 317 594 l 1
240 763 m 9
 457 759 l 25
 691 7 l 0
 451 -15 l 0
 401 187 l 25
 234 182 l 1
 184 -15 l 0
 -11 7 l 0
 240 763 l 9
EndSplineSet
Validated: 1
Substitution2: "'unic' Unicase lookup 15-1" A.uni
Substitution2: "'ss05' Style Set 5 lookup 11-1" A.ss05
EndChar

StartChar: B
Encoding: 66 66 1
Width: 724
VWidth: 1111
Flags: W
HStem: -12 138<260.555 460.344> 634 148<204.35 413.216>
VStem: 22 171<449 633.918> 469 247<130.494 295.456>
AnchorPoint: "Anchor-2" 339 -27 basechar 0
AnchorPoint: "Anchor-0" 344 824 basechar 0
LayerCount: 2
Fore
SplineSet
266 318 m 25
 254 124 l 9
 254 124 382 126 463 126 c 25
 463 126 467 242 469 316 c 25
 469 316 345 317 266 318 c 25
199 634 m 25
 199 634 195 521 193 449 c 25
 193 449 326 464 410 474 c 25
 410 474 416 573 420 636 c 25
 420 636 286 634 199 634 c 25
22 762 m 17
 88 773 182 782 384 782 c 0
 542 782 667 734 667 587 c 16
 667 440 537 402 537 402 c 0
 537 402 716 361 716 213 c 0
 716 10 488 -12 338 -12 c 16
 188 -12 27 0 27 0 c 25
 22 762 l 17
EndSplineSet
Validated: 1
Substitution2: "'ss01' Style Set 1 in Latin lookup 0-1" B.ss01
Substitution2: "Single Substitution lookup 33 subtable" B.ss01
EndChar

StartChar: C
Encoding: 67 67 2
Width: 775
VWidth: 1111
Flags: W
HStem: -23 199<277.961 548.557> 627 167<292.911 515.48>
VStem: 17 255<242.423 341.789>
AnchorPoint: "Anchor-0" 413 821 basechar 0
AnchorPoint: "Anchor-2" 409 -60 basechar 0
LayerCount: 2
Fore
SplineSet
518 627 m 5
 429 627 291 626 291 626 c 5
 272 176 l 5
 551 183 l 5
 546 306 l 5
 764 294 l 4
 764 294 761 -23 407 -23 c 4
 97 -23 17 214 17 390 c 20
 17 566 131 794 413 794 c 4
 762 794 763 467 763 467 c 5
 663 467 518 469 518 469 c 21
 518 627 l 5
EndSplineSet
Validated: 1
Substitution2: "Single Substitution lookup 33 subtable" C.ss01
Substitution2: "'ss01' Style Set 1 in Latin lookup 0-1" C.ss01
EndChar

StartChar: D
Encoding: 68 68 3
Width: 751
VWidth: 1111
Flags: W
HStem: 0 186<241.103 453.359> 741 20G<190.5 381.5>
VStem: 27 214<183 582.823> 479 255<255.688 540.552>
AnchorPoint: "Anchor-2" 339 -27 basechar 0
AnchorPoint: "Anchor-0" 336 788 basechar 0
LayerCount: 2
Fore
SplineSet
247 583 m 9
 247 583 243 339 241 183 c 25
 241 183 383 185 474 186 c 25
 474 186 477 417 479 558 c 25
 247 583 l 9
22 754 m 17
 22 754 95 761 286 761 c 0
 477 761 734 727.006005952 734 394 c 4
 734 57 444 0 294 0 c 16
 144 0 27 -1 27 -1 c 25
 25 293 22 754 22 754 c 17
EndSplineSet
Substitution2: "Single Substitution lookup 33 subtable" D.ss01
Substitution2: "'ss01' Style Set 1 in Latin lookup 0-1" D.ss01
EndChar

StartChar: E
Encoding: 69 69 4
Width: 658
VWidth: 1111
Flags: W
HStem: 0 189<203 630> 316 166<266 572> 616 150<266 622.734> 747 20G<623 623>
VStem: 22 181<189 316>
AnchorPoint: "Anchor-2" 331 -16 basechar 0
AnchorPoint: "Anchor-3" 553 31 basechar 0
AnchorPoint: "Anchor-0" 316 788 basechar 0
LayerCount: 2
Fore
SplineSet
24 766 m 25xe8
 257 766 623 767 623 767 c 25xd8
 623 708 623 616 623 616 c 25
 483 616 266 616 266 616 c 25
 266 564 266 482 266 482 c 25
 387 480 577 478 577 478 c 25
 575 421 572 311 572 311 c 25
 426 313 199 316 199 316 c 1
 203 189 l 17
 630 189 l 1
 632 111 637 0 637 0 c 25
 397 0 22 1 22 1 c 25
 23 299 24 766 24 766 c 25xe8
EndSplineSet
Validated: 1
Substitution2: "'unic' Unicase lookup 15-1" E.uni
Substitution2: "Single Substitution lookup 33 subtable" E.ss01
Substitution2: "'ss01' Style Set 1 in Latin lookup 0-1" E.ss01
EndChar

StartChar: F
Encoding: 70 70 5
Width: 651
VWidth: 1111
Flags: W
HStem: 759 20G<622 623>
VStem: 22 255<0 281>
AnchorPoint: "Anchor-2" 317 -35 basechar 0
AnchorPoint: "Anchor-0" 316 788 basechar 0
LayerCount: 2
Fore
SplineSet
23 772 m 25
 256 774 622 779 622 779 c 25
 624 716 629 616 629 616 c 25
 466 618 209 620 209 620 c 25
 209 554 208 453 208 453 c 25
 351 453 574 452 574 452 c 25
 574 382 574 272 574 272 c 25
 456 275 273 281 273 281 c 25
 274 171 277 -1 277 -1 c 25
 178 -1 22 0 22 0 c 25
 22 301 23 772 23 772 c 25
EndSplineSet
Validated: 1
Substitution2: "Single Substitution lookup 33 subtable" F.ss01
Substitution2: "'ss01' Style Set 1 in Latin lookup 0-1" F.ss01
EndChar

StartChar: G
Encoding: 71 71 6
Width: 794
VWidth: 1111
Flags: W
HStem: -38 198<281.475 474.866> 0 21G<622.217 772> 269 135<426 543> 604 185<274.023 483.16>
VStem: 17 257<210.292 518.278>
AnchorPoint: "Anchor-2" 409 -49 basechar 0
AnchorPoint: "Anchor-0" 413 821 basechar 0
LayerCount: 2
Fore
SplineSet
493 604 m 25xb8
 406 604 270 604 270 604 c 25
 274 160 l 1xb8
 537 166 l 1
 543 269 l 1
 423 267 l 1
 426 404 l 25
 772 391 l 25
 772 0 l 0
 637 0 l 25x78
 586 69 l 25
 586 69 521 -38 363 -38 c 0
 94 -38 17 196 17 356 c 16
 17 516 78 789 411 789 c 16
 744 789 747 487 747 487 c 25
 648 486 494 483 494 483 c 25
 494 531 493 604 493 604 c 25xb8
EndSplineSet
Validated: 1
Substitution2: "Single Substitution lookup 33 subtable" G.ss01
Substitution2: "'ss01' Style Set 1 in Latin lookup 0-1" G.ss01
EndChar

StartChar: H
Encoding: 72 72 7
Width: 718
VWidth: 1111
Flags: W
HStem: -11 21G<22 242.75 474.864 697> 304 167<254 443> 742 20G<439 689.21> 752 20G<17 191.535>
VStem: 17 174<515.2 763> 22 220<0 175.667> 27 227<122.333 309> 27 172<473 656.8> 443 246<471 757> 474 223<0 304>
AnchorPoint: "Anchor-0" 316 788 basechar 0
LayerCount: 2
Fore
SplineSet
17 763 m 1xe8
 191 772 l 25xd8
 199 473 l 25
 443 471 l 25
 439 757 l 25
 689 762 l 25xe180
 697 0 l 25
 474 -11 l 1
 481 151 l 1
 477 304 l 1
 254 309 l 25xe240
 242 -11 l 25
 22 0 l 17xe4
 27 409 l 1xe1
 17 763 l 1xe8
EndSplineSet
Validated: 1
Substitution2: "Single Substitution lookup 33 subtable" H.ss01
Substitution2: "'ss01' Style Set 1 in Latin lookup 0-1" H.ss01
EndChar

StartChar: I
Encoding: 73 73 8
Width: 293
VWidth: 1111
Flags: W
HStem: 0 21G<23.5 271> 748 20G<260 262>
VStem: 22 249
AnchorPoint: "Anchor-2" 147 -35 basechar 0
AnchorPoint: "Anchor-3" 176 31 basechar 0
AnchorPoint: "Anchor-0" 138 788 basechar 0
LayerCount: 2
Back
SplineSet
22 756 m 17
 79.5966386555 760 171 764 171 764 c 29
 175 462.578125 182 0 182 0 c 29
 119.951417004 0 24 0 24 0 c 25
 23 290 22 756 22 756 c 17
EndSplineSet
Fore
SplineSet
22 756 m 21
 114 762 260 768 260 768 c 29
 264 465 271 0 271 0 c 29
 174 0 24 0 24 0 c 29
 23 290 22 756 22 756 c 21
EndSplineSet
Validated: 1
Substitution2: "'unic' Unicase lookup 15-1" I.uni
EndChar

StartChar: J
Encoding: 74 74 9
Width: 567
VWidth: 1111
Flags: W
HStem: -12 175<221.69 312.366>
VStem: 11.1191 204.881<163 323> 316 229<162.257 750>
AnchorPoint: "Anchor-2" 261 -35 basechar 0
AnchorPoint: "Anchor-0" 430 788 basechar 0
LayerCount: 2
Fore
SplineSet
310 752 m 25
 402 751 543 750 545 750 c 1
 545 350 l 6
 545 150 502 -12 259 -12 c 4
 49.4911656411 -12 11.1191414509 134.87869604 11.1191414509 240.999997637 c 4
 11.1191414509 303 23 348 23 348 c 13
 101 338 221 323 221 323 c 21
 216 163 l 29
 259 161 316 157 316 157 c 29
 314 411 310 752 310 752 c 25
EndSplineSet
Validated: 1
Substitution2: "'unic' Unicase lookup 15-1" J.uni
EndChar

StartChar: K
Encoding: 75 75 10
Width: 754
VWidth: 1111
Flags: W
HStem: -1 1G<26 27 466 494>
VStem: 27 201<1.0568 150>
AnchorPoint: "Anchor-0" 382 788 basechar 0
AnchorPoint: "Anchor-2" 367 -2 basechar 0
LayerCount: 2
Fore
SplineSet
22 747 m 25
 116 747 263 748 263 748 c 25
 266 637 272 429 272 429 c 25
 380 536 503 734 503 734 c 25
 592 734 732 733 732 733 c 25
 640 624 519 444 519 444 c 25
 616 267 766 3 766 3 c 25
 652 -7 494 -22 494 -22 c 25
 438 102 353 307 353 307 c 25
 304 264 228 150 228 150 c 25
 231 79 236 1 236 1 c 25
 155 1 27 0 27 0 c 25
 25 291 22 747 22 747 c 25
EndSplineSet
Validated: 1
EndChar

StartChar: L
Encoding: 76 76 11
Width: 606
VWidth: 1111
Flags: W
HStem: 0 169<262 578>
VStem: 27 235<169 731.425>
AnchorPoint: "Anchor-2" 309 -16 basechar 0
AnchorPoint: "Anchor-0" 138 788 basechar 0
LayerCount: 2
Fore
SplineSet
22 731 m 25
 116 740 264 754 264 754 c 25
 262 169 l 25
 578 173 l 25
 584 0 l 0
 27 0 l 0
 22 731 l 25
EndSplineSet
Validated: 1
EndChar

StartChar: M
Encoding: 77 77 12
Width: 884
VWidth: 1111
Flags: W
HStem: 0 15G<307.5 523 660 873>
AnchorPoint: "Anchor-2" 429 -16 basechar 0
AnchorPoint: "Anchor-0" 447 788 basechar 0
LayerCount: 2
Fore
SplineSet
51 742 m 25
 160 743 329 746 329 746 c 25
 375 567 447 286 447 286 c 25
 494 468 567 752 567 752 c 25
 675 750 842 746 842 746 c 25
 854 455 873 6 873 6 c 17
 661 -6 l 25
 659 183 647 462 647 462 c 29
 596 273 523 0 523 0 c 25
 449 0 333 0 333 0 c 25
 282 176 203 451 203 451 c 25
 203 275 204 -6 204 -6 c 17
 11 6 l 25
 27 296 51 742 51 742 c 25
EndSplineSet
Validated: 1
Substitution2: "'unic' Unicase lookup 15-1" M.uni
Substitution2: "Single Substitution lookup 33 subtable" M.ss01
Substitution2: "'ss01' Style Set 1 in Latin lookup 0-1" M.ss01
EndChar

StartChar: N
Encoding: 78 78 13
Width: 768
VWidth: 1111
Flags: W
HStem: 0 13G<23 197 437.5 496> 750 20G<279 337>
VStem: 23 174<0.223206 489> 574 164<441.345 628.32>
AnchorPoint: "Anchor-2" 398 -16 basechar 0
AnchorPoint: "Anchor-0" 417 788 basechar 0
LayerCount: 2
Fore
SplineSet
22 767 m 25
 122 768 279 770 279 770 c 25
 395 594 574 299 574 299 c 25
 567 470 558 761 558 761 c 25
 628 762 738 763 738 763 c 25
 741 473 747 -1 747 -1 c 25
 649 -3 496 -8 496 -8 c 25
 379 178 198 489 198 489 c 25
 198 307 197 0 197 0 c 25
 129 0 23 0 23 0 c 25
 23 290 22 767 22 767 c 25
EndSplineSet
Validated: 1
Substitution2: "'unic' Unicase lookup 15-1" N.uni
Substitution2: "Single Substitution lookup 33 subtable" N.ss01
Substitution2: "'ss01' Style Set 1 in Latin lookup 0-1" N.ss01
EndChar

StartChar: O
Encoding: 79 79 14
Width: 791
VWidth: 1111
Flags: W
HStem: -11 208<263.797 528.339> 586 216<292.551 523.515>
VStem: 17 242<231.484 521.169> 527 247<357 560.649>
AnchorPoint: "Anchor-2" 409 -8 basechar 0
AnchorPoint: "Anchor-3" 409 61 basechar 0
AnchorPoint: "Anchor-0" 417 818 basechar 0
LayerCount: 2
Back
SplineSet
184 626 m 9
 174 114 l 9
 174 114 444.182142857 116 627 117 c 29
 621 621 l 13
 184 626 l 9
417 772 m 0
 634.025210084 772 766 610 766 383 c 8
 766 156 638.826086957 -41 406 -41 c 0
 216.969151671 -41 25 53 25 346 c 0
 25 662 253.34 772 417 772 c 0
EndSplineSet
Fore
SplineSet
267 586 m 9
 259 194 l 9
 259 194 426 196 539 197 c 25
 527 581 l 9
 267 586 l 9
417 802 m 0
 639 802 774 640 774 413 c 8
 774 186 644 -11 406 -11 c 0
 213 -11 17 83 17 376 c 0
 17 692 250 802 417 802 c 0
EndSplineSet
Substitution2: "Single Substitution lookup 33 subtable" O.ss01
Substitution2: "'ss01' Style Set 1 in Latin lookup 0-1" O.ss01
EndChar

StartChar: P
Encoding: 80 80 15
Width: 692
VWidth: 1111
Flags: W
HStem: 0 21G<22 264> 612 181<188 422.896>
VStem: 22 242<0 210> 22 234<30 240> 22 161<407 611.903>
AnchorPoint: "Anchor-2" 330 -20 basechar 0
AnchorPoint: "Anchor-0" 344 824 basechar 0
LayerCount: 2
Fore
SplineSet
188 612 m 29xc8
 188 612 185 478 183 407 c 29
 183 407 336 406 434 406 c 29
 434 406 427 541 423 614 c 29
 423 614 280 613 188 612 c 29xc8
22 787 m 21
 22 787 211 793 327 793 c 4
 443 793 676 744 676 511 c 4
 676 189 256 240 256 240 c 29xd0
 264 0 l 4
 22 0 l 29xe0
 22 787 l 21
EndSplineSet
Validated: 33
Substitution2: "Single Substitution lookup 33 subtable" P.ss01
Substitution2: "'ss01' Style Set 1 in Latin lookup 0-1" P.ss01
EndChar

StartChar: Q
Encoding: 81 81 16
Width: 802
VWidth: 1111
Flags: W
HStem: -176 159<589 762> -17 21G<294.644 551.5> -17 21G<294.644 551.5> 579 198<277 529.015>
VStem: 17 253<224.33 504.018> 532 254<238.444 544.109>
AnchorPoint: "Anchor-2" 414 -193 basechar 0
AnchorPoint: "Anchor-0" 414 818 basechar 0
LayerCount: 2
Fore
SplineSet
421 -17 m 0x5c
 168.28856661 -17 17 127.17351026 17 368 c 0
 17 606.391804174 179.265496763 777 406 777 c 0
 642.838130158 777 786 637.228806022 786 406 c 0
 786 165.497977823 682 -17 421 -17 c 0x5c
277 579 m 1
 277 579 272 332 270 174 c 1
 270 174 429 179 530 181 c 1
 530 181 531 418 532 570 c 1
 532 570 377 576 277 579 c 1
407 33 m 1
 587 60 l 1
 589 -17 l 1
 762 -18 l 1
 763 -172 l 1
 763 -172 703 -176 619 -176 c 0x9c
 446.604395604 -176 426.802197802 -106.683417085 407 33 c 1
EndSplineSet
EndChar

StartChar: R
Encoding: 82 82 17
Width: 726
VWidth: 1111
Flags: W
HStem: 0 5G<22 222.917 451.394 710> 233 194<264.096 433> 618 163<273.402 475.108>
VStem: 24 240<419 617.902> 476 224<457.375 610.361>
AnchorPoint: "Anchor-2" 331 -16 basechar 0
AnchorPoint: "Anchor-0" 344 824 basechar 0
LayerCount: 2
Fore
SplineSet
273 618 m 25
 273 618 267 483 264 419 c 25
 264 419 396 424 480 427 c 25
 480 427 478 552 476 611 c 25
 476 611 352 616 273 618 c 25
22 0 m 25
 22 0 23 479 24 757 c 25
 24 757 146 781 344 781 c 8
 542 781 700 721 700 552 c 0
 700 394 567 373 567 373 c 17
 667 341 682 268 682 150 c 0
 682 52 710 0 710 0 c 0
 453 -16 l 1
 433 233 l 25
 222 240 l 1
 223 0 l 25
 223 0 101 0 22 0 c 25
EndSplineSet
Validated: 1
Substitution2: "Single Substitution lookup 33 subtable" R.ss01
Substitution2: "'ss01' Style Set 1 in Latin lookup 0-1" R.ss01
EndChar

StartChar: S
Encoding: 83 83 18
Width: 786
VWidth: 1111
Flags: W
HStem: -32 164<270.23 445.2> 538 21G<682 729> 613 176<268.75 478.832>
VStem: 36 222<500.852 615.917> 522 248<146.094 259.44>
AnchorPoint: "Anchor-2" 379 -60 basechar 0
AnchorPoint: "Anchor-0" 391 821 basechar 0
LayerCount: 2
Fore
SplineSet
488 613 m 29
 398 615 258 618 258 618 c 29
 258 499 l 29
 258 499 326 497 409 496 c 4
 719 490 770 339 770 246 c 20
 770 153 746 -32 377 -32 c 4
 59 -32 17 117 17 246 c 13
 268 243 l 29
 266 132 l 29
 522 142 l 29
 517 260 l 29
 517 260 477 262 371 271 c 4
 78 296 36 473 36 526 c 20
 36 579 44 789 380 789 c 4
 672 789 729 651 729 538 c 13
 635 539 486 540 486 540 c 29
 487 573 488 613 488 613 c 29
EndSplineSet
Validated: 1
Substitution2: "Single Substitution lookup 33 subtable" S.ss01
Substitution2: "'ss01' Style Set 1 in Latin lookup 0-1" S.ss01
EndChar

StartChar: T
Encoding: 84 84 19
Width: 684
VWidth: 1111
Flags: W
HStem: -8 21G<240 242> 536 21G<22 23.5> 751 20G<30 153.5>
AnchorPoint: "Anchor-0" 351 788 basechar 0
AnchorPoint: "Anchor-2" 353 -38 basechar 0
LayerCount: 2
Fore
SplineSet
30 771 m 25
 277 768 662 762 662 762 c 25
 659 695 653 591 653 591 c 25
 582 590 460 589 460 589 c 25
 466 360 473 1 473 1 c 25
 373 -2 240 -8 240 -8 c 25
 244 211 251 553 251 553 c 25
 167 546 22 536 22 536 c 25
 25 628 30 771 30 771 c 25
EndSplineSet
Validated: 1
Substitution2: "'unic' Unicase lookup 15-1" T.uni
Substitution2: "Single Substitution lookup 33 subtable" T.ss01
Substitution2: "'ss01' Style Set 1 in Latin lookup 0-1" T.ss01
EndChar

StartChar: U
Encoding: 85 85 20
Width: 702
VWidth: 1111
Flags: W
HStem: -33 209<271.954 454.5>
VStem: 22 240<177.241 713.737> 482 198<184.266 739.881>
AnchorPoint: "Anchor-2" 342 -38 basechar 0
AnchorPoint: "Anchor-3" 342 31 basechar 0
AnchorPoint: "Anchor-0" 376 788 basechar 0
LayerCount: 2
Fore
SplineSet
36 751 m 25
 126 753 267 758 267 758 c 25
 262 176 l 25
 482 184 l 25
 476 744 l 25
 673 740 l 25
 673 740 680 577 680 324 c 0
 680 125 611 -33 342 -33 c 16
 73 -33 22 158 22 309 c 16
 22 460 36 751 36 751 c 25
EndSplineSet
Validated: 1
Substitution2: "Single Substitution lookup 33 subtable" U.ss01
Substitution2: "'ss01' Style Set 1 in Latin lookup 0-1" U.ss01
EndChar

StartChar: V
Encoding: 86 86 21
Width: 662
VWidth: 1111
Flags: W
HStem: -21 21G<426 473> 752 20G<222 249>
AnchorPoint: "Anchor-0" 368 788 basechar 0
AnchorPoint: "Anchor-2" 342 -16 basechar 0
LayerCount: 2
Fore
SplineSet
-11 746 m 25
 76 756 222 772 222 772 c 17
 276 559 369 192 369 192 c 25
 415 400 487 759 487 759 c 25
 551 759 673 759 673 759 c 25
 595 455 473 -21 473 -21 c 25
 379 -19 220 -14 220 -14 c 25
 130 283 -11 746 -11 746 c 25
EndSplineSet
Validated: 1
EndChar

StartChar: i
Encoding: 105 105 22
Width: 252
VWidth: 1111
Flags: W
HStem: 0 21G<24 230> 561 205<62.2556 187.569>
VStem: 22 204<601.133 726>
AnchorPoint: "Anchor-3" 153 31 basechar 0
LayerCount: 2
Fore
SplineSet
124 766 m 4
 182 766 226 721 226 662 c 12
 226 603 179 561 130 561 c 4
 92 561 22 582 22 670 c 4
 22 724 66 766 124 766 c 4
28 496 m 25
 100 500 212 506 212 506 c 25
 219 309 230 0 230 0 c 17
 23 0 l 25
 25 193 28 496 28 496 c 25
EndSplineSet
Validated: 1
EndChar

StartChar: o
Encoding: 111 111 23
Width: 621
VWidth: 1111
Flags: W
HStem: -28 156<299.467 385.988> 394 156<218.389 376.261>
VStem: 17 179<147.078 220.636> 390 214<162.788 297.273>
AnchorPoint: "Anchor-0" 316 577 basechar 0
AnchorPoint: "Anchor-3" 320 31 basechar 0
AnchorPoint: "Anchor-2" 318 -38 basechar 0
LayerCount: 2
Back
SplineSet
166 427 m 13
 153 93 l 29
 461 86 l 29
 451 434 l 29
 166 427 l 13
27 264 m 4
 27 433 132.366666667 550 317 550 c 4
 501.344947735 550 594 387 594 266 c 20
 594 145 505.216783217 -28 318 -28 c 20
 130.445182724 -28 27 95 27 264 c 4
EndSplineSet
Fore
SplineSet
218 387 m 13
 196 143 l 29
 390 128 l 29
 379 394 l 29
 218 387 l 13
17 264 m 0
 17 433 126 550 317 550 c 0
 508 550 604 387 604 266 c 16
 604 145 512 -28 318 -28 c 16
 124 -28 17 95 17 264 c 0
EndSplineSet
Validated: 1
Substitution2: "Single Substitution lookup 33 subtable" o.ss01
Substitution2: "'ss01' Style Set 1 in Latin lookup 0-1" o.ss01
EndChar

StartChar: less
Encoding: 60 60 25
Width: 406
VWidth: 1111
Flags: W
LayerCount: 2
Fore
SplineSet
367 576 m 1
 378 440 l 1
 153 382 l 25
 384 349 l 1
 353 211 l 1
 26 316 l 25
 22 441 l 1
 367 576 l 1
EndSplineSet
Validated: 1
EndChar

StartChar: m
Encoding: 109 109 26
Width: 976
VWidth: 1111
Flags: W
HStem: 0 21G<22 226 383 593> 353 191<643.241 743> 378 156<264.943 384.824> 500 20G<28 166.133>
VStem: 22 204<0 378> 28 191<0 378> 383 210<0 349> 390 198<0 349> 743 209<0 348.431>
AnchorPoint: "Anchor-0" 493 554 basechar 0
AnchorPoint: "Anchor-2" 487 -16 basechar 0
LayerCount: 2
Fore
SplineSet
28 517 m 17xa480
 163 520 l 1x9480
 176 437 l 25
 176 437 228 534 366 534 c 0xa480
 504 534 553 442 553 442 c 25
 553 442 604 544 748 544 c 0
 926 544 948 432 952 316 c 16
 956 200 953 -2 953 -2 c 1
 750 0 l 25
 743 353 l 25
 588 349 l 0xc580
 593 0 l 25
 383 0 l 25xc280
 390 378 l 25
 219 378 l 25xa580
 226 0 l 25
 22 0 l 25xa880
 28 517 l 17xa480
EndSplineSet
Validated: 33
Substitution2: "Single Substitution lookup 33 subtable" m.ss01
Substitution2: "'ss01' Style Set 1 in Latin lookup 0-1" m.ss01
EndChar

StartChar: W
Encoding: 87 87 27
Width: 1071
VWidth: 1111
Flags: W
HStem: -31 30G<418 446.5 631 685> 747 20G<182 224>
AnchorPoint: "Anchor-2" 531 -16 basechar 0
AnchorPoint: "Anchor-0" 562 788 basechar 0
LayerCount: 2
Fore
SplineSet
9 718 m 25
 9 718 140 748 224 767 c 25
 224 767 278 412 311 200 c 25
 311 200 392 541 451 738 c 25
 451 738 593 742 684 744 c 25
 684 744 747 383 780 187 c 25
 780 187 852 540 898 738 c 25
 898 738 995 727 1056 720 c 25
 1056 720 965 279 907 11 c 25
 907 11 739 -12 631 -22 c 9
 631 -22 576 280 540 473 c 25
 540 473 475 166 418 -31 c 25
 418 -31 250 -24 158 -18 c 25
 158 -18 67 431 9 718 c 25
EndSplineSet
Validated: 1
EndChar

StartChar: X
Encoding: 88 88 28
Width: 764
VWidth: 1111
Flags: W
HStem: -33 44G<110.727 214.615 482.186 688.483>
AnchorPoint: "Anchor-0" 412 788 basechar 0
AnchorPoint: "Anchor-2" 364 -16 basechar 0
LayerCount: 2
Fore
SplineSet
-11 726 m 9
 266 750 l 9
 402 523 l 9
 544 747 l 9
 744 722 l 1
 503 381 l 9
 776 19 l 9
 494 -10 l 1
 354 227 l 9
 203 -33 l 9
 0 11 l 9
 243 380 l 9
 -11 726 l 9
EndSplineSet
EndChar

StartChar: Y
Encoding: 89 89 29
Width: 653
VWidth: 1111
Flags: W
HStem: -9 21G<206 206>
AnchorPoint: "Anchor-2" 331 -16 basechar 0
AnchorPoint: "Anchor-0" 350 788 basechar 0
LayerCount: 2
Fore
SplineSet
-8 736 m 1
 231 758 l 1
 275 660 356 496 356 496 c 17
 356 496 470 754 471 756 c 1
 664 733 l 17
 442 307 l 25
 450 187 461 0 461 0 c 25
 361 -3 206 -9 206 -9 c 1
 206 115 207 300 207 300 c 1
 126 471 -8 736 -8 736 c 1
EndSplineSet
Validated: 1
EndChar

StartChar: Z
Encoding: 90 90 30
Width: 712
VWidth: 1111
Flags: W
HStem: -1 178<310 686.833>
AnchorPoint: "Anchor-2" 364 -16 basechar 0
AnchorPoint: "Anchor-0" 357 788 basechar 0
LayerCount: 2
Fore
SplineSet
32 731 m 25
 285 732 681 733 681 733 c 25
 683 649 686 518 686 518 c 25
 539 376 310 177 310 177 c 25
 457 176 687 173 687 173 c 25
 688 114 690 -1 690 -1 c 25
 423 -1 6 0 6 0 c 25
 8 69 11 178 11 178 c 25
 174 332 430 573 430 573 c 25
 272 565 24 553 24 553 c 25
 27 622 32 731 32 731 c 25
EndSplineSet
Validated: 1
EndChar

StartChar: e
Encoding: 101 101 31
Width: 605
VWidth: 1111
Flags: W
HStem: -29 118<272.673 389.352> 208 92<270 369> 388 141<198.365 360.653>
AnchorPoint: "Anchor-2" 327 -38 basechar 0
AnchorPoint: "Anchor-3" 331 31 basechar 0
AnchorPoint: "Anchor-0" 300 554 basechar 0
LayerCount: 2
Back
SplineSet
37 247 m 0
 37 385 126.263157895 529 302 529 c 0
 552.670776049 529 569.428710938 297.105509529 569.428710938 235.094726562 c 0
 569.428710938 225.523962116 569 220 569 220 c 9
 180 208 l 25
 181 69 l 25
 434 76 l 29
 438 171 l 29
 567 169 l 25
 567 169 562.378787879 -29 323 -29 c 0
 111.77124183 -29 37 109 37 247 c 0
138 418 m 9
 137 286 l 9
 437 287 l 13
 438 423 l 13
 138 418 l 9
EndSplineSet
Fore
SplineSet
17 247 m 4
 17 385 113 529 302 529 c 4
 571.417827298 529 589.42904695 297.105546977 589.42904695 235.094774024 c 4
 589.42904695 225.523979485 589 220 589 220 c 13
 270 208 l 29
 271 89 l 29
 392 96 l 29
 396 171 l 29
 587 169 l 29
 587 169 582 -29 323 -29 c 4
 97 -29 17 109 17 247 c 4
198 388 m 13
 197 300 l 13
 369 301 l 13
 370 393 l 13
 198 388 l 13
EndSplineSet
Substitution2: "Single Substitution lookup 33 subtable" e.ss01
Substitution2: "'ss01' Style Set 1 in Latin lookup 0-1" e.ss01
EndChar

StartChar: z
Encoding: 122 122 32
Width: 536
VWidth: 1111
Flags: W
HStem: 0 149<279 511> 378 135<43 286>
AnchorPoint: "Anchor-2" 262 -27 basechar 0
AnchorPoint: "Anchor-0" 267 562 basechar 0
LayerCount: 2
Fore
SplineSet
43 513 m 17
 480 513 l 17
 488 356 l 17
 279 149 l 17
 511 147 l 1
 514 0 l 17
 30 -2 l 17
 3 104 l 17
 286 376 l 17
 34 378 l 17
 43 513 l 17
EndSplineSet
Validated: 1
EndChar

StartChar: a
Encoding: 97 97 33
Width: 614
VWidth: 1111
Flags: W
HStem: -26 14G<133 259.5 423.849 541> 526 20G<175.5 404.487>
VStem: 17 205<104.915 202.609> 426 160<304 395.28>
AnchorPoint: "Anchor-2" 328.019 7 basechar 0
AnchorPoint: "Anchor-3" 482.761 31 basechar 0
AnchorPoint: "Anchor-0" 289.303 574 basechar 0
LayerCount: 2
Back
SplineSet
181 227 m 9
 188 69 l 9
 454 96 l 9
 439 246 l 9
 181 227 l 9
58 369 m 17
 58 369 68.2253521127 546 322 546 c 0
 484.696750903 546 563 464 563 353 c 0
 563 272 551 214 551 157 c 0
 551 75 589 -8 589 -8 c 1
 503 -32 l 29
 457 34 l 1
 457 34 393.80597015 -26 238 -26 c 0
 115.134502924 -26 47 54 47 141 c 0
 47 283.492063492 161.952380952 332 302 332 c 0
 379.806451613 332 446 314 446 314 c 9
 448 416 l 1
 216 444 l 25
 211 351 l 1
 58 369 l 17
EndSplineSet
Fore
SplineSet
217 203 m 9
 222 104 l 9
 378 122 l 9
 373 213 l 9
 217 203 l 9
28 369 m 17
 28 369 39 546 312 546 c 0
 496.974729242 546 586 459.751295337 586 343 c 0
 586 266.132653061 581 211.091836735 581 157 c 0
 581 79.9696969697 619 2 619 2 c 1
 437 -33 l 25
 389 40 l 1
 389 40 331 -26 188 -26 c 0
 78 -26 17 54 17 141 c 0
 17 275.285714286 138 321 272 321 c 0
 355.209677419 321 426 304 426 304 c 9
 428 396 l 1
 256 424 l 25
 251 351 l 1
 28 369 l 17
EndSplineSet
Substitution2: "'ss07' Style Set 7 lookup 13-1" a.ss07
Substitution2: "'ss03' Style Set 3 lookup 9-1" a.ss03
Substitution2: "Single Substitution lookup 33 subtable" a.ss01
Substitution2: "'ss01' Style Set 1 in Latin lookup 0-1" a.ss01
EndChar

StartChar: b
Encoding: 98 98 34
Width: 624
VWidth: 1111
Flags: W
HStem: -16 166<258.401 373.317> 0 21G<22 188.348> 381 170<276.679 366> 760 20G<27.8462 69>
VStem: 22 171<152 382> 28 205<509 777> 378 230<153.888 284.75>
AnchorPoint: "Anchor-2" 306 -36 basechar 0
AnchorPoint: "Anchor-0" 127 808 basechar 0
LayerCount: 2
Fore
SplineSet
196 382 m 13xba
 193 152 l 13
 378 150 l 13
 366 381 l 13
 196 382 l 13xba
28 780 m 25x76
 110 779 238 777 238 777 c 25
 233 509 l 25
 233 509 302 551 397 551 c 0
 461 551 608 517 608 284 c 16
 608 51 462 -16 338 -16 c 0xb6
 257 -16 207 46 207 46 c 25
 174 0 l 25
 22 0 l 25x7a
 28 780 l 25x76
EndSplineSet
Substitution2: "Single Substitution lookup 33 subtable" b.ss01
Substitution2: "'ss01' Style Set 1 in Latin lookup 0-1" b.ss01
EndChar

StartChar: d
Encoding: 100 100 35
Width: 614
VWidth: 1111
Flags: W
HStem: -26 178<236.447 365.156> 0 21G<449.522 579.355> 371 150<228.012 385.963>
VStem: 17 209<217.7 366.354> 400 192<625.5 733>
AnchorPoint: "Anchor-0" 504 808 basechar 0
AnchorPoint: "Anchor-2" 312 -36 basechar 0
AnchorPoint: "Anchor-4" 608 607 basechar 0
LayerCount: 2
Fore
SplineSet
226 371 m 9xb8
 236 152 l 9
 408 152 l 9
 421 370 l 9
 226 371 l 9xb8
400 744 m 17
 592 733 l 25
 579 0 l 25
 463 0 l 25x78
 432 46 l 25
 432 46 376 -26 272 -26 c 16
 168 -26 17 46 17 268 c 16
 17 490 221 521 278 521 c 16
 335 521 386 507 386 507 c 17
 400 744 l 17
EndSplineSet
Validated: 1
Substitution2: "Single Substitution lookup 33 subtable" d.ss01
Substitution2: "'ss01' Style Set 1 in Latin lookup 0-1" d.ss01
EndChar

StartChar: exclam
Encoding: 33 33 36
Width: 283
VWidth: 1111
Flags: W
HStem: -9 219<67.0131 217.356>
VStem: 22 240<34.0208 164.849> 71 181<371.588 728.738>
LayerCount: 2
Fore
SplineSet
141 210 m 0xc0
 233 210 262 144 262 98 c 0
 262 39 226 -9 144 -9 c 0
 62 -9 22 41 22 100 c 0
 22 186 78 210 141 210 c 0xc0
38 778 m 1
 231 790 l 1
 231 790 252 691 252 557 c 0
 252 422 207 277 207 277 c 1
 54 256 l 5
 54 256 71 359 71 523 c 0xa0
 71 660 38 778 38 778 c 1
EndSplineSet
Validated: 1
EndChar

StartChar: c
Encoding: 99 99 37
Width: 603
VWidth: 1111
Flags: W
HStem: -22 151<239.467 364> 377 166<234.577 391>
VStem: 17 215<140.313 374.616>
AnchorPoint: "Anchor-2" 294 -60 basechar 0
AnchorPoint: "Anchor-0" 323 588 basechar 0
LayerCount: 2
Fore
SplineSet
226 377 m 9
 232 129 l 1
 364 127 l 9
 378 230 l 9
 581 230 l 9
 581 230 579 -22 292 -22 c 0
 94 -22 17 124 17 260 c 0
 17 384 92 543 323 543 c 8
 554 543 588 307 588 307 c 25
 395 301 l 25
 391 379 l 1
 226 377 l 9
EndSplineSet
Validated: 1
Substitution2: "Single Substitution lookup 33 subtable" c.ss01
Substitution2: "'ss01' Style Set 1 in Latin lookup 0-1" c.ss01
EndChar

StartChar: s
Encoding: 115 115 38
Width: 568
VWidth: 1111
Flags: W
HStem: -37 126<230.625 379.106> 421 128<188.971 334.182>
VStem: 17 167<355.138 415.74> 382 170<90.449 171>
AnchorPoint: "Anchor-0" 290 588 basechar 0
AnchorPoint: "Anchor-2" 298 -82 basechar 0
LayerCount: 2
Fore
SplineSet
186 421 m 9
 184 352 l 25
 184 352 271 352 380 342 c 8
 489 332 552 251 552 153 c 8
 552 55 471 -37 298 -37 c 0
 36 -37 27 156 27 156 c 25
 211 152 l 25
 209 97 l 25
 382 89 l 1
 386 171 l 25
 386 171 325 173 238 177 c 0
 151 181 17 236 17 374 c 8
 17 512 184 549 270 549 c 0
 521 549 521 380 521 380 c 25
 340 376 l 25
 339 420 l 25
 186 421 l 9
EndSplineSet
Validated: 1
Substitution2: "Single Substitution lookup 33 subtable" s.ss01
Substitution2: "'ss01' Style Set 1 in Latin lookup 0-1" s.ss01
EndChar

StartChar: f
Encoding: 102 102 39
Width: 470
VWidth: 1111
Flags: W
HStem: 0 21G<77 307> 351 155<294 448> 362 134<-11 86> 562 247<324 420.875>
VStem: 77 230<0 187.923> 79 158<507 676.268> 90 204<168 349> 319 187<563.023 678.459>
AnchorPoint: "Anchor-2" 191 -16 basechar 0
AnchorPoint: "Anchor-0" 316 841 basechar 0
LayerCount: 2
Fore
SplineSet
-11 496 m 17xb3
 86 494 l 25
 86 494 79 531 79 618 c 16
 79 705 138 809 320 809 c 0
 502 809 506 657 506 626 c 16
 506 595 502 563 502 563 c 1
 324 562 l 25
 319 682 l 25
 237 677 l 25xb5
 232 507 l 25
 448 506 l 25
 448 351 l 25
 294 349 l 25xd3
 307 0 l 25
 77 0 l 25xd9
 90 364 l 25
 -11 362 l 25
 -11 496 l 17xb3
EndSplineSet
Validated: 1
Substitution2: "'ss02' Style Set 2 in Latin lookup 1-1" f.ss02
Substitution2: "Single Substitution lookup 33 subtable" f.ss01
Substitution2: "'ss01' Style Set 1 in Latin lookup 0-1" f.ss01
EndChar

StartChar: g
Encoding: 103 103 40
Width: 625
VWidth: 1111
Flags: W
HStem: -278 158<291.111 421.657> -24 155<227.375 385.54> 360 188<226.187 381.094> 516 20G<465.475 592>
VStem: 17 206<140.531 359.587> 428 175<-100.655 20>
AnchorPoint: "Anchor-2" 284 -305 basechar 0
AnchorPoint: "Anchor-0" 323 588 basechar 0
LayerCount: 2
Fore
SplineSet
223 360 m 9xec
 223 131 l 9
 392 130 l 9
 388 362 l 9
 223 360 l 9xec
17 271 m 0
 17 482 186 548 290 548 c 0xec
 394 548 443 477 443 477 c 25
 477 536 l 25xdc
 592 532 l 25
 592 532 603 230 603 20 c 16
 603 -190 457 -278 286 -278 c 0
 150 -278 89 -239 49 -159 c 0
 28 -118 23 -67 23 -67 c 1
 208 -53 l 1
 252 -129 l 25
 428 -120 l 25
 423 20 l 25
 423 20 381.039815994 -24 268 -24 c 0
 144 -24 17 71 17 271 c 0
EndSplineSet
Validated: 1
Substitution2: "'ss04' Style Set 4 lookup 10-1" g.ss04
Substitution2: "Single Substitution lookup 33 subtable" g.ss01
Substitution2: "'ss01' Style Set 1 in Latin lookup 0-1" g.ss01
EndChar

StartChar: h
Encoding: 104 104 41
Width: 548
VWidth: 1111
Flags: W
HStem: 0 13G<22 192.78 332.054 523> 511 20G<344 440> 749 20G<116.333 232.73>
VStem: 22 171<7 364> 23 206<473 733> 333 194<-0.816986 360.439>
AnchorPoint: "Anchor-2" 267 -2 basechar 0
AnchorPoint: "Anchor-0" 127 808 basechar 0
LayerCount: 2
Fore
SplineSet
23 733 m 17xec
 233 769 l 25
 229 473 l 25xec
 229 473 296 531 392 531 c 16
 488 531 527 443 527 347 c 16
 527 251 523 -1 523 -1 c 17
 332 -8 l 17
 333 364 l 17
 189 364 l 17
 193 0 l 17
 22 7 l 17xf4
 23 733 l 17xec
EndSplineSet
Validated: 1
Substitution2: "Single Substitution lookup 33 subtable" h.ss01
Substitution2: "'ss01' Style Set 1 in Latin lookup 0-1" h.ss01
EndChar

StartChar: j
Encoding: 106 106 42
Width: 235
VWidth: 1111
Flags: W
HStem: -237 145<-78.9556 30> 543 223<52.3184 182.944>
VStem: 1 231<593.827 715.981> 30 183<-85.8562 424.25>
AnchorPoint: "Anchor-2" 44 -281 basechar 0
LayerCount: 2
Fore
SplineSet
119 766 m 4xe0
 193 766 232 698 232 656 c 12
 232 614 196 543 123 543 c 12
 50 543 1 600 1 658 c 4
 1 716 45 766 119 766 c 4xe0
22 498 m 21
 210 508 l 13
 210 508 213 189 213 -18 c 4
 213 -198 106 -237 44 -237 c 20
 -18 -237 -79 -221 -79 -221 c 29
 -82 -91 l 29
 30 -92 l 29xd0
 22 498 l 21
EndSplineSet
Validated: 1
Substitution2: "'ss06' Style Set 6 lookup 12-1" j.ss06
EndChar

StartChar: t
Encoding: 116 116 43
Width: 481
VWidth: 1111
Flags: W
HStem: -24 138<250.181 331.428> 366 162<257 430> 371 150<257 430> 384 117<7 86>
VStem: 61 185<116.588 364.942> 334 138<114.446 210>
AnchorPoint: "Anchor-0" 204 671 basechar 0
AnchorPoint: "Anchor-1" 342 618 basechar 0
AnchorPoint: "Anchor-2" 258 -42 basechar 0
LayerCount: 2
Fore
SplineSet
143 637 m 17x9c
 258 640 l 25
 257 521 l 29xac
 430 528 l 29
 431 366 l 29xcc
 248 371 l 29xac
 246 114 l 25
 334 111 l 25
 337 210 l 1
 467 211 l 1
 467 211 472 169 472 140 c 0
 472 26 404 -24 257 -24 c 0
 110 -24 61 62 61 149 c 16
 61 236 86 384 86 384 c 29
 2 384 l 29
 7 501 l 29
 109 497 l 29
 143 637 l 17x9c
EndSplineSet
Validated: 1
Substitution2: "Single Substitution lookup 33 subtable" t.ss01
Substitution2: "'ss02' Style Set 2 in Latin lookup 1-1" t.ss02
Substitution2: "'ss01' Style Set 1 in Latin lookup 0-1" t.ss01
EndChar

StartChar: k
Encoding: 107 107 44
Width: 606
VWidth: 1111
Flags: W
HStem: 0 20G<22.2102 201 369 618> 520 20G<396.769 497.429> 741 20G<29.7898 223>
VStem: 22 175<0.0683594 154> 30 193<332 761>
AnchorPoint: "Anchor-0" 127 808 basechar 0
AnchorPoint: "Anchor-2" 289 -2 basechar 0
LayerCount: 2
Fore
SplineSet
30 761 m 17xe8
 223 761 l 17xe8
 216 332 l 17
 416 540 l 17
 587 498 l 17
 416 349 l 17
 618 16 l 17
 391 -1 l 25
 347 88 278 226 278 226 c 17
 197 154 l 25
 199 94 201 0 201 0 c 17
 22 0 l 17xf0
 30 761 l 17xe8
EndSplineSet
Validated: 1
EndChar

StartChar: l
Encoding: 108 108 45
Width: 243
VWidth: 1111
Flags: W
HStem: 0 21G<22 221> 741 20G<28.816 207>
VStem: 22 199<0 377> 29 178<377 754>
AnchorPoint: "Anchor-2" 129 -16 basechar 0
AnchorPoint: "Anchor-0" 126 788 basechar 0
LayerCount: 2
Fore
SplineSet
29 761 m 17xd0
 207 754 l 25xd0
 221 0 l 25
 22 0 l 25xe0
 29 761 l 17xd0
EndSplineSet
Validated: 1
EndChar

StartChar: n
Encoding: 110 110 46
Width: 591
VWidth: 1111
Flags: W
HStem: 0 15G<28.7233 218 377.212 564> 371 169<280.56 381>
VStem: 22 190<0 368> 29 189<0 368> 381 188<0.158474 368.954>
AnchorPoint: "Anchor-2" 298 -16 basechar 0
AnchorPoint: "Anchor-0" 316 554 basechar 0
LayerCount: 2
Fore
SplineSet
22 506 m 5xe8
 169 507 l 5
 182 466 l 5
 182 466 277 540 397 540 c 4
 517 540 569 464 569 341 c 20
 569 218 564 0 564 0 c 29
 377 -6 l 29
 381 371 l 29
 212 368 l 29xe8
 218 0 l 29
 29 0 l 29xd8
 22 506 l 5xe8
EndSplineSet
Validated: 1
Substitution2: "Single Substitution lookup 33 subtable" n.ss01
Substitution2: "'ss01' Style Set 1 in Latin lookup 0-1" n.ss01
EndChar

StartChar: p
Encoding: 112 112 47
Width: 611
VWidth: 1111
Flags: W
HStem: -16 156<237.147 378.157> 358 183<251.283 373.958> 496 20G<151 154.226>
VStem: 22 189<203.5 354> 29 199<-234 9> 382 212<148.309 355.386>
AnchorPoint: "Anchor-2" 121 -245 basechar 0
AnchorPoint: "Anchor-0" 316 577 basechar 0
LayerCount: 2
Fore
SplineSet
211 354 m 1xd4
 201 139 l 25
 382 140 l 1
 376 358 l 25
 211 354 l 1xd4
22 507 m 25
 72 510 151 516 151 516 c 25xb4
 161 454 l 25
 161 454 242 541 340 541 c 16
 438 541 594 469 594 259 c 16
 594 49 408 -16 338 -16 c 16
 268 -16 232 9 232 9 c 25
 228 -236 l 25
 29 -234 l 25xcc
 22 507 l 25
EndSplineSet
Validated: 1
Substitution2: "Single Substitution lookup 33 subtable" p.ss01
Substitution2: "'ss01' Style Set 1 in Latin lookup 0-1" p.ss01
EndChar

StartChar: q
Encoding: 113 113 48
Width: 650
VWidth: 1111
Flags: W
HStem: -38 185<241.589 338.635> 358 178<250.185 394.736> 491 20G<502.343 623>
VStem: 17 224<150.433 355.832> 408 220<-250 34> 432 191<141 351> 439 184<141 351>
AnchorPoint: "Anchor-2" 524 -275 basechar 0
LayerCount: 2
Fore
SplineSet
246 358 m 9xd4
 241 147 l 25
 439 141 l 25xd2
 432 351 l 25
 246 358 l 9xd4
283 536 m 0
 431 536 482 444 482 444 c 25
 511 511 l 25
 623 502 l 25xb2
 628 -250 l 25
 408 -251 l 25xb8
 410 34 l 25
 410 34 342 -38 253 -38 c 0
 131 -38 17 65 17 242 c 0
 17 419 102 536 283 536 c 0
EndSplineSet
Validated: 1
EndChar

StartChar: w
Encoding: 119 119 49
Width: 880
VWidth: 1111
Flags: W
HStem: 0 21G<147.247 366.507 511.203 745.152> 528 20G<72.3333 213.156 374 583.149 726.138 876>
AnchorPoint: "Anchor-2" 442 -16 basechar 0
AnchorPoint: "Anchor-0" 474 566 basechar 0
LayerCount: 2
Fore
SplineSet
4 518 m 17
 209 548 l 25
 289 163 l 25
 374 532 l 25
 579 536 l 25
 657 160 l 25
 730 538 l 25
 876 528 l 25
 740 0 l 25
 517 0 l 25
 437 276 l 25
 361 0 l 25
 153 0 l 25
 4 518 l 17
EndSplineSet
Validated: 1
EndChar

StartChar: r
Encoding: 114 114 50
Width: 491
VWidth: 1111
Flags: W
HStem: 0 21G<30.6484 236> 496 20G<22 172.562>
VStem: 22 206<113.778 373> 31 205<0 326.375>
AnchorPoint: "Anchor-2" 131 -16 basechar 0
AnchorPoint: "Anchor-0" 260 577 basechar 0
LayerCount: 2
Fore
SplineSet
22 512 m 17xe0
 169 516 l 25
 182 443 l 25
 182 443 230 536 324 536 c 0
 418 536 460 463 472 407 c 16
 484 351 479 267 479 267 c 1
 301 267 l 17
 302 373 l 0
 228 373 l 25xe0
 236 0 l 25
 31 0 l 25xd0
 22 512 l 17xe0
EndSplineSet
Validated: 33
Substitution2: "Single Substitution lookup 33 subtable" r.ss01
Substitution2: "'ss02' Style Set 2 in Latin lookup 1-1" r.ss02
Substitution2: "'ss01' Style Set 1 in Latin lookup 0-1" r.ss01
EndChar

StartChar: y
Encoding: 121 121 51
Width: 542
VWidth: 1111
Flags: W
HStem: -293 202<79.1675 144> -293 125<149.853 215.617> 507 20G<0 211.316 380.01 485.935>
AnchorPoint: "Anchor-2" 175 -332 basechar 0
AnchorPoint: "Anchor-0" 303 554 basechar 0
LayerCount: 2
Fore
SplineSet
0 517 m 17x60
 206 527 l 25
 307 147 l 25
 384 533 l 25
 542 502 l 1
 542 502 470 265 419 37 c 0
 376 -156 316 -293 171 -293 c 0x60
 102 -293 77 -277 31 -227 c 0
 -6 -186 0 -93 0 -93 c 1
 144 -91 l 25xa0
 149 -168 l 25
 219 -162 l 25
 217 -50 l 25
 0 517 l 17x60
EndSplineSet
Validated: 33
Substitution2: "'ss07' Style Set 7 lookup 13-1" y.ss07
EndChar

StartChar: u
Encoding: 117 117 52
Width: 587
VWidth: 1111
Flags: W
HStem: 0 21G<140 244 391.385 566> 490 20G<29 216.684 366.277 561>
VStem: 22 189<132.117 506.897> 371 195<149 506>
AnchorPoint: "Anchor-2" 287 -38 basechar 0
AnchorPoint: "Anchor-3" 453 31 basechar 0
AnchorPoint: "Anchor-0" 298 554 basechar 0
LayerCount: 2
Fore
SplineSet
29 507 m 17
 217 510 l 25
 211 130 l 25
 371 149 l 25
 366 510 l 25
 561 506 l 25
 566 0 l 25
 401 0 l 0
 376 52 l 25
 376 52 296 -39 192 -39 c 16
 88 -39 22 18 22 192 c 16
 22 366 29 507 29 507 c 17
EndSplineSet
Validated: 1
Substitution2: "Single Substitution lookup 33 subtable" u.ss01
Substitution2: "'ss01' Style Set 1 in Latin lookup 0-1" u.ss01
EndChar

StartChar: x
Encoding: 120 120 53
Width: 552
VWidth: 1111
Flags: W
HStem: -40 45G<156 165.688 313.31 563> 531 20G<122.098 234.772 370.98 536>
AnchorPoint: "Anchor-0" 308 562 basechar 0
AnchorPoint: "Anchor-2" 259 -27 basechar 0
LayerCount: 2
Fore
SplineSet
13 510 m 17
 226 551 l 9
 301 380 l 25
 382 527 l 25
 536 516 l 25
 411 291 l 25
 563 0 l 25
 322 -16 l 25
 249 152 l 25
 156 -40 l 25
 156 -40 -11 -1 -11 0 c 16
 -11 1 168 270 168 270 c 25
 13 510 l 17
EndSplineSet
Validated: 1
EndChar

StartChar: v
Encoding: 118 118 54
Width: 522
VWidth: 1111
Flags: W
HStem: 0 21G<163.821 369.551> 518 20G<64.5806 206.741 371.14 533>
AnchorPoint: "Anchor-0" 289 562 basechar 0
AnchorPoint: "Anchor-2" 270 -27 basechar 0
LayerCount: 2
Fore
SplineSet
-11 507 m 17
 202 538 l 25
 289 171 l 25
 376 529 l 25
 533 519 l 25
 363 0 l 25
 171 0 l 25
 -11 507 l 17
EndSplineSet
Validated: 1
EndChar

StartChar: seven
Encoding: 55 55 55
Width: 552
VWidth: 1111
Flags: W
HStem: -4 21G<113.385 341> 588 188<24 291.75> 596 183<62.25 330>
LayerCount: 2
Fore
SplineSet
22 776 m 17xc0
 529 779 l 25
 530 624 l 17
 439 456 394 326 288 -4 c 9
 61 22 l 17
 130 213 225 405 330 596 c 13xa0
 24 588 l 25
 22 776 l 17xc0
EndSplineSet
Validated: 1
Substitution2: "'sinf' Scientific Inferiors lookup 0 subtable" seven.inferior
Substitution2: "'sups' Superscript lookup 0 subtable" seven.superior
Substitution2: "Single Substitution lookup 33 subtable" seven.ss01
Substitution2: "'ss01' Style Set 1 in Latin lookup 0-1" seven.ss01
EndChar

StartChar: two
Encoding: 50 50 56
Width: 584
VWidth: 1111
Flags: W
HStem: 0 189<276.444 551> 0 180<198 472.556> 631 166<213.791 353.051>
VStem: 11 203<487 624.178> 17 181<182.504 246> 362 206<461 628.226>
LayerCount: 2
Fore
SplineSet
11 480 m 17x74
 15 687 99 797 287 797 c 0
 475 797 568 676 568 556 c 0
 568 463 531 358 392 307 c 0
 266 261 200 246 200 246 c 25
 198 180 l 25x6c
 551 189 l 25xac
 552 0 l 25
 27 0 l 1
 27 0 17 112 17 186 c 0x6c
 17 317 70 382 183 413 c 0
 296 444 362 461 362 461 c 1
 358 631 l 25
 213 629 l 25
 214 487 l 25
 11 480 l 17x74
EndSplineSet
Validated: 1
Substitution2: "'sinf' Scientific Inferiors lookup 0 subtable" two.inferior
Substitution2: "'sups' Superscript lookup 0 subtable" two.superior
EndChar

StartChar: one
Encoding: 49 49 57
Width: 352
VWidth: 1111
Flags: W
HStem: 0 21G<125.932 330> 588 143<13 122.184> 757 20G<321 321.232>
VStem: 124 197<172.667 592> 126 204<0 592>
LayerCount: 2
Fore
SplineSet
13 731 m 17xf0
 174 741 321 777 321 777 c 25xf0
 330 0 l 25
 126 0 l 25xe8
 124 592 l 17
 11 588 l 9
 13 731 l 17xf0
EndSplineSet
Substitution2: "'sinf' Scientific Inferiors lookup 0 subtable" one.inferior
Substitution2: "'sups' Superscript lookup 0 subtable" one.superior
EndChar

StartChar: backslash
Encoding: 92 92 58
Width: 485
VWidth: 1111
Flags: W
LayerCount: 2
Fore
SplineSet
109 832 m 1
 109 832 219.749023438 489.724609375 282 317 c 0
 362.533203125 93.548828125 475 -163 475 -163 c 1
 369 -200 l 1
 369 -200 275.040039062 112.694335938 204 303 c 0
 120.239257812 527.379882812 11 798 11 798 c 1
 109 832 l 1
EndSplineSet
Validated: 1
EndChar

StartChar: three
Encoding: 51 51 59
Width: 634
VWidth: 1111
Flags: W
HStem: -19 163<237.831 393.731> 308 175<218 366> 509 21G<17 222.84> 632 166<223.702 364.506>
VStem: 370 204<493.98 631.982> 397 221<148 308.325>
LayerCount: 2
Fore
SplineSet
17 514 m 17xf8
 27 695 151 798 308 798 c 0
 465 798 574 697 574 586 c 0xf8
 574 442 451 413 451 413 c 29
 451 413 618 385 618 217 c 0
 618 116 548 -19 299 -19 c 0
 17 -19 11 247 11 247 c 25
 232 249 l 25
 230 144 l 1
 397 148 l 1xf4
 398 311 l 1
 218 308 l 1
 216 483 l 25
 366 478 l 1
 370 632 l 25
 222 634 l 25
 223 509 l 25
 17 514 l 17xf8
EndSplineSet
Validated: 1
Substitution2: "'sinf' Scientific Inferiors lookup 0 subtable" three.inferior
Substitution2: "'sups' Superscript lookup 0 subtable" three.superior
EndChar

StartChar: four
Encoding: 52 52 60
Width: 657
VWidth: 1111
Flags: W
HStem: 0 21G<293 524> 187 154<170 297> 190 168<519 633>
VStem: 293 231<0 187> 297 220<0 187> 339 180<358 551.556> 348 174<400.444 612>
LayerCount: 2
Fore
SplineSet
348 612 m 9xc2
 170 341 l 25
 339 340 l 25xc4
 348 612 l 9xc2
327 783 m 17
 522 767 l 25xc2
 519 358 l 25xa4
 633 362 l 25
 636 189 l 25
 517 190 l 29xa8
 524 0 l 29
 293 0 l 25xb0
 297 187 l 25xc8
 18 183 l 25
 11 347 l 25
 327 783 l 17
EndSplineSet
Validated: 1
Substitution2: "'sinf' Scientific Inferiors lookup 0 subtable" four.inferior
Substitution2: "'sups' Superscript lookup 0 subtable" four.superior
EndChar

StartChar: five
Encoding: 53 53 61
Width: 605
VWidth: 1111
Flags: W
HStem: -13 150<211.109 360.27> 360 157<214.198 361.089> 610 179<163 519>
VStem: 367 222<160.029 357.921>
LayerCount: 2
Fore
SplineSet
163 610 m 17
 163 463 l 25
 163 463 216 517 327 517 c 0
 516 517 589 380 589 264 c 0
 589 148 511 -13 281 -13 c 0
 7 -13 14 247 14 247 c 25
 214 247 l 25
 208 137 l 25
 367 138 l 25
 369 360 l 25
 182 366 l 25
 170 311 l 25
 11 318 l 25
 46 789 l 25
 531 789 l 25
 519 609 l 25
 163 610 l 17
EndSplineSet
Validated: 33
Substitution2: "'sinf' Scientific Inferiors lookup 0 subtable" five.inferior
Substitution2: "'sups' Superscript lookup 0 subtable" five.superior
EndChar

StartChar: six
Encoding: 54 54 62
Width: 642
VWidth: 1111
Flags: W
HStem: -20 170<224.1 396.515> 328 171<293.563 389> 549 21G<420.494 610> 629 165<241.328 413.011>
VStem: 17 213<263.75 332 447 573.18>
LayerCount: 2
Fore
SplineSet
230 332 m 1
 222 150 l 1
 401 152 l 1
 389 328 l 1
 230 332 l 1
333 794 m 0
 605 794 610 556 610 556 c 25
 421 549 l 25
 419 628 l 25
 237 629 l 25
 234 447 l 25
 234 447 308 499 396 499 c 16
 484 499 626 456 626 287 c 16
 626 118 525 -20 314 -20 c 16
 103 -20 17 175 17 378 c 16
 17 581 61 794 333 794 c 0
EndSplineSet
Validated: 1
Substitution2: "'sinf' Scientific Inferiors lookup 0 subtable" six.inferior
Substitution2: "'sups' Superscript lookup 0 subtable" six.superior
Substitution2: "Single Substitution lookup 33 subtable" six.ss01
Substitution2: "'ss01' Style Set 1 in Latin lookup 0-1" six.ss01
EndChar

StartChar: eight
Encoding: 56 56 63
Width: 674
VWidth: 1111
Flags: W
HStem: -18 161<245.412 337> 327 157<253 395.375> 335 147<259.625 408> 641 175<256.625 407.205>
VStem: 17 222<146 307.594> 30 223<492.781 631.98> 414 205<510.702 639.885> 435 228<159.202 230.294>
LayerCount: 2
Fore
SplineSet
237 327 m 1xd9
 239 143 l 1
 435 157 l 5
 418 335 l 1xb9
 237 327 l 1xd9
249 634 m 1
 253 484 l 25xd6
 408 482 l 1
 414 641 l 25xb6
 249 634 l 1
30 583 m 0
 30 700 124 816 328 816 c 0
 532 816 619 705 619 593 c 0x96
 619 470 503 424 503 424 c 25
 503 424 663 409 663 233 c 0
 663 80 528 -18 317 -18 c 0
 139 -18 17 78 17 211 c 0x99
 17 367 146 408 146 408 c 25
 146 408 30 444 30 583 c 0
EndSplineSet
Validated: 1
Substitution2: "'sinf' Scientific Inferiors lookup 0 subtable" eight.inferior
Substitution2: "'sups' Superscript lookup 0 subtable" eight.superior
Substitution2: "Single Substitution lookup 33 subtable" eight.ss01
Substitution2: "'ss01' Style Set 1 in Latin lookup 0-1" eight.ss01
EndChar

StartChar: nine
Encoding: 57 57 64
Width: 642
VWidth: 1111
Flags: W
HStem: -20 167<228.596 400.38> 276 175<248 363.014> 629 177<241.587 415.029>
LayerCount: 2
Fore
SplineSet
412 447 m 1
 420 629 l 1
 236 627 l 1
 248 451 l 1
 412 447 l 1
298 -20 m 0
 26 -20 32 230 32 230 c 25
 230 223 l 25
 223 147 l 25
 406 146 l 25
 400 317 l 25
 400 317 346 276 247 276 c 0
 148 276 17 353 17 522 c 16
 17 691 150 806 317 806 c 0
 550 806 626 599 626 396 c 16
 626 193 570 -20 298 -20 c 0
EndSplineSet
Validated: 33
Substitution2: "'sinf' Scientific Inferiors lookup 0 subtable" nine.inferior
Substitution2: "'sups' Superscript lookup 0 subtable" nine.superior
Substitution2: "Single Substitution lookup 33 subtable" nine.ss01
Substitution2: "'ss01' Style Set 1 in Latin lookup 0-1" nine.ss01
EndChar

StartChar: zero
Encoding: 48 48 65
Width: 650
VWidth: 1111
Flags: W
HStem: -8 197<269.889 392.689> 618 184<234.045 406.611>
VStem: 17 216<218.82 575.031> 413 220<404.5 578.828>
LayerCount: 2
Fore
SplineSet
229 618 m 9
 233 198 l 9
 399 189 l 9
 413 620 l 9
 229 618 l 9
17 408 m 4
 17 658 122 802 320 802 c 0
 518 802 633 671 633 404 c 20
 633 137 531 -8 318 -8 c 16
 105 -8 17 158 17 408 c 4
EndSplineSet
Validated: 1
Substitution2: "'sinf' Scientific Inferiors lookup 0 subtable" zero.inferior
Substitution2: "'sups' Superscript lookup 0 subtable" zero.superior
Substitution2: "Single Substitution lookup 33 subtable" zero.ss01
Substitution2: "'ss01' Style Set 1 in Latin lookup 0-1" zero.ss01
EndChar

StartChar: question
Encoding: 63 63 66
Width: 607
VWidth: 1111
Flags: W
HStem: 0 222<178.819 337.617> 258 204<182 338> 342 125<338.015 386> 541 21G<11 212.664> 658 151<213.922 386.558>
VStem: 127 261<51.2794 175.511> 386 205<470.47 651.611>
LayerCount: 2
Fore
SplineSet
256 222 m 0x9c
 333 222 388 177 388 117 c 0
 388 57 349 0 262 0 c 8
 175 0 127 53 127 120 c 0
 127 187 179 222 256 222 c 0x9c
11 547 m 17
 29 766 184 809 313 809 c 0
 442 809 591 759 591 563 c 0
 591 385 462 342 389 342 c 0xba
 359 342 338 347 338 347 c 1
 347 264 l 1
 182 258 l 1
 164 462 l 1xda
 386 467 l 25xba
 390 658 l 25
 211 660 l 25
 213 541 l 25
 11 547 l 17
EndSplineSet
Validated: 1
EndChar

StartChar: ampersand
Encoding: 38 38 67
Width: 746
VWidth: 1111
Flags: W
HStem: -12 165<222.709 356.408> 646 137<267 376.992>
VStem: 10 208<156.695 315.388> 106 156<527.171 643.419> 387 154<525.838 611.1>
LayerCount: 2
Fore
SplineSet
222 318 m 9xe8
 218 153 l 25
 403 158 l 25
 269 336 l 25
 222 318 l 9xe8
267 646 m 1
 262 525 l 25xd8
 387 525 l 25
 377 648 l 25
 267 646 l 1
106 602 m 0
 106 738 218 783 319 783 c 0
 420 783 541 723 541 600 c 16
 541 448 414 408 414 408 c 9
 518 281 l 1
 502 402 l 1
 633 417 l 1
 633 417 658 376 658 330 c 0
 658 229 588 192 588 192 c 9
 731 20 l 25
 524 -7 l 25
 459 68 l 17
 459 68 375 -12 228 -12 c 0
 115 -12 10 65 10 216 c 0xe8
 10 412 190 436 190 436 c 1
 190 436 106 466 106 602 c 0
EndSplineSet
Validated: 1
EndChar

StartChar: period
Encoding: 46 46 68
Width: 306
VWidth: 1111
Flags: W
HStem: 0 251<84.2579 232.535>
VStem: 22 262<60.6431 193.48>
LayerCount: 2
Fore
SplineSet
156 251 m 0
 238 251 284 195 284 128 c 8
 284 61 243 0 159 0 c 8
 75 0 22 65 22 127 c 0
 22 189 74 251 156 251 c 0
EndSplineSet
Validated: 1
EndChar

StartChar: slash
Encoding: 47 47 69
Width: 485
VWidth: 1111
Flags: W
LayerCount: 2
Fore
SplineSet
377 832 m 1
 475 798 l 1
 475 798 365.76025472 527.380333991 282 303 c 0
 210.959662609 112.694291357 117 -200 117 -200 c 1
 11 -163 l 1
 11 -163 123.466343879 93.5487869827 204 317 c 0
 266.251439592 489.724800525 377 832 377 832 c 1
EndSplineSet
Validated: 1
EndChar

StartChar: comma
Encoding: 44 44 70
Width: 296
VWidth: 1111
Flags: W
HStem: -4 245<78.0721 168.057>
VStem: 168 106<-51.7778 2>
LayerCount: 2
Fore
SplineSet
22 109 m 0
 22 207 97 241 148 241 c 0
 199 241 274 206 274 66 c 0
 274 -196 53 -156 53 -156 c 25
 48 -53 l 25
 168 -56 l 1
 169 2 l 1
 169 2 149 -4 121 -4 c 0
 63 -4 22 33 22 109 c 0
EndSplineSet
Validated: 33
EndChar

StartChar: at
Encoding: 64 64 71
Width: 880
VWidth: 1111
Flags: W
HStem: -112 80<298.963 607.943> 76.7002 136.6<369.219 469.495> 86 75<671.114 765.362> 387.3 125<377.856 467.306> 641 79<303.879 573.952>
VStem: 17 68<167.858 425.587> 194.9 170.6<216.425 326.08> 490.3 165.4<222.174 378.9> 804 60<204.428 433.347>
LayerCount: 2
Back
SplineSet
17 353 m 4xbf80
 17 582.511627907 179.217270195 770 439 770 c 4
 695.307692308 770 864 603.097982709 864 365 c 4
 864 238.537313433 806.564102564 136 704 136 c 4xbf80
 613.061594645 136 573.700195312 215.099609375 573.700195312 215.099609375 c 5
 573.700195312 215.099609375 534.04923448 126.700195312 404.900390625 126.700195312 c 4xdf80
 272.900390625 126.700195312 194.900390625 234.700289819 194.900390625 349.900390625 c 4
 194.900390625 455.500099311 252.500335152 562.299804688 397.700195312 562.299804688 c 4
 492.500195313 562.299804688 541.700195312 502.299804688 541.700195312 502.299804688 c 5
 540.5 555.099609375 l 5
 676.099609375 550.299804688 l 5
 676.099609375 550.299804688 655.700195312 416.893250168 655.700195312 297.099609375 c 4
 655.700195312 239.336580301 674.893310547 211 712 211 c 4
 764.571428571 211 804 251.162790698 804 368 c 4
 804 563.018867925 648.992565056 691 435 691 c 4
 254.512195122 691 85 582.571428571 85 346 c 4
 85 122.248062016 233.195488722 18 450 18 c 4
 623.407725322 18 723 84 723 84 c 5
 753 23 l 5
 753 23 637.183266932 -62 447 -62 c 4
 176.788519637 -62 17 96.7826086957 17 353 c 4xbf80
376.299804688 437.299804688 m 5
 365.5 263.299804688 l 29xdf80
 490.299804688 271.700195312 l 29
 485.5 428.900390625 l 29
 376.299804688 437.299804688 l 5
EndSplineSet
Fore
SplineSet
17 303 m 0xbf80
 17 532.511627907 179.217270195 720 439 720 c 0
 695.307692308 720 864 553.097982709 864 315 c 0
 864 188.537313433 806.564102564 86 704 86 c 0xbf80
 613.061594645 86 573.700195312 165.099609375 573.700195312 165.099609375 c 1
 573.700195312 165.099609375 534.04923448 76.7001953125 404.900390625 76.7001953125 c 0xdf80
 272.900390625 76.7001953125 194.900390625 184.700289819 194.900390625 299.900390625 c 0
 194.900390625 405.500099311 252.500335152 512.299804688 397.700195312 512.299804688 c 0
 492.500195313 512.299804688 541.700195312 452.299804688 541.700195312 452.299804688 c 1
 540.5 505.099609375 l 1
 676.099609375 500.299804688 l 1
 676.099609375 500.299804688 655.700195312 366.893250168 655.700195312 247.099609375 c 0
 655.700195312 189.336580301 674.893310547 161 712 161 c 0
 764.571428571 161 804 201.162790698 804 318 c 0
 804 513.018867925 648.992565056 641 435 641 c 0
 254.512195122 641 85 532.571428571 85 296 c 0
 85 72.2480620155 233.195488722 -32 450 -32 c 0
 623.407725322 -32 723 34 723 34 c 1
 753 -27 l 1
 753 -27 637.183266932 -112 447 -112 c 0
 176.788519637 -112 17 46.7826086957 17 303 c 0xbf80
376.299804688 387.299804688 m 1
 365.5 213.299804688 l 25xdf80
 490.299804688 221.700195312 l 25
 485.5 378.900390625 l 25
 376.299804688 387.299804688 l 1
EndSplineSet
Substitution2: "'case' Case-Sensitive Forms lookup 14-1" at.case
EndChar

StartChar: percent
Encoding: 37 37 72
Width: 776
VWidth: 1111
Flags: W
HStem: -42 125<534.293 634.125> 237 110<540.865 632.619> 359 132<167.384 253.128> 599 62<372.649 523.66> 630 119<158.832 258.953>
VStem: 17 146<492.091 629.401> 257 119<493.429 611.992> 402 130<84.5625 236.292> 637 123<87.3578 233>
LayerCount: 2
Fore
SplineSet
158 630 m 1xef80
 163 491 l 25
 257 491 l 25
 259 627 l 25
 158 630 l 1xef80
537 237 m 1
 532 83 l 25
 637 85 l 25
 633 233 l 25
 537 237 l 1
587 347 m 0
 720 347 760 253 760 162 c 0
 760 71 714 -42 576 -42 c 8
 438 -42 402 69 402 147 c 0
 402 225 454 347 587 347 c 0
200 749 m 0
 278 749 346 687 346 687 c 1
 346 687 380 661 438 661 c 0
 557 661 632 777 632 777 c 25
 746 740 l 25
 746 740 583 562 412 333 c 8
 241 104 128 -51 128 -51 c 5
 41 4 l 29
 41 4 191 147 379 408 c 0
 468 531 568 648 568 648 c 1
 568 648 509 599 448 599 c 0xf780
 387 599 372 612 372 612 c 1
 372 612 376 601 376 552 c 0
 376 503 330 359 197 359 c 0
 64 359 17 477 17 567 c 0
 17 657 84 749 200 749 c 0
EndSplineSet
Validated: 1
EndChar

StartChar: asterisk
Encoding: 42 42 73
Width: 403
VWidth: 1111
Flags: W
HStem: 740 20G<88.5455 121.535>
LayerCount: 2
Fore
SplineSet
182 792 m 1
 319 753 l 25
 261 659 l 1
 371 680 l 29
 377 572 l 1
 259 589 l 25
 333 471 l 25
 208 441 l 25
 192 564 l 25
 100 452 l 25
 22 560 l 25
 140 611 l 25
 28 650 l 25
 102 760 l 1
 186 674 l 25
 182 792 l 1
EndSplineSet
Validated: 1
EndChar

StartChar: parenright
Encoding: 41 41 74
Width: 248
VWidth: 1111
Flags: W
VStem: 161 71<237.964 441.607>
LayerCount: 2
Fore
SplineSet
34 781 m 1
 112 796 l 25
 112 796 232 622 232 340 c 16
 232 58 92 -189 92 -189 c 1
 17 -169 l 25
 17 -169 161 266 161 342 c 4
 161 418 34 781 34 781 c 1
EndSplineSet
Validated: 1
EndChar

StartChar: parenleft
Encoding: 40 40 75
Width: 262
VWidth: 1111
Flags: W
VStem: 17 86<184.652 441.543>
LayerCount: 2
Fore
SplineSet
186 811 m 5
 246 762 l 25
 246 762 103 465 103 318 c 16
 103 171 243 -162 243 -162 c 25
 177 -189 l 29
 177 -189 17 89 17 322 c 16
 17 555 186 811 186 811 c 5
EndSplineSet
Validated: 1
EndChar

StartChar: hyphen
Encoding: 45 45 76
Width: 323
VWidth: 1111
Flags: W
HStem: 211 145<29 294>
VStem: 22 279<211 356>
LayerCount: 2
Fore
SplineSet
29 356 m 5
 294 361 l 29
 301 206 l 29
 22 211 l 29
 29 356 l 5
EndSplineSet
Validated: 1
EndChar

StartChar: plus
Encoding: 43 43 77
Width: 472
VWidth: 1111
Flags: W
HStem: 318 145<34 167> 318 133<306 444>
VStem: 160 143<174 318> 167 134<174 318>
LayerCount: 2
Fore
SplineSet
170 611 m 1x90
 317 614 l 25
 306 451 l 29
 451 456 l 29
 444 313 l 29
 301 318 l 29x50
 303 174 l 25
 160 172 l 25x60
 167 318 l 29
 22 320 l 29
 34 465 l 29
 177 463 l 29
 170 611 l 1x90
EndSplineSet
Validated: 1
EndChar

StartChar: equal
Encoding: 61 61 78
Width: 434
VWidth: 1111
Flags: W
HStem: 199 143<44 322.333> 207 144<110.667 400> 422 145<29 406>
LayerCount: 2
Fore
SplineSet
26 342 m 5xa0
 407 351 l 5
 400 207 l 5x60
 44 199 l 5
 26 342 l 5xa0
29 567 m 1
 406 572 l 25
 412 417 l 25
 22 422 l 25
 29 567 l 1
EndSplineSet
Validated: 1
EndChar

StartChar: colon
Encoding: 58 58 79
Width: 306
VWidth: 1111
Flags: W
HStem: 0 251<83.3644 226.829> 300 249<78.1519 222.994>
VStem: 22 262<61.4622 193.129> 23 254<353.716 493.295>
LayerCount: 2
Fore
SplineSet
149 549 m 4xd0
 231 549 277 495 277 428 c 4
 277 361 232 300 148 300 c 4
 64 300 23 360 23 422 c 4
 23 484 67 549 149 549 c 4xd0
159 251 m 4
 241 251 284 204 284 137 c 4
 284 70 238 0 154 0 c 4
 70 0 22 53 22 127 c 4xe0
 22 189 77 251 159 251 c 4
EndSplineSet
Validated: 1
EndChar

StartChar: semicolon
Encoding: 59 59 80
Width: 296
VWidth: 1111
Flags: W
HStem: -4 245<76.2116 168.581> 299 250<78.0645 217.286>
VStem: 23 251<27.2856 173.053 352.525 492.638>
LayerCount: 2
Fore
SplineSet
142 549 m 0
 224 549 273 491 273 424 c 0
 273 357 236 299 152 299 c 0
 68 299 23 361 23 423 c 0
 23 485 60 549 142 549 c 0
23 100 m 0
 23 198 86 241 137 241 c 0
 188 241 274 213 274 73 c 0
 274 -189 57 -153 57 -153 c 1
 58 -53 l 1
 172 -48 l 1
 169 2 l 1
 169 2 149 -4 121 -4 c 0
 63 -4 23 24 23 100 c 0
EndSplineSet
Validated: 33
EndChar

StartChar: dollar
Encoding: 36 36 81
Width: 657
VWidth: 1111
Flags: W
HStem: -10 21G<252 392.608> 92 139<189.218 469.823> 333.032 164.767<193.144 464.135> 532 21G<442.42 602> 606 113<195.682 436.213>
VStem: 32 159<498.398 603.486> 252 141<-8 92> 267 118<687.947 813> 287 77<148 640.333> 473 164<230.223 324.443>
LayerCount: 2
Fore
SplineSet
391 92 m 5xfcc0
 393 -10 l 5
 252 -8 l 5xfe40
 256 113 l 5
 287 146 l 5xfcc0
 286 601 l 5
 267 719 l 5
 265 813 l 5
 386 813 l 5
 385 717 l 5xfd40
 365 602 l 5
 364 148 l 5
 391 92 l 5xfcc0
193 606 m 1
 191 497 l 1
 191 497 268.169064479 497.798828125 334 497.798828125 c 0
 514 497.798828125 637 454.841651841 637 296 c 0
 637 139 533.721682848 92 308 92 c 0
 34 92 29 282 29 282 c 1
 190 287 l 1
 188 231 l 1
 473 229 l 1
 470 328 l 1
 470 328 404.139532575 330.354811585 314.086914062 333.032226562 c 0
 147 338 32 394.417601944 32 536 c 0
 32 638 109 719 326 719 c 0
 602 719 602 540 602 540 c 1
 443 532 l 1
 441 601 l 1
 193 606 l 1
EndSplineSet
Validated: 5
EndChar

StartChar: cent
Encoding: 162 162 82
Width: 657
VWidth: 1111
Flags: W
HStem: -21 21G<249 249.746> 101 173<201.252 442.936>
VStem: 17 177<286.242 464.4> 278 99<178 632.8> 278 92<178 602>
LayerCount: 2
Fore
SplineSet
395 129 m 5xe8
 407 -18 l 5
 407 -21 249 -21 249 -21 c 5
 254 113 l 5
 278 176 l 5xe8
 273 601 l 5
 266 694 l 5
 266 694 266 805 269 805 c 5
 392 805 l 5
 392 668 l 5
 377 602 l 5xf0
 370 178 l 5
 395 129 l 5xe8
331 706 m 0
 602.360650423 706 632 480 632 480 c 1
 441 470 l 1
 440 547 l 1
 440 546 204 546 204 546 c 1
 194 274 l 1
 446 271 l 1
 450 342 l 1
 631 348 l 1
 631 348 593.827586207 101 323 101 c 0
 93 101 17 265.31511254 17 407 c 0
 17 569 105 706 331 706 c 0
EndSplineSet
Validated: 5
EndChar

StartChar: emdash
Encoding: 8212 8212 83
Width: 666
VWidth: 1111
Flags: W
HStem: 208 119<24 641>
LayerCount: 2
Fore
SplineSet
22 329 m 1
 644 327 l 25
 641 208 l 25
 24 214 l 25
 22 329 l 1
EndSplineSet
Validated: 1
EndChar

StartChar: grave
Encoding: 96 96 84
Width: 231
VWidth: 1111
Flags: W
HStem: 492 236
VStem: 22 187
LayerCount: 2
Fore
SplineSet
151 728 m 1
 162 658 185 584 209 508 c 9
 158 492 l 1
 105 549 54 643 22 703 c 0
 151 728 l 1
EndSplineSet
Validated: 1
EndChar

StartChar: greater
Encoding: 62 62 85
Width: 407
VWidth: 1111
Flags: W
LayerCount: 2
Fore
SplineSet
32 581 m 1
 380 449 l 1
 386 316 l 1
 22 204 l 5
 27 349 l 1
 272 387 l 25
 37 440 l 1
 32 581 l 1
EndSplineSet
Validated: 1
EndChar

StartChar: quoteright
Encoding: 8217 8217 86
Width: 296
VWidth: 1111
Flags: W
HStem: 530 239<76.8438 157.834>
VStem: 157 117<481.13 536>
LayerCount: 2
Fore
SplineSet
22 642 m 0
 22 740 102 769 153 769 c 0
 204 769 274 739 274 599 c 0
 274 337 47 376 47 376 c 25
 48 480 l 1
 157 478 l 1
 158 536 l 1
 158 536 144 530 116 530 c 0
 58 530 22 566 22 642 c 0
EndSplineSet
Validated: 33
EndChar

StartChar: quoteleft
Encoding: 8216 8216 87
Width: 296
VWidth: 1111
Flags: W
HStem: 376 238<139.01 219.844> 749 20G<249.81 250>
VStem: 22 251<431.545 570.377>
LayerCount: 2
Fore
SplineSet
273 502 m 0
 273 415 211 376 138 376 c 0
 87 376 22 405 22 534 c 0
 22 807 250 769 250 769 c 25
 249 664 l 1
 144 657 l 1
 139 609 l 1
 139 609 153 614 181 614 c 0
 239 614 273 567 273 502 c 0
EndSplineSet
Validated: 33
EndChar

StartChar: quotedblleft
Encoding: 8220 8220 88
Width: 576
VWidth: 1111
Flags: W
HStem: 374 242<139.01 217.697 420.68 503> 749 20G<249.81 250>
VStem: 22 251<431.545 570.377>
LayerCount: 2
Fore
SplineSet
557 510 m 0
 557 423 501 374 428 374 c 0
 377 374 302 405 302 534 c 0
 302 807 524 774 524 774 c 5
 530 656 l 1
 418 654 l 1
 419 609 l 1
 419 609 436 616 464 616 c 0
 522 616 557 575 557 510 c 0
273 502 m 0
 273 415 211 376 138 376 c 0
 87 376 22 405 22 534 c 0
 22 807 250 769 250 769 c 25
 249 664 l 1
 144 657 l 1
 139 609 l 1
 139 609 153 614 181 614 c 0
 239 614 273 567 273 502 c 0
EndSplineSet
Validated: 33
EndChar

StartChar: quotedblright
Encoding: 8221 8221 89
Width: 574
VWidth: 1111
Flags: W
HStem: 528 241<351.303 435.985> 530 239<76.8438 157.834>
VStem: 157 117<481.13 536> 296 256<564.105 700.465>
LayerCount: 2
Fore
SplineSet
296 634 m 0xb0
 296 732 369 769 420 769 c 0
 471 769 552 739 552 599 c 0
 552 337 331 376 331 376 c 1
 320 471 l 1
 444 489 l 5
 436 536 l 1
 436 536 416 528 388 528 c 0
 330 528 296 558 296 634 c 0xb0
22 642 m 0
 22 740 102 769 153 769 c 0
 204 769 274 739 274 599 c 0
 274 337 47 376 47 376 c 25
 48 480 l 1
 157 478 l 1
 158 536 l 1
 158 536 144 530 116 530 c 0x70
 58 530 22 566 22 642 c 0
EndSplineSet
Validated: 33
EndChar

StartChar: dagger
Encoding: 8224 8224 90
Width: 582
VWidth: 1111
Flags: W
HStem: 369 190<29 146.6>
LayerCount: 2
Fore
SplineSet
189 799 m 1
 409 799 l 1
 387 566 l 1
 553 572 l 1
 560 363 l 29
 382 377 l 29
 416 -241 l 25
 182 -248 l 25
 200 379 l 1
 22 369 l 25
 29 559 l 1
 209 559 l 25
 189 799 l 1
EndSplineSet
Validated: 1
EndChar

StartChar: daggerdbl
Encoding: 8225 8225 91
Width: 582
VWidth: 1111
Flags: W
HStem: 34 192<399 553> 34 185<29 193> 403 167<29 154.3> 411 166<389 472.769>
VStem: 203 197<657.727 799> 208 170<223 411> 211 160<223 411> 213 176<577 718.273>
LayerCount: 2
Fore
SplineSet
203 799 m 1x68
 400 799 l 1x68
 389 577 l 1x11
 553 583 l 1
 560 398 l 1
 371 411 l 1x12
 378 223 l 5
 553 228 l 5
 560 33 l 5
 399 27 l 5
 416 -248 l 1
 182 -243 l 1
 193 34 l 5
 22 34 l 5x54
 29 226 l 5x84
 208 219 l 5x44
 211 413 l 1x42
 22 403 l 1
 29 570 l 1
 213 570 l 1x61
 203 799 l 1x68
EndSplineSet
Validated: 1
EndChar

StartChar: numbersign
Encoding: 35 35 92
Width: 736
VWidth: 1111
Flags: W
HStem: -3 21G<173 184.5> 184 79<502 662> 191 76<26 147.946 251 373.143> 497 69<84 240.931 333.07 495 583 711> 740 20G<560.5 650>
LayerCount: 2
Fore
SplineSet
321 494 m 1xb8
 251 267 l 25
 422 260 l 25
 495 497 l 25
 321 494 l 1xb8
312 766 m 1
 395 766 l 1
 395 766 362 647 333 570 c 25
 333 570 429 571 507 572 c 25
 507 572 546 687 575 760 c 25
 650 759 l 1
 650 759 612 642 583 566 c 25
 715 566 l 1
 715 566 712 524 711 497 c 25
 567 500 l 1
 502 263 l 9
 662 264 l 9
 667 186 l 9
 491 184 l 9xd8
 491 184 465 71 448 -1 c 25
 448 -1 390 -2 358 -3 c 25
 358 -3 389 115 409 189 c 25
 409 189 307 190 234 191 c 25
 234 191 196 73 173 -3 c 25
 173 -3 115 -1 85 0 c 25
 85 0 124 121 148 198 c 25
 148 198 74 197 26 196 c 25
 26 196 24 240 22 269 c 25
 22 269 113 268 171 267 c 25
 241 497 l 9
 241 497 146 498 84 499 c 25
 84 499 84 543 84 572 c 25
 258 568 l 1
 312 766 l 1
EndSplineSet
Validated: 1
EndChar

StartChar: quotesingle
Encoding: 39 39 93
Width: 237
VWidth: 1111
Flags: W
HStem: 447 301<51 190>
VStem: 51 139<453 522.276>
LayerCount: 2
Fore
SplineSet
22 740 m 5
 216 748 l 4
 190 447 l 29
 51 453 l 29
 22 740 l 5
EndSplineSet
Validated: 1
EndChar

StartChar: quotedbl
Encoding: 34 34 94
Width: 462
VWidth: 1111
Flags: W
HStem: 453 280<50.2 156 319.273 396>
LayerCount: 2
Fore
SplineSet
252 722 m 1
 437 729 l 0
 396 454 l 5
 264 460 l 5
 252 722 l 1
19 733 m 1
 206 736 l 0
 186 462 l 1
 51 453 l 1
 19 733 l 1
EndSplineSet
Validated: 1
EndChar

StartChar: sterling
Encoding: 163 163 95
Width: 666
VWidth: 1111
Flags: W
HStem: 0 189<442.077 640> 0 176<269 470.923> 526 21G<429.65 641> 654 163<304.49 430.841>
VStem: 90 212<503.111 650.714>
LayerCount: 2
Fore
SplineSet
17 0 m 1x78
 86 182 96 304 96 304 c 1
 30 302 l 1
 36 462 l 1
 98 464 l 1
 98 464 90 519.579710145 90 582 c 0
 90 694.581395349 145.954372624 817 373 817 c 0
 640.035971223 817 641 538 641 538 c 1
 429 526 l 1
 433 649 l 1
 302 654 l 1
 293 460 l 1
 456 464 l 1
 456 464 447 309 447 307 c 8
 447 305 289 304 289 304 c 1
 269 176 l 1x78
 644 189 l 1
 640 0 l 0xb8
 17 0 l 1x78
EndSplineSet
Validated: 1
EndChar

StartChar: A.ss05
Encoding: 65536 -1 96
Width: 700
VWidth: 1111
Flags: W
HStem: -17 21G<15.4783 196.466 441.902 676.435> -17 21G<15.4783 196.466 441.902 676.435> 189 144<256 382> 589 173<59 184> 626 141<501 633>
AnchorPoint: "Anchor-3" 487 31 basechar 0
AnchorPoint: "Anchor-2" 320 -16 basechar 0
AnchorPoint: "Anchor-0" 327 788 basechar 0
LayerCount: 2
Fore
SplineSet
324 572 m 5x20
 256 333 l 4
 382 333 l 5
 324 572 l 5x20
56 762 m 1xb0
 633 767 l 25
 638 620 l 25
 501 626 l 25x28
 711 6 l 25
 446 -17 l 25
 404 188 l 25
 238 189 l 25
 192 -17 l 25
 -11 6 l 25
 184 589 l 25
 59 589 l 25
 56 762 l 1xb0
EndSplineSet
Validated: 1
EndChar

StartChar: E.ss01
Encoding: 65537 -1 97
Width: 670
VWidth: 1111
Flags: W
HStem: 0 164<270 647> 313 159<268 576.815> 747 20G<634 634>
AnchorPoint: "Anchor-3" 553 31 basechar 0
AnchorPoint: "Anchor-2" 331 -16 basechar 0
AnchorPoint: "Anchor-0" 316 788 basechar 0
LayerCount: 2
Fore
SplineSet
24 766 m 25
 257 766 634 767 634 767 c 25
 634 708 634 602 634 602 c 25
 494 602 201 604 201 604 c 25
 201 552 201 472 201 472 c 25
 322 470 577 470 577 470 c 17
 577 309 l 17
 268 313 l 1
 270 164 l 17
 648 168 l 1
 647 0 l 25
 407 0 22 1 22 1 c 25
 23 299 24 766 24 766 c 25
EndSplineSet
Validated: 1
EndChar

StartChar: H.ss01
Encoding: 65538 -1 98
Width: 718
VWidth: 1111
Flags: W
HStem: 0 21G<22 220 446 697> 281 182<330 449> 288 185<258 426> 742 20G<499 693.105> 752 20G<23 267.331>
VStem: 22 198<0 288> 23 235<473 682.3> 446 251<0 281> 498 195<463 753>
AnchorPoint: "Anchor-0" 347 788 basechar 0
LayerCount: 2
Fore
SplineSet
23 771 m 17xa2
 268 772 l 25
 258 473 l 25xaa
 498 463 l 25
 499 753 l 25
 693 762 l 25xd280
 697 0 l 25
 446 0 l 25
 449 281 l 29xd1
 216 288 l 29
 220 0 l 25
 22 0 l 25xa5
 23 771 l 17xa2
EndSplineSet
Validated: 1
EndChar

StartChar: N.ss01
Encoding: 65539 -1 99
Width: 768
VWidth: 1111
Flags: W
HStem: 0 21G<23 207.088> 750 20G<24 291.174>
VStem: 23 184<0 456> 559 179<422.432 761>
AnchorPoint: "Anchor-2" 342 -16 basechar 0
AnchorPoint: "Anchor-0" 442 788 basechar 0
LayerCount: 2
Fore
SplineSet
24 768 m 17
 279 770 l 1
 559 310 l 17
 560 761 l 25
 630 762 738 763 738 763 c 25
 741 473 747 -12 747 -12 c 17
 496 3 l 17
 209 456 l 17
 207 0 l 17
 23 0 l 1
 24 768 l 17
EndSplineSet
Validated: 1
EndChar

StartChar: O.ss01
Encoding: 65540 -1 100
Width: 791
VWidth: 1111
Flags: W
HStem: -14 208<272.365 519.036> 596 203<446.909 533.652>
VStem: 17 239<365.615 538.442> 536 238<379.538 538.708>
AnchorPoint: "Anchor-3" 409 31 basechar 0
AnchorPoint: "Anchor-2" 409 -60 basechar 0
AnchorPoint: "Anchor-0" 417 788 basechar 0
LayerCount: 2
Fore
SplineSet
256 574 m 5
 269 187 l 5
 523 194 l 5
 536 596 l 5
 256 574 l 5
428 799 m 4
 650 799 774 615 774 388 c 12
 774 161 644 -14 406 -14 c 4
 213 -14 17 102 17 395 c 4
 17 711 261 799 428 799 c 4
EndSplineSet
EndChar

StartChar: P.ss01
Encoding: 65541 -1 101
Width: 692
VWidth: 1111
Flags: W
HStem: 0 21G<22 242.168> 228 195<244.034 423.817> 607 186<200 420.902>
VStem: 22 220<0 238> 421 255<425.477 596.979>
AnchorPoint: "Anchor-0" 344 824 basechar 0
AnchorPoint: "Anchor-2" 330 -20 basechar 0
LayerCount: 2
Fore
SplineSet
200 607 m 25
 200 607 195 478 191 416 c 25
 191 416 334 420 426 423 c 25
 426 423 423 543 421 600 c 25
 421 600 286 605 200 607 c 25
22 776 m 17
 22 776 155 793 271 793 c 0
 499 793 676 733 676 500 c 0
 676 281 494 229 368 228 c 0
 290 227 244 238 244 238 c 9
 242 0 l 0
 22 0 l 25
 22 776 l 17
EndSplineSet
Validated: 33
EndChar

StartChar: R.ss01
Encoding: 65542 -1 102
Width: 726
VWidth: 1111
Flags: W
HStem: 0 21G<22 267.917> 233 187<267 436> 240 178<267 436> 601 180<203.168 433.433>
VStem: 24 178<418 600.918> 436 264<459.07 596.698> 444 249<22.2222 233>
AnchorPoint: "Anchor-0" 344 824 basechar 0
AnchorPoint: "Anchor-2" 357 -16 basechar 0
LayerCount: 2
Fore
SplineSet
201 601 m 25xdc
 201 601 201 488 202 418 c 25xbc
 436 420 l 9
 436 420 436 533 436 600 c 25
 436 600 291 600 201 601 c 25xdc
22 0 m 25
 22 0 23 479 24 757 c 25
 24 757 146 781 344 781 c 8
 542 781 700 721 700 552 c 0xbc
 700 394 550 352 550 352 c 1
 650 320 693 261 693 143 c 0
 693 45 721 -44 721 -44 c 0
 453 -38 l 1
 444 233 l 25xda
 267 240 l 1
 268 0 l 25
 268 0 101 0 22 0 c 25
EndSplineSet
Validated: 1
EndChar

StartChar: S.ss01
Encoding: 65543 -1 103
Width: 761
VWidth: 1111
Flags: W
HStem: -32 174<347.5 481.582> 538 21G<660 707> 613 176<292.525 467.741>
VStem: 36 251<489.053 616.506> 491 253<142 271.759>
AnchorPoint: "Anchor-0" 391 821 basechar 0
AnchorPoint: "Anchor-2" 379 -60 basechar 0
LayerCount: 2
Fore
SplineSet
471 613 m 25
 395.383561644 615 287 618 287 618 c 25
 287 489 l 25
 287 489 361 488 444 486 c 0
 651.76119403 480.22556391 744 383.984962406 744 230 c 0
 744 74 635 -32 399 -32 c 0
 81 -32 17 117 17 246 c 9
 288 243 l 25
 286 132 l 25
 491 142 l 25
 486 274 l 29
 486 274 446 280 362 286 c 4
 142.468208092 302.32 36 412.72 36 526 c 0
 36 630 109 789 358 789 c 0
 650 789 707 651 707 538 c 9
 613 539 469 540 469 540 c 25
 470 573 471 613 471 613 c 25
EndSplineSet
Validated: 1
EndChar

StartChar: T.ss01
Encoding: 65544 -1 104
Width: 684
VWidth: 1111
Flags: W
HStem: -3 21G<240.324 462> 547 224<34 236.328>
VStem: 240 222<1 429.444> 249 222<126.778 553>
AnchorPoint: "Anchor-2" 353 -38 basechar 0
AnchorPoint: "Anchor-0" 351 788 basechar 0
LayerCount: 2
Fore
SplineSet
34 771 m 25xd0
 281 768 662 762 662 762 c 17
 659 569 l 17
 471 567 l 17xd0
 462 1 l 17
 240 -3 l 17xe0
 249 553 l 17
 33 547 l 17
 34 771 l 25xd0
EndSplineSet
Validated: 1
EndChar

StartChar: a.ss01
Encoding: 65545 -1 105
Width: 581
VWidth: 1111
Flags: W
HStem: -26 147<212 312.973> -13 21G<404 577> 217 109<211.559 367.978> 526 20G<175.5 405.5>
VStem: 17 195<121 215.359> 396 156<120.397 215>
AnchorPoint: "Anchor-3" 453 31 basechar 0
AnchorPoint: "Anchor-2" 298 -16 basechar 0
AnchorPoint: "Anchor-0" 311 574 basechar 0
LayerCount: 2
Fore
SplineSet
207 217 m 5xbc
 212 121 l 5
 396 117 l 1
 398 215 l 1
 207 217 l 5xbc
28 358 m 1
 28 358 39 546 312 546 c 0
 499 546 559 453 559 340 c 0
 559 259 552 227 552 170 c 0
 552 88 577 3 577 3 c 1
 413 -13 l 1x7c
 386 47 l 1
 386 47 338.606382979 -26 188 -26 c 0
 78 -26 17 54 17 141 c 0
 17 282 136.979919679 326 256 326 c 0
 337.565217391 326 368 315 368 315 c 1
 363 410 l 1
 363 410 207 410 207 412 c 1
 201 352 l 1
 28 358 l 1
EndSplineSet
EndChar

StartChar: b.ss01
Encoding: 65546 -1 106
Width: 624
VWidth: 1111
Flags: W
HStem: -27 177<238.946 376.55> 0 21G<22 154.913> 359 184<283.733 373>
VStem: 22 171<152 360> 28 194<487 754> 379 229<152.539 352.551>
AnchorPoint: "Anchor-2" 306 -36 basechar 0
AnchorPoint: "Anchor-0" 127 808 basechar 0
LayerCount: 2
Fore
SplineSet
196 360 m 1xb4
 193 152 l 9
 379 150 l 9
 373 359 l 9
 196 360 l 1xb4
28 758 m 25x6c
 110 757 227 754 227 754 c 25
 222 487 l 25
 222 487 288 543 397 543 c 0
 484 543 608 484 608 284 c 0
 608 51 476 -27 338 -27 c 0xac
 224 -27 173 46 173 46 c 25
 141 0 l 25
 22 0 l 25x74
 28 758 l 25x6c
EndSplineSet
EndChar

StartChar: e.ss01
Encoding: 65547 -1 107
Width: 605
VWidth: 1111
Flags: W
HStem: -29 126<216 352.352> 208 98<240 390> 398 131<246.3 386.003>
VStem: 17 199<133.633 208> 390 201.25<304 368.508>
AnchorPoint: "Anchor-3" 320 31 basechar 0
AnchorPoint: "Anchor-2" 316 -60 basechar 0
AnchorPoint: "Anchor-0" 300 554 basechar 0
LayerCount: 2
Fore
SplineSet
17 247 m 0
 17 385 100 529 311 529 c 0
 563.346153846 529 591.249815089 333.674371302 591.249815089 247.280343224 c 0
 591.249815089 222.748705621 589 207 589 207 c 9
 214 208 l 25
 216 97 l 25
 361 100 l 25
 364 162 l 25
 576 160 l 25
 576 160 574 -29 318 -29 c 0
 96 -29 17 109 17 247 c 0
242 398 m 1
 240 306 l 1
 390 304 l 1
 389 399 l 1
 242 398 l 1
EndSplineSet
EndChar

StartChar: f.ss01
Encoding: 65548 -1 108
Width: 470
VWidth: 1111
Flags: W
HStem: 0 21G<77 273> 349 147<267 446> 498 20G<-11 69> 666 143<263.425 330.47>
VStem: 68 189<517.02 666> 77 196<0 349> 336 155<573 664.37>
AnchorPoint: "Anchor-2" 171 -16 basechar 0
AnchorPoint: "Anchor-0" 294 841 basechar 0
LayerCount: 2
Fore
SplineSet
-11 518 m 1xf6
 69 517 l 1
 69 517 68 544.160138249 68 599 c 0
 68 714.652173913 133.739130435 809 284 809 c 0
 463.027027027 809 491 705 491 626 c 4
 491 595 488 563 488 563 c 5
 333 573 l 1
 336 667 l 1
 257 666 l 1xfa
 256 496 l 1
 446 501 l 1
 448 346 l 1
 267 349 l 1
 273 0 l 1
 77 0 l 1
 79 353 l 1
 -11 351 l 1
 -11 518 l 1xf6
EndSplineSet
EndChar

StartChar: g.ss01
Encoding: 65549 -1 109
Width: 655
VWidth: 1111
Flags: W
HStem: -300 154<210.084 386.32> -22 170<249.446 376.232> 371 177<249.694 399.36> 516 20G<495.475 622>
VStem: 17 227<152.429 364.93> 445 188<152 343.75>
AnchorPoint: "Anchor-0" 323 588 basechar 0
LayerCount: 2
Fore
SplineSet
244 371 m 9xec
 244 148 l 9
 445 152 l 9
 441 364 l 9
 244 371 l 9xec
17 260 m 0
 17 471 167.323272971 548 291 548 c 0xec
 414.712418301 548 473 477 473 477 c 25
 507 536 l 25xdc
 622 532 l 25
 622 532 633 208 633 -2 c 20
 633 -212 482.394321767 -300 306 -300 c 4
 95.0950570342 -300 34.8365019011 -208 23 -67 c 5
 208 -53 l 5
 206 -149 l 5
 393 -146 l 5
 390 6 l 5
 390 6 342.096774194 -22 255 -22 c 0
 136.524229075 -22 17 60 17 260 c 0
EndSplineSet
Validated: 1
EndChar

StartChar: h.ss01
Encoding: 65550 -1 110
Width: 548
VWidth: 1111
Flags: W
HStem: 0 0G<22 192.773 322.212 458.667> 511 20G<344 440>
VStem: 22 171<7 353> 23 181<473 738> 322 205<9 356>
AnchorPoint: "Anchor-0" 117 808 basechar 0
AnchorPoint: "Anchor-2" 257 -2 basechar 0
LayerCount: 2
Fore
SplineSet
23 738 m 17xd8
 209 741 l 25
 204 473 l 25xd8
 204 473 296 531 392 531 c 16
 488 531 527 465 527 369 c 4
 527 273 527 9 527 9 c 1
 322 -21 l 1
 326 356 l 1
 189 353 l 17
 193 0 l 17
 22 7 l 17xe8
 23 738 l 17xd8
EndSplineSet
Validated: 1
EndChar

StartChar: m.ss01
Encoding: 65551 -1 111
Width: 976
VWidth: 1111
Flags: W
HStem: 0 15G<48.6087 225.619 383 592.725 738.624 953> 367 171<283.662 389.391 630.762 732> 510 20G<28 186.333>
VStem: 22 204<23 367> 28 191<23 367> 383 210<8 364> 390 198<8 364> 732 220<-1.85315 364.4>
AnchorPoint: "Anchor-2" 487 -16 basechar 0
AnchorPoint: "Anchor-0" 493 554 basechar 0
LayerCount: 2
Fore
SplineSet
28 517 m 1xc9
 178 530 l 1xa9
 208 458 l 1
 208 458 267 538 383 538 c 0xcd
 521 538 553 442 553 442 c 1
 553 442 604 544 748 544 c 0
 926 544 948 432 952 316 c 16
 956 200 953 -2 953 -2 c 1
 739 -6 l 25
 732 366 l 25
 588 364 l 0xc3
 593 0 l 25
 383 8 l 25xc5
 390 367 l 25
 219 367 l 25xcb
 226 0 l 25
 22 23 l 25xd1
 28 517 l 1xc9
EndSplineSet
Validated: 33
EndChar

StartChar: n.ss01
Encoding: 65552 -1 112
Width: 591
VWidth: 1111
Flags: W
HStem: -8 29G<29 228.675 377 564> 367 166<293.96 381>
VStem: 22 201<0 361> 29 200<0 361> 381 188<1 363.426>
AnchorPoint: "Anchor-2" 298 -16 basechar 0
AnchorPoint: "Anchor-0" 316 554 basechar 0
LayerCount: 2
Fore
SplineSet
22 498 m 1xe8
 169 499 l 1
 182 443 l 1
 182 443 277 533 397 533 c 0
 517 533 569 464 569 341 c 16
 569 218 564 0 564 0 c 25
 377 1 l 25
 381 367 l 25
 223 361 l 25xe8
 229 -8 l 25
 29 0 l 25xd8
 22 498 l 1xe8
EndSplineSet
Validated: 1
EndChar

StartChar: o.ss01
Encoding: 65553 -1 113
Width: 621
VWidth: 1111
Flags: W
HStem: -28 148<220.556 368.5> 383 178<210.986 391.939>
VStem: 17 191<198.9 378.638> 390 214<162.417 378.47>
AnchorPoint: "Anchor-3" 298 31 basechar 0
AnchorPoint: "Anchor-2" 296 -60 basechar 0
AnchorPoint: "Anchor-0" 316 577 basechar 0
LayerCount: 2
Fore
SplineSet
208 383 m 5
 218 120 l 29
 390 128 l 5
 393 383 l 29
 208 383 l 5
17 276 m 0
 17 445 126 561 317 561 c 0
 508 561 604 398 604 277 c 0
 604 134 513 -28 296 -28 c 0
 102 -28 17 107 17 276 c 0
EndSplineSet
Validated: 1
EndChar

StartChar: p.ss01
Encoding: 65554 -1 114
Width: 633
VWidth: 1111
Flags: W
HStem: -16 159<239.166 407.715> 363 167<273.283 406.243> 496 20G<173 175.74>
VStem: 22 217<142 360> 22 190<-250 18> 410 207<148.309 361.99>
AnchorPoint: "Anchor-0" 360 577 basechar 0
AnchorPoint: "Anchor-2" 340 -60 basechar 0
LayerCount: 2
Fore
SplineSet
238 360 m 1xd4
 239 142 l 25
 410 143 l 1
 409 363 l 25
 238 360 l 1xd4
22 507 m 1xcc
 72 510 173 516 173 516 c 25xac
 183 443 l 1
 183 443 264 530 362 530 c 16
 460 530 617 469 617 259 c 0
 617 49 441 -16 338 -16 c 0
 268 -16 206 18 206 18 c 1
 212 -251 l 1
 22 -250 l 1
 22 507 l 1xcc
EndSplineSet
Validated: 1
EndChar

StartChar: r.ss01
Encoding: 65555 -1 115
Width: 491
VWidth: 1111
Flags: W
HStem: 0 21G<27.9184 231>
VStem: 28 203<0 362>
AnchorPoint: "Anchor-0" 324 577 basechar 0
AnchorPoint: "Anchor-2" 123 -16 basechar 0
LayerCount: 2
Fore
SplineSet
26 490 m 17
 158 493 l 25
 160 443 l 25
 160 443 230 541 324 541 c 0
 418 541 460 489 472 433 c 16
 484 377 479 267 479 267 c 1
 301 267 l 25
 302 362 l 0
 228 362 l 25
 231 0 l 25
 28 0 l 25
 26 490 l 17
EndSplineSet
Validated: 33
EndChar

StartChar: r.ss02
Encoding: 65556 -1 116
Width: 380
VWidth: 1111
Flags: W
HStem: 0 21G<19.6591 213.235> 340 196<243.449 369> 508 20G<11.3409 149>
VStem: 11 206<117.333 340> 20 193<0 340>
AnchorPoint: "Anchor-0" 271 577 basechar 0
AnchorPoint: "Anchor-2" 109 -16 basechar 0
LayerCount: 2
Fore
SplineSet
369 536 m 1xd0
 369 340 l 0
 217 340 l 25xd0
 213 0 l 25
 20 0 l 1xc8
 11 528 l 1xb0
 149 522 l 1
 162 440 l 1
 223 523.320754717 273 536 369 536 c 1xd0
EndSplineSet
EndChar

StartChar: s.ss01
Encoding: 65557 -1 117
Width: 558
VWidth: 1111
Flags: W
HStem: -37 134<201.318 343.441> 421 128<205.679 334.182>
VStem: 17 186<335 416.257> 346 196<99.9824 178.375>
AnchorPoint: "Anchor-2" 264 -82 basechar 0
AnchorPoint: "Anchor-0" 269 588 basechar 0
LayerCount: 2
Fore
SplineSet
204 421 m 1
 203 335 l 1
 203 335 283.048543689 332 373 323 c 0
 481.760019248 312.118128673 542 242.56684492 542 154 c 0
 542 56 471 -37 264 -37 c 0
 18.9620253165 -37 18 154 18 154 c 9
 198 151 l 25
 200 97 l 25
 346 96 l 1
 349 180 l 1
 349 180 268.994329171 185.345203611 194 189 c 0
 136 191.826589595 17 221.976878613 17 352 c 0
 17 490 127 549 270 549 c 0
 521 549 521 359 521 359 c 13
 337 357 l 29
 339 423 l 1
 204 421 l 1
EndSplineSet
Validated: 1
EndChar

StartChar: t.ss01
Encoding: 65558 -1 118
Width: 463
VWidth: 1111
Flags: W
HStem: -24 138<250.185 321.226> 371 148<257 430> 384 119<7 86>
VStem: 67 179<114.875 368.845> 323 131<113.718 209.92>
AnchorPoint: "Anchor-2" 258 -42 basechar 0
AnchorPoint: "Anchor-1" 342 618 basechar 0
AnchorPoint: "Anchor-0" 216 704 basechar 0
LayerCount: 2
Fore
SplineSet
166 670 m 21xb8
 258 673 l 29
 257 519 l 29
 430 519 l 29
 431 368 l 29
 248 371 l 29xd8
 246 114 l 29
 323 111 l 29
 326 210 l 5
 438 211 l 5
 438 211 454 169 454 118 c 4
 454 26 381 -24 257 -24 c 4
 110 -24 67 52 67 139 c 20
 67 226 86 384 86 384 c 29
 7 384 l 29
 7 503 l 29
 109 504 l 29
 166 670 l 21xb8
EndSplineSet
Validated: 1
EndChar

StartChar: u.ss01
Encoding: 65559 -1 119
Width: 587
VWidth: 1111
Flags: W
HStem: -39 180<211 279.116> 0 21G<400.032 566>
VStem: 18 193<141.96 501.869> 374 192<143 500>
AnchorPoint: "Anchor-3" 453 31 basechar 0
AnchorPoint: "Anchor-2" 287 -60 basechar 0
AnchorPoint: "Anchor-0" 298 554 basechar 0
LayerCount: 2
Fore
SplineSet
29 502 m 21xb0
 217 506 l 29
 211 141 l 29xb0
 374 143 l 29
 371 500 l 29
 561 503 l 29
 566 0 l 29
 401 0 l 4x70
 398 62 l 29
 398 62 293 -39 189 -39 c 4
 85 -39 18 18 18 148 c 4
 18 322 29 502 29 502 c 21xb0
EndSplineSet
Validated: 1
EndChar

StartChar: yen
Encoding: 165 165 120
Width: 653
VWidth: 1111
Flags: W
HStem: -9 21G<206 206> 122 91<73 206 454 598> 265 94<469 606> 267 85<69 181>
LayerCount: 2
Fore
SplineSet
-8 736 m 1xd0
 231 758 l 1
 275 660 356 496 356 496 c 1
 356 496 470 754 471 756 c 2
 664 733 l 1
 469 359 l 1
 607 361 l 1
 606 264 l 1
 423 265 l 1xe0
 424 248 425 230 426 212 c 1
 598 213 l 1
 602 122 l 1
 454 122 l 1
 458 54 461 0 461 0 c 1
 361 -3 206 -9 206 -9 c 1
 206 31 206 77 206 121 c 1
 73 121 l 1
 72 210 l 1
 228 211 l 5
 230 233 232 251 233 266 c 5
 68 267 l 1
 69 352 l 1
 181 354 l 1
 100 522 -8 736 -8 736 c 1xd0
EndSplineSet
Validated: 1
EndChar

StartChar: exclamdown
Encoding: 161 161 121
Width: 283
VWidth: 855
Flags: W
HStem: 315 219<66.6439 216.987>
VStem: 22 240<361.379 491.618> 32 181<-203.169 156.493>
LayerCount: 2
Fore
SplineSet
143 315 m 0xc0
 51 315 22 382 22 428 c 0
 22 487 58 534 140 534 c 0
 222 534 262 484 262 425 c 0
 262 339 206 315 143 315 c 0xc0
246 -252 m 1
 53 -265 l 1
 53 -265 32 -165 32 -31 c 0
 32 104 76 248 76 248 c 1
 230 270 l 5
 230 270 213 166 213 2 c 0xa0
 213 -135 246 -252 246 -252 c 1
EndSplineSet
Validated: 1
EndChar

StartChar: questiondown
Encoding: 191 191 122
Width: 607
VWidth: 855
Flags: W
HStem: -256 152<220.534 393.234> 91 205<261 426> 331 222<271.261 429.181>
VStem: 17 201<-98.611 82.5296> 220 261<377.489 502.382>
LayerCount: 2
Fore
SplineSet
352 331 m 0
 275 331 220 377 220 437 c 0
 220 497 259 553 346 553 c 8
 433 553 481 500 481 433 c 0
 481 366 429 331 352 331 c 0
597 7 m 17
 579 -212 423 -256 294 -256 c 0
 165 -256 17 -206 17 -10 c 0
 17 168 146 211 219 211 c 0
 249 211 270 207 270 207 c 1
 261 289 l 1
 426 296 l 1
 443 91 l 1
 222 87 l 25
 218 -104 l 25
 397 -107 l 25
 394 12 l 25
 597 7 l 17
EndSplineSet
Validated: 1
EndChar

StartChar: mu
Encoding: 181 181 123
Width: 587
VWidth: 1111
Flags: W
HStem: -22 154<257.444 364> -10 21G<427.756 566> 494 20G<35.6272 217>
VStem: 22 191<-232 13> 36 181<251.7 510> 364 202<132 329.615> 377 184<301.385 499>
LayerCount: 2
Fore
SplineSet
210 13 m 5xa4
 213 -232 l 5
 22 -237 l 5xb4
 36 514 l 5
 217 510 l 5
 227 141 l 5
 364 132 l 5xac
 377 499 l 5
 561 506 l 5xa2
 566 0 l 5
 438 -10 l 5x64
 417 31 l 5
 417 31 375.765957447 -22 303 -22 c 4
 245.855421687 -22 210 13 210 13 c 5xa4
EndSplineSet
Validated: 1
EndChar

StartChar: section
Encoding: 167 167 124
Width: 568
VWidth: 1111
Flags: W
HStem: -49 137<227.875 358.584> 666 127<209.646 344.012>
VStem: 17 191<597 660.707> 17 160<344.601 417.969> 360 192<91.4371 154>
LayerCount: 2
Fore
SplineSet
208 666 m 1xe8
 207 597 l 1
 207 597 249 597 358 587 c 0
 467 577 552 518 552 420 c 0
 552 375 535 310 445 276 c 1
 534 242 552 193 552 141 c 0
 552 43 471 -49 298 -49 c 0
 36 -49 27 143 27 143 c 1
 211 146 l 1
 209 96 l 1
 360 88 l 1
 363 154 l 1
 363 154 325 157 238 164 c 0
 151 171 17 213 17 351 c 0xd8
 17 440 113 482 113 482 c 1
 43 513 17 558 17 619 c 0
 17 757 184 793 270 793 c 0
 521 793 531 604 531 604 c 5
 351 620 l 1
 350 664 l 1
 208 666 l 1xe8
378 350 m 1
 386 433 l 1
 177 440 l 1
 184 341 l 1
 378 350 l 1
EndSplineSet
Validated: 1
EndChar

StartChar: bar
Encoding: 124 124 125
Width: 158
VWidth: 1111
Flags: W
VStem: 44 75<116.634 571.897>
LayerCount: 2
Fore
SplineSet
43 834 m 1
 137 832 l 1
 137 832 119 581.170289818 119 353 c 4
 119 102.748560461 129 -188 129 -188 c 1
 22 -189 l 1
 22 -189 42.1666666667 99.966469428 44 338 c 4
 44 513.125284738 44 834 43 834 c 1
EndSplineSet
Validated: 1
EndChar

StartChar: bracketleft
Encoding: 91 91 126
Width: 274
VWidth: 1111
Flags: W
HStem: -191 75<154.556 246>
VStem: 50 77<80.7993 128.889 455.111 560.131>
LayerCount: 2
Fore
SplineSet
22 751 m 1
 248 798 l 1
 252 711 l 1
 130 691 l 0
 146 429 142 155 127 -107 c 1
 251 -116 l 1
 246 -191 l 1
 30 -182 l 1
 30 -182 50 89 50 322 c 0
 50 555 22 751 22 751 c 1
EndSplineSet
Validated: 33
EndChar

StartChar: bracketright
Encoding: 93 93 127
Width: 274
VWidth: 1111
Flags: W
HStem: 722 76<29 120.222>
VStem: 156 68<51.2714 129.497>
LayerCount: 2
Fore
SplineSet
252 -156 m 1
 38 -180 l 1
 44 -104 l 1
 156 -96 l 4
 140 166 133 451 148 713 c 5
 23 722 l 1
 29 798 l 1
 244 789 l 1
 244 789 224 517 224 284 c 0
 224 51 252 -156 252 -156 c 1
EndSplineSet
Validated: 33
EndChar

StartChar: braceleft
Encoding: 123 123 128
Width: 266
VWidth: 1111
Flags: W
HStem: 253 75<27.0138 98.1811>
VStem: 44 87<-23.6856 125.418 496.12 644.072> 101 76<158.002 250.004> 110 72<335.245 447.579>
LayerCount: 2
Fore
SplineSet
190 811 m 1x90
 250 762 l 1
 250 762 136 689 136 569 c 0
 136 507 182 435 182 379 c 0x90
 182 320.965527486 142 296 142 296 c 5
 142 296 177 269 177 231 c 0xa0
 177 170 131 147 131 64 c 0
 131 -49 248 -162 248 -162 c 1
 181 -189 l 1
 181 -189 44 -59 44 49 c 0xc0
 44 126 101 153 101 216 c 0xa0
 101 243 82 253 66 253 c 0
 46 253 27 252 27 252 c 1
 22 331 l 1
 22 331 38 328 59 328 c 0
 89 328 110 343 110 379 c 0
 110 443 47 480 47 593 c 0
 47 734 190 811 190 811 c 1x90
EndSplineSet
Validated: 1
EndChar

StartChar: dieresis
Encoding: 168 168 129
Width: 436
VWidth: 1111
Flags: W
HStem: 538 189<57.7827 176.91 265.144 384.549>
VStem: 22 186<574.189 692.518> 230 185<574.189 692.518>
LayerCount: 2
Fore
SplineSet
324 727 m 4
 382 727 415 684 415 634 c 12
 415 584 387 538 327 538 c 12
 267 538 230 586 230 633 c 4
 230 680 266 727 324 727 c 4
117 727 m 0
 175 727 208 684 208 634 c 8
 208 584 179 538 119 538 c 8
 59 538 22 586 22 633 c 0
 22 680 59 727 117 727 c 0
EndSplineSet
Validated: 1
EndChar

StartChar: degree
Encoding: 176 176 130
Width: 356
VWidth: 1111
Flags: W
HStem: 425 104<135.907 212.872> 637 106<137.358 209.165>
VStem: 17 324
LayerCount: 2
Fore
SplineSet
135 637 m 5
 132 529 l 5
 217 527 l 5
 211 638 l 5
 135 637 l 5
17 592 m 0
 26 689 79 739 182 743 c 0
 283 746 337 664 341 587 c 0
 345 514 295 429 183 425 c 0
 76 422 9 499 17 592 c 0
EndSplineSet
Validated: 33
EndChar

StartChar: acute
Encoding: 180 180 131
Width: 231
VWidth: 1111
Flags: W
HStem: 503 236<80 99.2128>
VStem: 22 187
LayerCount: 2
Fore
SplineSet
80 739 m 1
 209 692 l 4
 185 630 147 559 85 503 c 5
 22 519 l 17
 55 594 77 667 80 739 c 1
EndSplineSet
Validated: 1
EndChar

StartChar: cedilla
Encoding: 184 184 132
Width: 284
VWidth: 1111
Flags: W
HStem: -229 69<112.655 168.785>
VStem: 172 90<-158.969 -77.192>
LayerCount: 2
Fore
SplineSet
187 33 m 1
 170 -24 l 1
 170 -24 262 -32 262 -123 c 0
 262 -169 222 -229 140 -229 c 0
 13 -229 22 -107 22 -107 c 25
 110 -108 l 1
 108 -160 l 1
 172 -160 l 1
 171 -77 l 1
 100 -81 l 5
 107 39 l 1
 187 33 l 1
EndSplineSet
Validated: 33
EndChar

StartChar: brokenbar
Encoding: 166 166 133
Width: 167
VWidth: 1111
Flags: W
VStem: 43 84<-186.512 271.963 356.044 795.378>
LayerCount: 2
Fore
SplineSet
38 274 m 1
 133 272 l 5
 133 272 127 221.908537367 127 64 c 0
 127 -135.443661972 138 -190 138 -190 c 1
 33 -196 l 1
 33 -196 43 -155.909090909 43 49 c 0
 43 227.849875892 38 274 38 274 c 1
32 834 m 1
 135 832 l 1
 135 832 127 806.343349857 127 560 c 0
 127 416 134 356 134 356 c 5
 39 350 l 1
 39 350 43 400 43 545 c 0
 43 732.437448773 32 834 32 834 c 1
EndSplineSet
Validated: 1
EndChar

StartChar: copyright
Encoding: 169 169 134
Width: 791
VWidth: 1111
Flags: W
HStem: -41 87<282.327 519.502> 90 139<311.673 501.163> 545 117<322.685 478.658> 696 76<281.418 522.081>
VStem: 17 74<241.082 502.52> 129 179<251.416 398.615> 705 69<252.728 506.573>
LayerCount: 2
Fore
SplineSet
406 696 m 4
 271 696 91 625 91 373 c 4
 91 138 249 46 406 46 c 4
 599 46 705 204 705 385 c 20
 705 566 586 696 406 696 c 4
480 545 m 1
 418 545 321 544 321 544 c 1
 308 229 l 1
 503 235 l 1
 499 320 l 1
 652 312 l 0
 652 312 650 90 402 90 c 0
 185 90 129 256 129 379 c 16
 129 502 209 662 407 662 c 0
 651 662 652 433 652 433 c 1
 582 433 480 434 480 434 c 17
 480 545 l 1
406 772 m 0
 628 772 774 610 774 383 c 8
 774 156 644 -41 406 -41 c 0
 213 -41 17 75 17 368 c 0
 17 684 239 772 406 772 c 0
EndSplineSet
Validated: 1
EndChar

StartChar: registered
Encoding: 174 174 135
Width: 791
VWidth: 1111
Flags: W
HStem: -41 71<280.462 519.409> 275 133<349.057 453> 538 112<355.959 479.89> 691 81<265.186 512.726>
VStem: 17 67<229.13 502.42> 188 161<402 537.933> 453 157<155.222 273.969> 482 143<417.616 534> 708 66<233.155 485.342>
LayerCount: 2
Fore
SplineSet
395 691 m 4xfc80
 236 691 84 618 84 362 c 4
 84 124 245 30 404 30 c 4
 600 30 708 182 708 366 c 20
 708 550 578 691 395 691 c 4xfc80
355 538 m 29
 355 538 351 446 349 402 c 29
 349 402 427 406 485 408 c 29
 485 408 484 494 482 534 c 29xfd80
 482 534 409 536 355 538 c 29
187 116 m 5
 187 116 187 437 188 627 c 5
 188 627 269 650 404 650 c 4
 539 650 625 610 625 494 c 4xfd80
 625 386 533 371 533 371 c 21
 598 356 610 299 610 218 c 4
 610 151 630 132 630 132 c 4
 462 121 l 5
 453 275 l 5xfe80
 320 280 l 5
 321 116 l 5
 321 116 241 116 187 116 c 5
394 772 m 4
 616 772 774 599 774 372 c 12
 774 145 644 -41 406 -41 c 4
 213 -41 17 75 17 368 c 4
 17 684 227 772 394 772 c 4
EndSplineSet
Validated: 1
EndChar

StartChar: macron
Encoding: 175 175 136
Width: 323
VWidth: 1111
Flags: W
HStem: 611 89<29 294>
VStem: 22 279
LayerCount: 2
Fore
SplineSet
29 700 m 1
 294 706 l 25
 301 606 l 29
 22 611 l 29
 29 700 l 1
EndSplineSet
Validated: 1
EndChar

StartChar: braceright
Encoding: 125 125 137
Width: 261
VWidth: 1111
Flags: W
HStem: 276 76<179.497 237.985>
VStem: 85 72<355.377 462.728> 94 83<156.533 273> 131 78<483.577 649.145> 136 86<-23.6856 146.168>
LayerCount: 2
Fore
SplineSet
77 811 m 1x90
 77 811 209 734 209 593 c 0x90
 209 480 157 454 157 390 c 0xc0
 157 354 184 352 197 352 c 0
 218 352 238 353 238 353 c 1
 240 274 l 1
 240 274 232 276 212 276 c 0
 196 276 177 266 177 239 c 0xa0
 177 176 222 126 222 49 c 0
 222 -59 86 -189 86 -189 c 1
 19 -162 l 1
 19 -162 136 -49 136 64 c 0x88
 136 147 94 174 94 235 c 4xa0
 94 287 137 304 137 304 c 1
 137 304 85 332 85 390 c 0xc0
 85 449 131 496 131 558 c 0
 131 678 17 762 17 762 c 1
 77 811 l 1x90
EndSplineSet
Validated: 1
EndChar

StartChar: guillemotleft
Encoding: 171 171 138
Width: 518
VWidth: 1111
Flags: W
LayerCount: 2
Fore
SplineSet
483 563 m 1
 497 453 l 1
 400 382 l 5
 492 329 l 1
 463 201 l 1
 281 316 l 5
 268 421 l 5
 483 563 l 1
250 574 m 1
 252 440 l 1
 156 387 l 1
 248 356 l 1
 250 207 l 1
 22 316 l 1
 32 450 l 1
 250 574 l 1
EndSplineSet
Validated: 1
EndChar

StartChar: asciitilde
Encoding: 126 126 139
Width: 608
VWidth: 1111
Flags: W
HStem: 228 127<379 434.4> 372 131<167.804 241.7>
LayerCount: 2
Fore
SplineSet
22 255 m 17
 36 436 81 503 213.5 503 c 0
 364.3 503 379 359 379 359 c 25
 438.799804688 355 l 1
 452.7 475 l 25
 587 471 l 1
 587 471 586 228 402 228 c 0
 266.8 228 241.700195312 378 241.700195312 378 c 1
 165.200195312 372 l 25
 156.3 250 l 25
 22 255 l 17
EndSplineSet
Validated: 1
EndChar

StartChar: asciicircum
Encoding: 94 94 140
Width: 395
VWidth: 1111
Flags: W
HStem: 454 308
LayerCount: 2
Fore
SplineSet
148 762 m 5
 241 763 l 29
 373 498 l 29
 256 454 l 29
 189 618 l 29
 119 458 l 29
 22 491 l 29
 148 762 l 5
EndSplineSet
Validated: 1
EndChar

StartChar: underscore
Encoding: 95 95 141
Width: 811
VWidth: 1111
Flags: W
HStem: -126 119<24 786> -119 115<24 786>
LayerCount: 2
Fore
SplineSet
22 -4 m 5x40
 789 -7 l 29
 786 -126 l 29x80
 24 -119 l 29
 22 -4 l 5x40
EndSplineSet
Validated: 1
EndChar

StartChar: zero.ss01
Encoding: 65560 -1 142
Width: 650
VWidth: 1111
Flags: W
HStem: -8 199<236.4 381.667> 610 197<251.482 399.867>
VStem: 17 213<196.267 353.944> 425 208<208.405 319>
LayerCount: 2
Fore
SplineSet
248 610 m 5
 230 191 l 5
 425 200 l 5
 401 608 l 5
 248 610 l 5
17 386 m 0
 17 614 132 807 330 807 c 0
 528 807 633 637 633 393 c 0
 633 126 532 -8 319 -8 c 16
 106 -8 17 125 17 386 c 0
EndSplineSet
Validated: 1
EndChar

StartChar: guillemotright
Encoding: 187 187 143
Width: 518
VWidth: 1111
Flags: W
LayerCount: 2
Fore
SplineSet
36 563 m 1
 251 421 l 5
 238 316 l 5
 56 201 l 1
 27 329 l 1
 119 382 l 5
 22 453 l 1
 36 563 l 1
269 574 m 1
 487 450 l 1
 497 316 l 1
 269 207 l 1
 271 356 l 1
 363 387 l 1
 267 440 l 1
 269 574 l 1
EndSplineSet
Validated: 1
EndChar

StartChar: guilsinglleft
Encoding: 8249 8249 144
Width: 274
VWidth: 1111
Flags: W
VStem: 22 230
LayerCount: 2
Fore
SplineSet
226 576 m 1
 248 460 l 1
 146 387 l 1
 252 347 l 1
 240 207 l 1
 26 319 l 5
 22 450 l 1
 226 576 l 1
EndSplineSet
Validated: 1
EndChar

StartChar: guilsinglright
Encoding: 8250 8250 145
Width: 266
VWidth: 1111
Flags: W
VStem: 22 222
LayerCount: 2
Fore
SplineSet
31 563 m 1
 233 437 l 1
 244 293 l 1
 51 201 l 1
 22 329 l 1
 149 368 l 1
 22 422 l 1
 31 563 l 1
EndSplineSet
Validated: 1
EndChar

StartChar: exclamdbl
Encoding: 8252 8252 146
Width: 566
VWidth: 1111
Flags: W
HStem: -9 219<67.0131 217.356 345.302 500.438>
VStem: 22 240<34.0208 164.849> 82 181<386.585 682.817> 304 240<31.8496 165.88> 356 168<364.346 733.994>
LayerCount: 2
Fore
SplineSet
141 210 m 0xc0
 233 210 262 144 262 98 c 0
 262 39 226 -9 144 -9 c 0
 62 -9 22 41 22 100 c 0
 22 186 78 210 141 210 c 0xc0
38 767 m 1
 231 790 l 1
 231 790 263 691 263 557 c 0
 263 378 200 280 200 280 c 1
 54 256 l 1
 54 256 82 337 82 501 c 0xa0
 82 638 38 767 38 767 c 1
411 216 m 0
 503 216 544 153 544 107 c 0
 544 48 519 -14 437 -14 c 0
 355 -14 304 32 304 91 c 0x90
 304 177 348 216 411 216 c 0
322 791 m 1
 514 778 l 1
 514 778 524 691 524 557 c 0
 524 422 480 266 480 266 c 1
 337 279 l 1
 337 279 356 356 356 520 c 0x88
 356 657 322 791 322 791 c 1
EndSplineSet
Validated: 1
LCarets2: 1 0
Ligature2: "'liga' Standard Ligatures in Latin lookup 0-1" exclam exclam
EndChar

StartChar: perthousand
Encoding: 8240 8240 147
Width: 1021
VWidth: 1111
Flags: W
HStem: -42 125<533.701 634.901 824.889 878.125> -42 116<781.427 844.273> 227 120<794.222 865.135> 237 110<540.978 633> 359 132<167.384 253.128> 599 62<372.649 523.66> 630 119<158.832 258.953>
VStem: 17 146<492.091 629.401> 257 119<493.429 611.992> 402 130<84.5625 236.292> 637 143<85 218> 881 123<85.3095 147.125>
LayerCount: 2
Fore
SplineSet
200 749 m 0x0bf0
 278 749 346 687 346 687 c 1
 346 687 380 661 438 661 c 0
 557 661 632 777 632 777 c 1
 746 740 l 1
 746 740 583 562 412 333 c 0
 241 104 128 -51 128 -51 c 1
 41 4 l 1
 41 4 191 147 379 408 c 0
 468 531 568 648 568 648 c 1
 568 648 509 599 448 599 c 0x0df0
 387 599 372 612 372 612 c 1
 372 612 376 601 376 552 c 0
 376 503 330 359 197 359 c 0
 64 359 17 477 17 567 c 0
 17 657 84 749 200 749 c 0x0bf0
537 237 m 1x99f0
 532 83 l 1
 637 85 l 1
 633 233 l 1
 537 237 l 1x99f0
158 630 m 1x0bf0
 163 491 l 1
 257 491 l 1
 259 627 l 1
 158 630 l 1x0bf0
853 347 m 0x29f0
 986 347 1004 231 1004 140 c 0
 1004 49 958 -42 820 -42 c 0x69f0
 750 -42 714 -13 697 26 c 1
 674 -14 633 -42 564 -42 c 0
 426 -42 402 69 402 147 c 0
 402 225 443 347 576 347 c 0x99f0
 655 347 693 314 711 268 c 1
 737 312 782 347 853 347 c 0x29f0
774 218 m 1
 780 74 l 1
 881 85 l 1
 865 227 l 1
 774 218 l 1
EndSplineSet
Validated: 1
EndChar

StartChar: Euro
Encoding: 8364 8364 148
Width: 752
VWidth: 1111
Flags: W
HStem: -23 199<305.787 507.343> 276 60<24 84 303 423> 409 58<24 82 344 471> 616 178<346.78 455.333>
LayerCount: 2
Fore
SplineSet
537 604 m 1
 341 616 l 1
 344 466 l 1
 491 467 l 1
 471 409 l 1
 300 408 l 1
 302 337 l 1
 444 338 l 1
 423 280 l 1
 303 279 l 1
 304 176 l 1
 512 173 l 5
 523 306 l 5
 741 294 l 1
 741 294 738 -23 428 -23 c 0
 199 -23 116 126 91 276 c 1
 24 276 l 1
 22 336 l 1
 84 336 l 1
 83 354 82 372 82 390 c 0
 82 395 82 400 82 405 c 1
 24 404 l 1
 22 464 l 1
 88 465 l 1
 111 624 210 794 434 794 c 0
 738 794 740 467 740 467 c 1
 551 469 l 1
 537 604 l 1
EndSplineSet
Validated: 1
EndChar

StartChar: currency
Encoding: 164 164 149
Width: 610
VWidth: 1111
Flags: W
HStem: 109 168<265.7 378.972> 109 158<216.047 337.3> 510 156<219.041 379>
VStem: 17 195<268.566 488.144> 391 202<281.266 412.917>
LayerCount: 2
Fore
SplineSet
208 503 m 1xb8
 212 267 l 1x78
 391 277 l 1
 379 510 l 1
 208 503 l 1xb8
418 740 m 1
 579 707 l 1
 476 615 l 1
 476 615 593 533 593 388 c 0
 593 225 460 145 460 145 c 1
 572 22 l 1
 401 27 l 1
 379 115 l 1
 379 115 340 109 318 109 c 0xb8
 281 109 216 119 216 119 c 1
 201 31 l 1
 24 13 l 1
 140 146 l 1
 140 146 17 222 17 373 c 0
 17 531 125 613 125 613 c 1
 85 644 38 680 38 681 c 0
 38 682 201 736 201 736 c 1
 219 655 l 1
 219 655 276 666 309 666 c 0
 336 666 383 657 383 657 c 1
 418 740 l 1
EndSplineSet
Validated: 1
EndChar

StartChar: ordfeminine
Encoding: 170 170 150
Width: 430
VWidth: 1121
Flags: W
HStem: 503 72<171.554 276.952> 630 96<178.475 283.296>
VStem: 12 157<434.466 502.158>
LayerCount: 2
Fore
SplineSet
168 503 m 1
 168 503 168 460 169 433 c 1
 169 433 237 434 281 434 c 1
 281 434 279 474 277 499 c 1
 277 499 211 502 168 503 c 1
19 603 m 1
 19 603 28 726 219 726 c 0
 358 726 412 669 412 580 c 0
 412 535 407 490.52173913 407 454 c 0
 407 396 433 339 433 339 c 1
 284 341 l 1
 272 372 l 1
 272 372 231 327 131 327 c 0
 54 327 12 382 12 443 c 0
 12 542 142 575 212 575 c 0
 267.173913043 575 293 569 293 569 c 5
 286 624 l 5
 179 630 l 1
 176 590 l 1
 19 603 l 1
EndSplineSet
Validated: 1
EndChar

StartChar: ordmasculine
Encoding: 186 186 151
Width: 434
VWidth: 1121
Flags: W
HStem: 325 107<166.602 277.601> 617 112<190.444 275.748>
VStem: 12 154<434.863 605.782> 282 141<436.932 613.406>
LayerCount: 2
Fore
SplineSet
282 432 m 1
 276 617 l 1
 166 608 l 1
 166 434 l 1
 282 432 l 1
423 533 m 0
 423 415 342 325 208 325 c 0
 74 325 12 427 12 524 c 0
 12 611 85 729 221 729 c 0
 331 729 423 651 423 533 c 0
EndSplineSet
Validated: 1
EndChar

StartChar: gravecomb
Encoding: 768 768 152
Width: 0
VWidth: 1111
Flags: W
HStem: 492 236
VStem: 0 187
AnchorPoint: "Anchor-8" 126 706 mark 0
AnchorPoint: "Anchor-0" 157 504 mark 0
LayerCount: 2
Fore
SplineSet
129 728 m 1
 140 658 163 584 187 508 c 9
 135 492 l 1
 82 549 32 643 0 703 c 0
 129 728 l 1
EndSplineSet
Validated: 1
EndChar

StartChar: acutecomb
Encoding: 769 769 153
Width: 0
VWidth: 1111
Flags: W
HStem: 503 236<58 77.2128>
VStem: 0 187
AnchorPoint: "Anchor-8" 59 717 mark 0
AnchorPoint: "Anchor-0" 34 504 mark 0
LayerCount: 2
Fore
SplineSet
58 739 m 1
 187 692 l 0
 163 630 124 559 62 503 c 1
 0 519 l 17
 33 594 55 667 58 739 c 1
EndSplineSet
Validated: 1
EndChar

StartChar: uni0302
Encoding: 770 770 154
Width: 0
VWidth: 1111
Flags: W
HStem: 500 226
VStem: 0 316
AnchorPoint: "Anchor-8" 150 728 mark 0
AnchorPoint: "Anchor-0" 157 504 mark 0
LayerCount: 2
Fore
SplineSet
100 720 m 1
 197 726 l 1
 229 651 273 574 316 508 c 9
 196 504 l 1
 141 607 l 1
 99 500 l 1
 0 504 l 1
 40 577 75 650 100 720 c 1
EndSplineSet
Validated: 1
EndChar

StartChar: tildecomb
Encoding: 771 771 155
Width: 0
VWidth: 1111
Flags: W
HStem: 520 21G<0 99.6> 620 93<103.748 144.484>
AnchorPoint: "Anchor-8" 192 728 mark 0
AnchorPoint: "Anchor-0" 190 504 mark 0
LayerCount: 2
Fore
SplineSet
0 524 m 17
 11 662 44 713 121 713 c 0
 198 713 224 656 236 603 c 9
 270 601 l 1
 273 692 l 25
 372 689 l 1
 367 604 361 504 257 504 c 0
 172 504 155 549 143 618 c 9
 102 620 l 25
 99 520 l 25
 0 524 l 17
EndSplineSet
Validated: 1
EndChar

StartChar: uni0304
Encoding: 772 772 156
Width: 0
VWidth: 1111
Flags: W
HStem: 567 89<7 272>
VStem: 0 279
AnchorPoint: "Anchor-8" 137 786 mark 0
AnchorPoint: "Anchor-0" 138 549 mark 0
LayerCount: 2
Fore
SplineSet
7 656 m 1
 272 661 l 25
 279 561 l 25
 0 567 l 25
 7 656 l 1
EndSplineSet
Validated: 1
EndChar

StartChar: uni0306
Encoding: 774 774 157
Width: 0
VWidth: 1111
Flags: W
HStem: 504 87<119.203 184>
VStem: 0 300
AnchorPoint: "Anchor-8" 153 728 mark 0
AnchorPoint: "Anchor-0" 150 493 mark 0
LayerCount: 2
Fore
SplineSet
119 687 m 1
 116 591 l 1
 184 589 l 1
 186 692 l 25
 300 689 l 1
 295 604 263 504 150 504 c 0
 32 504 7 595 0 683 c 9
 119 687 l 1
EndSplineSet
Validated: 1
EndChar

StartChar: uni0308
Encoding: 776 776 158
Width: 0
VWidth: 1111
Flags: W
HStem: 538 189<35.1437 154.91 243.144 361.91>
VStem: 0 186<574.189 692.518> 208 185<573.052 692.518>
AnchorPoint: "Anchor-8" 192 728 mark 0
AnchorPoint: "Anchor-0" 196 527 mark 0
LayerCount: 2
Fore
SplineSet
302 727 m 0
 360 727 393 684 393 634 c 8
 393 584 364 538 304 538 c 8
 244 538 208 586 208 633 c 0
 208 680 244 727 302 727 c 0
94 727 m 0
 152 727 186 684 186 634 c 8
 186 584 157 538 97 538 c 8
 37 538 0 586 0 633 c 0
 0 680 36 727 94 727 c 0
EndSplineSet
Validated: 1
EndChar

StartChar: uni0307
Encoding: 775 775 159
Width: 0
VWidth: 1111
Flags: W
HStem: 538 189<34.9522 155.225>
VStem: 0 186<572.596 691.874>
AnchorPoint: "Anchor-8" 99 750 mark 0
AnchorPoint: "Anchor-0" 100 527 mark 0
LayerCount: 2
Fore
SplineSet
91 727 m 0
 149 727 186 691 186 641 c 8
 186 591 160 538 100 538 c 8
 40 538 0 582 0 629 c 0
 0 676 33 727 91 727 c 0
EndSplineSet
Validated: 1
EndChar

StartChar: hookabovecomb
Encoding: 777 777 160
Width: 0
VWidth: 1111
Flags: W
HStem: 649 90<122.366 175.231>
VStem: 178 106<599.089 648.908>
AnchorPoint: "Anchor-8" 154 694 mark 0
AnchorPoint: "Anchor-0" 162 472 mark 0
LayerCount: 2
Fore
SplineSet
11 616 m 17
 18 697 76 739 154 739 c 0
 232 739 284 698 284 641 c 0
 284 551 191 549 191 549 c 25
 201 488 l 1
 120 478 l 25
 104 592 l 25
 176 598 l 25
 178 649 l 25
 122 649 l 25
 119 613 l 25
 11 616 l 17
EndSplineSet
Validated: 1
EndChar

StartChar: uni030A
Encoding: 778 778 161
Width: 0
VWidth: 1111
Flags: W
HStem: 481 87<117.414 197.155> 684 92<116 190.913>
VStem: 0 114<569.594 683.195> 199 112<573.812 685.113>
AnchorPoint: "Anchor-8" 154 794 mark 0
AnchorPoint: "Anchor-0" 157 457 mark 0
LayerCount: 2
Fore
SplineSet
116 684 m 1
 114 568 l 1
 199 572 l 1
 192 688 l 1
 116 684 l 1
0 637 m 0
 5 737 77 775 155 776 c 0
 244 777 307 725 311 628 c 0
 314 555 269 478 152 481 c 0
 55 484 -5 534 0 637 c 0
EndSplineSet
Validated: 33
EndChar

StartChar: uni030B
Encoding: 779 779 162
Width: 0
VWidth: 1111
Flags: W
HStem: 472 259
AnchorPoint: "Anchor-8" 201 739 mark 0
AnchorPoint: "Anchor-0" 99 504 mark 0
LayerCount: 2
Fore
SplineSet
239 717 m 1
 348 649 l 0
 305 587 246 528 166 472 c 1
 124 508 l 1
 180 583 214 645 239 717 c 1
48 731 m 1
 181 692 l 0
 159 630 111 540 51 484 c 5
 0 508 l 1
 30 583 48 659 48 731 c 1
EndSplineSet
Validated: 1
EndChar

StartChar: uni030C
Encoding: 780 780 163
Width: 0
VWidth: 1111
Flags: W
HStem: 504 207
VStem: 0 309
AnchorPoint: "Anchor-8" 177 749 mark 0
AnchorPoint: "Anchor-0" 178 504 mark 0
LayerCount: 2
Fore
SplineSet
216 510 m 1
 119 504 l 1
 87 579 43 645 0 711 c 1
 130 709 l 1
 171 611 l 1
 218 713 l 1
 309 713 l 1
 269 640 241 580 216 510 c 1
EndSplineSet
Validated: 1
EndChar

StartChar: uni030F
Encoding: 783 783 164
Width: 0
VWidth: 1111
Flags: W
HStem: 492 245 509 21G<256 333>
AnchorPoint: "Anchor-8" 154 750 mark 0
AnchorPoint: "Anchor-0" 256 504 mark 0
LayerCount: 2
Fore
SplineSet
317 737 m 1x80
 310 667 314 596 333 523 c 1
 277 509 l 1x40
 235 566 194 659 181 724 c 0
 317 737 l 1x80
125 728 m 1
 153 658 187 593 236 517 c 9
 197 492 l 1x80
 122 538 49 599 0 659 c 0
 125 728 l 1
EndSplineSet
Validated: 33
EndChar

StartChar: uni0311
Encoding: 785 785 165
Width: 0
VWidth: 1111
Flags: W
HStem: 514 21G<0 124.551> 606 86<127.161 187.624>
VStem: 0 300
AnchorPoint: "Anchor-8" 154 717 mark 0
AnchorPoint: "Anchor-0" 150 493 mark 0
LayerCount: 2
Fore
SplineSet
185 508 m 1
 191 606 l 1
 123 603 l 1
 125 514 l 25
 0 518 l 1
 6 595 44 692 157 692 c 0
 275 692 293 601 300 513 c 9
 185 508 l 1
EndSplineSet
Validated: 1
EndChar

StartChar: uni0327
Encoding: 807 807 166
Width: 0
VWidth: 1111
Flags: W
HStem: -229 69<87.8266 146.785>
VStem: 150 90<-158.969 -77.192>
AnchorPoint: "Anchor-2" 119 -38 mark 0
LayerCount: 2
Fore
SplineSet
165 33 m 1
 148 -24 l 1
 148 -24 240 -32 240 -123 c 0
 240 -169 200 -229 118 -229 c 0
 0 -229 0 -112 0 -112 c 29
 88 -108 l 1
 86 -160 l 1
 150 -160 l 1
 149 -77 l 1
 78 -81 l 1
 85 39 l 1
 165 33 l 1
EndSplineSet
Validated: 1
EndChar

StartChar: uni0328
Encoding: 808 808 167
Width: 0
VWidth: 1111
Flags: W
HStem: -229 96<94 178.98>
VStem: 0 94<-132.76 -66>
AnchorPoint: "Anchor-3" 93 -3 mark 0
LayerCount: 2
Fore
SplineSet
76 33 m 1
 147 23 l 1
 91 -66 l 5
 94 -133 l 1
 181 -134 l 1
 179 -222 l 1
 179 -222 152 -229 122 -229 c 0
 29 -229 0 -175 0 -123 c 0
 0 -32 76 33 76 33 c 1
EndSplineSet
Validated: 1
EndChar

StartChar: uni0326
Encoding: 806 806 168
Width: 0
VWidth: 1111
Flags: W
HStem: -129 148<22.2293 86.5971>
VStem: 88 64<-157.945 -125>
AnchorPoint: "Anchor-2" 74 29 mark 0
LayerCount: 2
Fore
SplineSet
0 -61 m 0
 0 -2 45 19 76 19 c 0
 107 19 152 -3 152 -87 c 0
 152 -245 19 -220 19 -220 c 25
 15 -158 l 25
 88 -160 l 1
 88 -125 l 1
 88 -125 77 -129 60 -129 c 0
 25 -129 0 -107 0 -61 c 0
EndSplineSet
Validated: 33
EndChar

StartChar: dotbelowcomb
Encoding: 803 803 169
Width: 0
VWidth: 1111
Flags: W
HStem: -195 189<34.9522 155.225>
VStem: 0 186<-160.404 -41.1262>
AnchorPoint: "Anchor-2" 92 29 mark 0
LayerCount: 2
Fore
SplineSet
91 -6 m 0
 149 -6 186 -42 186 -92 c 8
 186 -142 160 -195 100 -195 c 8
 40 -195 0 -151 0 -104 c 0
 0 -57 33 -6 91 -6 c 0
EndSplineSet
Validated: 1
EndChar

StartChar: dotlessi
Encoding: 305 305 170
Width: 252
VWidth: 1111
Flags: W
HStem: 0 21G<24 230>
VStem: 23 207
AnchorPoint: "Anchor-0" 121 554 basechar 0
LayerCount: 2
Fore
SplineSet
28 496 m 25
 100 500 212 506 212 506 c 25
 219 309 230 0 230 0 c 17
 23 0 l 25
 25 193 28 496 28 496 c 25
EndSplineSet
Validated: 1
EndChar

StartChar: Oslash
Encoding: 216 216 224
Width: 791
VWidth: 1111
Flags: W
HStem: -41 206<343.684 528.339> 563 209<292.551 447.922>
VStem: 17 246<203.291 491.169> 528 246<298.636 525.542>
AnchorPoint: "Anchor-0" 417 788 basechar 0
LayerCount: 2
Fore
SplineSet
223 -88 m 2
 130 -45 l 1
 130 -45 144 -19 166 22 c 1
 78 79 17 181 17 346 c 0
 17 662 250 772 417 772 c 0
 459 772 498 767 533 756 c 1
 549 793 558 816 558 816 c 1
 660 770 l 1
 660 770 647 747 626 710 c 1
 721 643 774 525 774 383 c 0
 774 156 644 -41 406 -41 c 0
 355 -41 303 -35 255 -20 c 1
 236 -62 223 -88 223 -88 c 2
342 165 m 1
 399 165 477 166 539 167 c 1
 528 529 l 1
 494 465 457 396 423 330 c 0
 400 285 371 225 342 165 c 1
449 563 m 1
 394 561 320 558 264 556 c 1
 263 199 l 1
 290 249 319 302 346 351 c 0
 379 413 416 489 449 563 c 1
EndSplineSet
Validated: 1
EndChar

StartChar: oslash
Encoding: 248 248 225
Width: 621
VWidth: 1111
Flags: W
HStem: -28 163<288.385 393.82> 396 154<218.389 307>
VStem: 17 190<153.841 308.182>
AnchorPoint: "Anchor-0" 316 577 basechar 0
LayerCount: 2
Fore
SplineSet
17 276 m 0
 17 445 126 550 317 550 c 0
 333 550 348 549 363 547 c 1
 376 583 385 606 385 606 c 1
 482 571 l 1
 482 571 472 551 455 516 c 1
 554 462 604 353 604 266 c 0
 604 145 512 -28 318 -28 c 0
 286 -28 255 -24 228 -17 c 1
 212 -60 202 -87 202 -87 c 1
 96 -50 l 1
 96 -50 114 -27 141 21 c 1
 60 75 17 169 17 276 c 0
307 396 m 1
 218 398 l 1
 207 151 l 1
 222 184 239 222 256 264 c 0
 272 306 290 352 307 396 c 1
287 135 m 1
 401 139 l 1
 382 359 l 1
 367 325 351 289 335 250 c 0
 318 210 302 171 287 135 c 1
EndSplineSet
Validated: 1
EndChar

StartChar: germandbls
Encoding: 223 223 226
Width: 673
VWidth: 1111
Flags: W
HStem: -8 174<338 452.017> 0 21G<93 288> 346 131<28 97> 664 146<282.959 407.78>
VStem: 93 195<0 346> 113 167<477 658.819> 453 204<160.58 332.47>
LayerCount: 2
Fore
SplineSet
114 617 m 2x76
 116 753 222 810 344 810 c 0
 470 810 589 737 589 611 c 0
 589 484 472 461 472 461 c 1
 472 461 657 427 657 233 c 0
 657 63 525 -6 338 -8 c 1
 327 166 l 1
 453 159 l 1
 451 339 l 1
 341 337 l 1
 332 523 l 1
 421 524 l 1
 412 660 l 1
 280 664 l 1xb6
 288 0 l 1
 93 0 l 1x7a
 97 346 l 5
 22 341 l 5
 28 484 l 5
 113 477 l 5
 114 617 l 2x76
EndSplineSet
Validated: 1
EndChar

StartChar: AE
Encoding: 198 198 227
Width: 1036
VWidth: 1111
Flags: W
HStem: -15 21G<74.4848 211.076> 0 164<637 1013> 182 162<289 386> 313 159<634 942.815> 747 20G<1001 1001>
VStem: 389 179<472 594>
AnchorPoint: "Anchor-0" 638 788 basechar 0
LayerCount: 2
Fore
SplineSet
389 594 m 1x2c
 289 344 l 1
 386 342 l 1
 389 594 l 1x2c
446 0 m 5x5c
 444 187 l 5
 256 182 l 1
 206 -15 l 1xac
 -11 18 l 1
 306 763 l 1
 539 763 1001 767 1001 767 c 1
 1001 708 1001 602 1001 602 c 1
 861 602 568 604 568 604 c 1
 568 552 568 472 568 472 c 1
 689 470 943 470 943 470 c 1
 943 309 l 1
 634 313 l 1
 637 164 l 1
 1014 168 l 1
 1013 0 l 1
 773 0 446 0 446 0 c 5x5c
EndSplineSet
Validated: 1
EndChar

StartChar: Eth
Encoding: 208 208 228
Width: 817
VWidth: 1111
Flags: W
HStem: 0 183<319.095 520.359> 324 121<321 443> 331 122<34 90 321 429.375> 558 203<471.52 540.773>
VStem: 90 188<452 582.954> 91 228<183 326> 546 255<257.021 543.379>
LayerCount: 2
Fore
SplineSet
89 754 m 1xba
 89 754 161 761 352 761 c 0
 543 761 801 735 801 394 c 0
 801 60.9939940482 511 0 361 0 c 0
 211 0 93 -1 93 -1 c 1
 92 95 92 220 91 330 c 1xb6
 22 331 l 1
 34 453 l 1
 90 452 l 1
 89 616 89 754 89 754 c 1xba
321 326 m 1
 320 280 320 223 319 183 c 1xd6
 319 183 450 185 541 186 c 1
 541 186 544 417 546 558 c 1
 280 583 l 1
 280 583 279 520 278 448 c 1
 451 445 l 1
 443 324 l 1xda
 321 326 l 1
EndSplineSet
EndChar

StartChar: multiply
Encoding: 215 215 229
Width: 524
VWidth: 1111
Flags: W
LayerCount: 2
Fore
SplineSet
33 518 m 1
 179 617 l 1
 271 467 l 1
 356 612 l 1
 497 508 l 1
 347 397 l 1
 502 242 l 1
 352 162 l 1
 271 313 l 1
 187 163 l 1
 22 268 l 1
 188 383 l 1
 33 518 l 1
EndSplineSet
Validated: 1
EndChar

StartChar: Thorn
Encoding: 222 222 230
Width: 672
VWidth: 1111
Flags: W
HStem: 0 21G<22 242.26> 142 164<244.026 435.061> 498 153<259.029 433.187> 748 20G<260 260>
VStem: 22 220<0 154> 435 221<306.3 490.918>
LayerCount: 2
Fore
SplineSet
217 498 m 1
 217 498 211 367.544444444 207 299 c 1
 207 299 348.782978723 303 440 306 c 1
 440 306 437 427.475903614 435 491 c 1
 435 491 302.218181818 496 217 498 c 1
22 756 m 1
 114 762 260 768 260 768 c 1
 260 735.807692308 260 675 259 644 c 1
 259 644 299 651 360 651 c 0
 521.113924051 651 656 582.461254613 656 400 c 0
 656 192.272058824 492.909090909 142 357 142 c 0
 278.993590007 142 244 154 244 154 c 1
 242 0 l 1
 24 0 l 1
 22 0 l 1
 24 12 l 1
 23 303 22 756 22 756 c 1
EndSplineSet
EndChar

StartChar: ae
Encoding: 230 230 231
Width: 950
VWidth: 1111
Flags: W
HStem: -29 118<616.474 734.327> -26 151<216 354.973> 208 93<614 713> 213 113<213.979 357.982> 388 141<542.294 710.98> 414 132<211.674 353.194>
VStem: 17 199<128.819 210.431>
AnchorPoint: "Anchor-0" 491 554 basechar 0
LayerCount: 2
Fore
SplineSet
28 358 m 1x56
 28 358 39 546 312 546 c 0x56
 406 546 460 523 490 485 c 1
 527 513 578 529 647 529 c 0
 894 529 927 351 933 220 c 1
 614 208 l 1
 616 89 l 1
 737 96 l 1
 740 171 l 1
 931 169 l 1
 931 169 927 -29 668 -29 c 0xaa
 561 -29 496 7 458 59 c 1
 433 35 358 -26 243 -26 c 0
 89 -26 17 54 17 141 c 0
 17 282 142 326 266 326 c 0
 333 326 358 322 358 322 c 1
 356 414 l 1
 207 412 l 1
 201 352 l 1
 28 358 l 1x56
211 213 m 1
 216 125 l 1
 396 130 l 1
 398 220 l 1
 211 213 l 1
542 388 m 1x2a
 541 300 l 1
 541 300 637 301 713 301 c 1
 714 393 l 1
 542 388 l 1x2a
EndSplineSet
Validated: 1
EndChar

StartChar: eth
Encoding: 240 240 232
Width: 593
VWidth: 1111
Flags: W
HStem: -26 173<215.215 375.067> 366 133<216 348.811> 544 21G<193.829 325> 747 20G<296.759 424.98>
VStem: 17 197<154.07 365.943> 380 197<177.936 357.001>
LayerCount: 2
Fore
SplineSet
244 738 m 1
 414 767 l 1
 470 665 l 1
 548 676 l 1
 558 593 l 1
 506 586 l 1
 543 499 577 393 577 298 c 0
 577 116 454 -26 272 -26 c 0
 168 -26 17 24 17 246 c 0
 17 468 165 499 244 499 c 0
 334 499 369 464 369 464 c 1
 325 562 l 1
 197 544 l 1
 184 626 l 1
 289 640 l 1
 244 738 l 1
216 366 m 1
 214 147 l 1
 380 141 l 1
 382 359 l 1
 216 366 l 1
EndSplineSet
Validated: 1
EndChar

StartChar: thorn
Encoding: 254 254 233
Width: 611
VWidth: 1111
Flags: W
HStem: -16 156<237.147 378.157> 358 183<256.294 376>
VStem: 22 196<586.9 783> 29 199<-234 9 499 586.9> 382 212<148.309 355.386>
LayerCount: 2
Fore
SplineSet
211 354 m 1xc8
 201 139 l 25
 382 140 l 1
 376 358 l 25
 211 354 l 1xc8
22 783 m 25xe8
 72 786 218 792 218 792 c 25xe8
 228 499 l 29
 228 499 264 541 362 541 c 16
 460 541 594 469 594 259 c 16
 594 49 408 -16 338 -16 c 16
 268 -16 232 9 232 9 c 25
 228 -236 l 25
 29 -234 l 25xd8
 22 783 l 25xe8
EndSplineSet
Validated: 1
EndChar

StartChar: minus
Encoding: 8722 8722 234
Width: 472
VWidth: 1111
Flags: W
HStem: 320 145<26 442>
LayerCount: 2
Fore
SplineSet
26 320 m 1
 24 465 l 1
 442 468 l 1
 448 322 l 1
 26 320 l 1
EndSplineSet
Validated: 1
EndChar

StartChar: divide
Encoding: 247 247 235
Width: 472
VWidth: 1111
Flags: W
HStem: 178 125<159.056 324.56> 320 140<27 387.125> 327 141<75.875 439> 483 124<151.112 315.466>
VStem: 126 214<507.477 582.84> 131 222<204.807 276.232>
LayerCount: 2
Fore
SplineSet
232 607 m 4x98
 302 607 340 580 340 547 c 4
 340 514 302 483 231 483 c 4
 160 483 126 513 126 544 c 4
 126 575 162 607 232 607 c 4x98
247 303 m 0
 317 303 353 279 353 246 c 0
 353 213 314 178 243 178 c 0
 172 178 131 204 131 241 c 0x94
 131 272 177 303 247 303 c 0
27 320 m 1xd0
 24 460 l 1xd0
 439 468 l 1
 441 327 l 1xb0
 27 320 l 1xd0
EndSplineSet
Validated: 1
EndChar

StartChar: uni0312
Encoding: 786 786 314
Width: 251
VWidth: 948
Flags: W
HStem: 435 167<142.007 207.625>
VStem: 60 176<464.041 579.318>
AnchorPoint: "Anchor-0" 149 412 mark 0
LayerCount: 2
Fore
SplineSet
236 524 m 0
 236 463 192 435 141 435 c 0
 105 435 60 456 60 546 c 0
 60 737 219 710 219 710 c 25
 219 637 l 1
 145 632 l 1
 142 598 l 1
 142 598 151 602 171 602 c 0
 211 602 236 570 236 524 c 0
EndSplineSet
Validated: 33
EndChar

StartChar: uni0313
Encoding: 787 787 315
Width: 251
VWidth: 948
Flags: W
HStem: 542 168<89.4736 153.697>
VStem: 154 83<508.185 546>
AnchorPoint: "Anchor-1" 30 622 mark 0
LayerCount: 2
Fore
SplineSet
60 621 m 0
 60 689 116 710 152 710 c 0
 188 710 237 689 237 591 c 0
 237 407 77 434 77 434 c 25
 78 507 l 1
 154 506 l 1
 155 546 l 1
 155 546 145 542 125 542 c 0
 85 542 60 568 60 621 c 0
EndSplineSet
Validated: 33
EndChar

StartChar: Dcroat
Encoding: 272 272 318
Width: 817
VWidth: 1111
Flags: W
HStem: 0 183<319.095 519.988> 324 121<321 443> 331 122<34 90 321 429.375> 558 203<471.52 541.176>
VStem: 90 188<452 582.954> 91 228<183 326> 546 255<257.023 540.55>
LayerCount: 2
Fore
SplineSet
89 754 m 1xba
 89 754 161 761 352 761 c 0
 543 761 803 727 801 394 c 0
 799 61 511 0 361 0 c 0
 211 0 93 -1 93 -1 c 1
 92 95 92 220 91 330 c 1xb6
 22 331 l 1
 34 453 l 1
 90 452 l 1
 89 616 89 754 89 754 c 1xba
321 326 m 5
 320 280 320 223 319 183 c 5xd6
 319 183 450 185 541 186 c 1
 541 186 544 417 546 558 c 1
 280 583 l 1
 280 583 279 520 278 448 c 1
 451 445 l 1
 443 324 l 1xda
 321 326 l 5
EndSplineSet
Validated: 33
EndChar

StartChar: dcroat
Encoding: 273 273 319
Width: 614
VWidth: 1111
Flags: W
HStem: -26 164<204.545 339> 351 170<222.857 368> 549 127<298 381> 557 118<298 381 581 648>
VStem: 17 202<276.45 346.306> 17 182<142.011 212.55>
AnchorPoint: "Anchor-4" 608 607 basechar 0
LayerCount: 2
Fore
SplineSet
379 736 m 1xe4
 581 733 l 1
 581 675 l 1
 651 674 l 1
 648 556 l 1
 581 557 l 1xd4
 579 0 l 1
 442 -21 l 1
 432 46 l 1
 399 4 333 -26 272 -26 c 0
 120 -26 17 94 17 268 c 0
 17 416 125 521 278 521 c 0
 333 521 408 484 408 484 c 1
 406 549 l 1
 298 551 l 1
 296 677 l 1
 381 676 l 1
 379 736 l 1xe4
219 351 m 1xc8
 199 138 l 1xc4
 379 147 l 1
 368 344 l 1
 219 351 l 1xc8
EndSplineSet
Validated: 1
EndChar

StartChar: Hbar
Encoding: 294 294 332
Width: 718
VWidth: 1111
Flags: W
HStem: 0 21G<22 264.129 481.737 697> 309 164<266 477> 549 119<-47 23> 752 20G<23 220>
VStem: 23 243<0 309> 478 213<91.5 304 471 549> 482 215<0 304 471 549>
AnchorPoint: "Anchor-0" 316 788 basechar 0
LayerCount: 2
Fore
SplineSet
23 771 m 1xfc
 220 772 l 1
 220 669 l 1
 440 669 l 1
 439 764 l 1
 689 762 l 1
 690 668 l 1
 762 668 l 1
 759 549 l 1
 691 549 l 1xfc
 697 0 l 1
 482 0 l 1xfa
 478 304 l 1
 266 309 l 1
 264 0 l 1
 22 0 l 1
 23 555 l 1
 -47 556 l 1
 -49 670 l 1
 23 670 l 1
 23 771 l 1xfc
475 552 m 1
 199 554 l 1
 199 473 l 1
 477 471 l 1
 475 552 l 1
EndSplineSet
Validated: 1
EndChar

StartChar: hbar
Encoding: 295 295 333
Width: 548
VWidth: 1111
Flags: W
HStem: 0 13G<22 192.766 332.057 523> 511 20G<344 440> 570 101<232 302> 572 87<-21 23> 749 20G<116.333 232.796>
VStem: 23 184<451 570> 23 166<7 342> 333 194<-0.816986 342>
AnchorPoint: "Anchor-0" 127 808 basechar 0
LayerCount: 2
Fore
SplineSet
23 733 m 1xdb
 233 769 l 1
 232 671 l 1
 309 671 l 1
 302 570 l 1
 208 570 l 1
 207 451 l 1xed
 207 451 296 531 392 531 c 0
 488 531 527 443 527 347 c 0
 527 251 523 -1 523 -1 c 1
 332 -8 l 1
 333 342 l 1
 189 342 l 1
 193 0 l 1
 22 7 l 1
 23 572 l 1
 -22 572 l 1
 -21 662 l 1
 23 659 l 1
 23 733 l 1xdb
EndSplineSet
Validated: 1
EndChar

StartChar: uni0237
Encoding: 567 567 334
Width: 235
VWidth: 1111
Flags: W
HStem: -237 145<-78.9556 30>
VStem: 30 183<-85.8562 424.25>
AnchorPoint: "Anchor-2" 44 -281 basechar 0
AnchorPoint: "Anchor-0" 121 554 basechar 0
LayerCount: 2
Fore
SplineSet
22 498 m 17
 210 508 l 9
 210 508 213 189 213 -18 c 0
 213 -198 106 -237 44 -237 c 16
 -18 -237 -79 -221 -79 -221 c 25
 -82 -91 l 25
 30 -92 l 25
 22 498 l 17
EndSplineSet
Validated: 1
EndChar

StartChar: kgreenlandic
Encoding: 312 312 339
Width: 576
VWidth: 1111
Flags: W
HStem: 0 21G<36.4071 227 353.588 588> 497 20G<22 193.358>
VStem: 22 172<299 506> 37 190<0 177>
AnchorPoint: "Anchor-2" 292 -2 basechar 0
LayerCount: 2
Fore
SplineSet
22 506 m 17xe0
 194 517 l 17xe0
 187 299 l 1
 366 498 l 17
 546 487 l 1
 386 316 l 17
 588 16 l 1
 363 0 l 5
 259 221 l 1
 222 177 l 1
 227 0 l 17
 37 0 l 17xd0
 22 506 l 17xe0
EndSplineSet
Validated: 1
EndChar

StartChar: Lslash
Encoding: 321 321 348
Width: 662
VWidth: 1111
Flags: W
HStem: 0 21G<81.8876 640> 516 20G<350.966 426.673>
VStem: 79 240<507 731.425> 80 216<169 356>
AnchorPoint: "Anchor-2" 364 -16 basechar 0
AnchorPoint: "Anchor-0" 193 788 basechar 0
LayerCount: 2
Fore
SplineSet
78 731 m 1xe0
 172 740 320 754 320 754 c 1
 319 507 l 1xe0
 422 536 l 1
 447 429 l 1
 296 385 l 1
 296 169 l 1
 633 173 l 5
 640 0 l 1
 640 1 82 1 82 0 c 1
 80 356 l 1xd0
 20 334 l 1
 6 437 l 1
 79 450 l 1
 78 731 l 1xe0
EndSplineSet
Validated: 33
EndChar

StartChar: lslash
Encoding: 322 322 349
Width: 388
VWidth: 1111
Flags: W
HStem: 0 21G<81 280> 516 20G<290.261 374.056> 741 20G<87.8 277>
VStem: 81 199<0 217> 84 183<186 355> 85 193<0 183.182 513 754>
AnchorPoint: "Anchor-2" 188 -16 basechar 0
AnchorPoint: "Anchor-0" 184 788 basechar 0
LayerCount: 2
Fore
SplineSet
88 761 m 1xe4
 277 754 l 1
 278 513 l 1xe4
 372 536 l 1
 383 429 l 1
 267 403 l 1xe8
 280 0 l 1
 81 0 l 1xf0
 84 355 l 1xe8
 16 338 l 1
 6 456 l 1
 85 461 l 1
 88 761 l 1xe4
EndSplineSet
Validated: 1
EndChar

StartChar: Eng
Encoding: 330 330 352
Width: 768
VWidth: 1111
Flags: W
HStem: 0 13G<23 221 437.5 496> 750 20G<279 337>
VStem: 23 198<0.174644 422> 576 172<-86.4474 -8.42787>
AnchorPoint: "Anchor-2" 398 -16 basechar 0
AnchorPoint: "Anchor-0" 417 788 basechar 0
LayerCount: 2
Fore
SplineSet
22 767 m 1
 122 768 279 770 279 770 c 1
 395 594 563 354 563 354 c 5
 556 525 547 761 547 761 c 1
 617 762 738 763 738 763 c 1
 738 763 748 167 748 -40 c 0
 748 -220 641 -237 579 -237 c 0
 517 -237 443 -217 443 -217 c 1
 454 -80 l 1
 576 -87 l 1
 574 -6 l 1
 529 -7 496 -8 496 -8 c 1
 379 178 222 422 222 422 c 1
 222 240 221 0 221 0 c 1
 153 0 23 0 23 0 c 1
 23 290 22 767 22 767 c 1
EndSplineSet
Validated: 1
EndChar

StartChar: eng
Encoding: 331 331 353
Width: 591
VWidth: 1111
Flags: W
HStem: -46 20G<291.73 382> 0 21G<28.7233 218> 493 47G<22 172.258 337 457>
VStem: 22 189<0 357> 29 189<0 357> 383 186<-30.4664 363.505>
AnchorPoint: "Anchor-2" 298 -16 basechar 0
AnchorPoint: "Anchor-0" 316 554 basechar 0
LayerCount: 2
Fore
SplineSet
22 506 m 1xf4
 160 513 l 1
 198 451 l 1
 198 451 277 540 397 540 c 0
 517 540 569 464 569 341 c 16
 569 218 564 136 564 0 c 0
 564 -92 531 -196 409 -196 c 0
 337 -196 278 -167 278 -167 c 1
 294 -26 l 5
 382 -33 l 1
 383 366 l 1
 211 357 l 1xf4
 218 0 l 25
 29 0 l 25xec
 22 506 l 1xf4
EndSplineSet
Validated: 1
EndChar

StartChar: OE
Encoding: 338 338 354
Width: 1214
VWidth: 1111
Flags: W
HStem: -41 208<269.148 514.342> 1 188<759 1186> 316 166<821 1128> 580 203<446.909 534.918> 616 151<861.597 1179>
VStem: 17 239<345.846 512.305>
AnchorPoint: "Anchor-0" 594 788 basechar 0
LayerCount: 2
Fore
SplineSet
560 1 m 1x6c
 512 -26 453 -41 383 -41 c 0
 190 -41 17 75 17 368 c 0
 17 684 273 783 417 783 c 0xb4
 508 783 614 756 614 756 c 1
 1179 767 l 1
 1179 708 1179 616 1179 616 c 1
 1039 609 821 600 821 600 c 1
 821 548 821 482 821 482 c 1
 942 480 1132 478 1132 478 c 1
 1130 421 1128 311 1128 311 c 1
 982 313 754 316 754 316 c 1
 759 189 l 1
 1186 189 l 1
 1188 111 1192 0 1192 0 c 1
 967 0 604 1 560 1 c 1x6c
256 558 m 1
 269 164 l 1
 269 164 410 166 523 167 c 1
 536 580 l 1
 256 558 l 1
EndSplineSet
Validated: 1
EndChar

StartChar: oe
Encoding: 339 339 355
Width: 983
VWidth: 1111
Flags: W
HStem: -29 126<595.464 739> -28 156<299.467 389.568> 208 98<618 768> 398 131<622.178 763.504>
VStem: 17 179<143.722 220.636>
AnchorPoint: "Anchor-0" 504 577 basechar 0
LayerCount: 2
Fore
SplineSet
218 387 m 13x78
 196 143 l 29
 390 128 l 29
 379 394 l 29
 218 387 l 13x78
17 276 m 0
 17 445 126 561 317 561 c 0
 412 561 475 521 515 465 c 1
 560 504 623 529 711 529 c 0
 880 529 967 427 967 207 c 1
 592 208 l 1
 593 97 l 1
 739 100 l 1
 742 162 l 1
 953 160 l 1
 953 160 951 -29 718 -29 c 0xb8
 613 -29 542 2 497 49 c 1
 454 3 390 -28 296 -28 c 0
 102 -28 17 107 17 276 c 0
620 398 m 1
 618 306 l 1
 768 304 l 1
 767 399 l 1
 620 398 l 1
EndSplineSet
EndChar

StartChar: Tbar
Encoding: 358 358 374
Width: 684
VWidth: 1111
Flags: W
HStem: -8 21G<229 230> 271 113<146 229.857 457 500.5> 278 102<146 237> 536 21G<22 23.5> 751 20G<30 153.5>
VStem: 237 217<384 552.945> 245 212<2.75211 271>
AnchorPoint: "Anchor-0" 351 788 basechar 0
AnchorPoint: "Anchor-2" 353 -38 basechar 0
LayerCount: 2
Fore
SplineSet
30 771 m 1xbc
 277 768 662 762 662 762 c 1
 659 695 653 591 653 591 c 1
 582 590 449 589 449 589 c 1
 450 529 452 453 454 384 c 1xdc
 578 392 l 1
 584 270 l 5
 457 271 l 5xda
 460 139 462 1 462 1 c 1
 362 -2 229 -8 229 -8 c 1
 231 66 243 194 245 278 c 5xba
 139 273 l 5
 146 384 l 1xda
 237 380 l 1
 239 477 240 553 240 553 c 1
 156 546 22 536 22 536 c 1
 25 628 30 771 30 771 c 1xbc
EndSplineSet
Validated: 1
EndChar

StartChar: tbar
Encoding: 359 359 375
Width: 481
VWidth: 1111
Flags: W
HStem: -24 138<250.181 331.428> 244 83<240 416> 366 162<257 430> 371 150<257 430> 384 117<7 86>
VStem: 61 185<116.588 244> 334 138<114.446 210>
AnchorPoint: "Anchor-1" 342 618 basechar 0
AnchorPoint: "Anchor-2" 258 -42 basechar 0
LayerCount: 2
Fore
SplineSet
143 637 m 1xce
 258 640 l 1
 257 521 l 1xd6
 430 528 l 1
 431 366 l 1xe6
 226 371 l 1xd6
 225 329 l 1
 421 327 l 1
 416 244 l 1
 240 249 l 1
 246 114 l 1
 334 111 l 1
 337 210 l 1
 467 211 l 1
 467 211 472 169 472 140 c 0
 472 26 404 -24 257 -24 c 0
 110 -24 61 62 61 149 c 0
 61 177 64 210 67 244 c 1
 11 242 l 1
 17 337 l 1
 77 330 l 1
 81 362 86 384 86 384 c 1
 2 384 l 1
 7 501 l 1
 109 497 l 1
 143 637 l 1xce
EndSplineSet
Validated: 1
EndChar

StartChar: Ohorn
Encoding: 416 416 519
Width: 836
VWidth: 1111
Flags: W
HStem: -41 208<263.797 528.339> 556 216<292.551 526.883> 740 20G<723.849 881>
VStem: 17 246<201.484 491.169> 527 247<333.667 531.67>
AnchorPoint: "Anchor-2" 409 -38 basechar 0
AnchorPoint: "Anchor-3" 409 31 basechar 0
AnchorPoint: "Anchor-0" 417 788 basechar 0
LayerCount: 2
Fore
SplineSet
264 556 m 1xd8
 263 164 l 1
 263 164 426 166 539 167 c 1
 527 567 l 1
 527 567 366 560 264 556 c 1xd8
751 536 m 1
 766 490 774 438 774 383 c 0
 774 156 644 -41 406 -41 c 0
 213 -41 17 53 17 346 c 0
 17 662 250 772 417 772 c 0xd8
 527 772 616 732 678 664 c 1
 716 667 l 1
 726 760 l 1xb8
 881 754 l 1
 880 616 824 557 751 536 c 1
EndSplineSet
Validated: 1
EndChar

StartChar: ohorn
Encoding: 417 417 520
Width: 688
VWidth: 1111
Flags: W
HStem: -28 167<210.718 393.82> 398 152<218.389 376.308> 518 20G<563.782 733>
VStem: 17 201<228.727 390.109>
AnchorPoint: "Anchor-2" 318 -38 basechar 0
AnchorPoint: "Anchor-3" 320 31 basechar 0
AnchorPoint: "Anchor-0" 316 577 basechar 0
LayerCount: 2
Fore
SplineSet
17 276 m 0xb0
 17 445 126 550 317 550 c 0xd0
 420 550 495 502 543 439 c 1
 571 437 l 1
 562 538 l 1
 733 529 l 1
 718 403 669 346 598 322 c 1
 602 303 604 284 604 266 c 0
 604 145 512 -28 318 -28 c 0
 124 -28 17 107 17 276 c 0xb0
218 398 m 1
 207 132 l 1
 401 139 l 1
 379 394 l 1
 218 398 l 1
EndSplineSet
Validated: 1
EndChar

StartChar: Uhorn
Encoding: 431 431 541
Width: 836
VWidth: 1111
Flags: W
HStem: -33 209<271.954 454.5>
VStem: 22 240<177.241 713.737> 482 198<184.266 531.163>
AnchorPoint: "Anchor-2" 342 -38 basechar 0
AnchorPoint: "Anchor-3" 342 31 basechar 0
AnchorPoint: "Anchor-0" 376 788 basechar 0
LayerCount: 2
Fore
SplineSet
36 751 m 1
 126 753 267 758 267 758 c 1
 262 176 l 1
 482 184 l 1
 476 744 l 1
 696 740 l 1
 696 740 697 710 698 656 c 1
 733 653 l 1
 740 751 l 1
 881 754 l 1
 869 580 772 535 679 529 c 1
 680 471 680 401 680 324 c 0
 680 125 611 -33 342 -33 c 0
 73 -33 22 158 22 309 c 0
 22 460 36 751 36 751 c 1
EndSplineSet
Validated: 1
EndChar

StartChar: uhorn
Encoding: 432 432 542
Width: 736
VWidth: 1111
Flags: W
HStem: 0 21G<140 244 391.385 543> 490 20G<29 216.684 366.277 561 611.917 781>
VStem: 22 189<132.117 506.897> 371 170<149 280.806> 616 165<410 510>
AnchorPoint: "Anchor-2" 287 -38 basechar 0
AnchorPoint: "Anchor-3" 453 31 basechar 0
AnchorPoint: "Anchor-0" 298 554 basechar 0
LayerCount: 2
Fore
SplineSet
29 507 m 1
 217 510 l 1
 211 130 l 1
 371 149 l 1
 366 510 l 1
 561 506 l 1
 562 405 l 1
 616 410 l 1
 611 519 l 1
 781 510 l 1
 775 339 680 290 541 279 c 1
 543 0 l 1
 401 0 l 1
 376 52 l 1
 376 52 296 -39 192 -39 c 0
 88 -39 22 18 22 192 c 0
 22 366 29 507 29 507 c 1
EndSplineSet
Validated: 1
EndChar

StartChar: uni00AD
Encoding: 173 173 630
Width: 323
VWidth: 1111
Flags: W
HStem: 211 145<29 294>
VStem: 22 279<211 356>
LayerCount: 2
Fore
SplineSet
29 356 m 5
 294 361 l 29
 301 206 l 29
 22 211 l 29
 29 356 l 5
EndSplineSet
Validated: 1
EndChar

StartChar: logicalnot
Encoding: 172 172 631
Width: 467
VWidth: 1111
Flags: W
HStem: 226 130<31 234.5> 235 107<234.5 303>
LayerCount: 2
Fore
SplineSet
29 356 m 1x80
 440 342 l 25
 446 128 l 1
 297 131 l 1
 303 235 l 5x40
 31 226 l 9
 29 356 l 1x80
EndSplineSet
Validated: 1
EndChar

StartChar: plusminus
Encoding: 177 177 632
Width: 472
VWidth: 1111
Flags: W
HStem: 107 133<37 184> 318 133<306 440> 320 145<33 177>
VStem: 177 129<463 551.545> 189 112<238 318>
LayerCount: 2
Fore
SplineSet
170 613 m 1xb0
 317 609 l 1
 306 451 l 1xd0
 440 456 l 1
 455 313 l 1
 301 318 l 1
 305 238 l 1
 444 246 l 1
 451 112 l 1
 37 107 l 1
 37 240 l 1
 184 236 l 5
 189 318 l 5xc8
 33 320 l 1
 23 465 l 1
 177 463 l 1
 170 613 l 1xb0
EndSplineSet
Validated: 1
EndChar

StartChar: uni2015
Encoding: 8213 8213 633
Width: 666
VWidth: 1111
Flags: W
HStem: 208 119<24 641>
LayerCount: 2
Fore
SplineSet
22 329 m 1
 644 327 l 25
 641 208 l 25
 24 214 l 25
 22 329 l 1
EndSplineSet
Validated: 1
EndChar

StartChar: uni2010
Encoding: 8208 8208 634
Width: 323
VWidth: 1111
Flags: W
HStem: 211 145<29 294>
VStem: 22 279<211 356>
LayerCount: 2
Fore
SplineSet
29 356 m 5
 294 361 l 29
 301 206 l 29
 22 211 l 29
 29 356 l 5
EndSplineSet
Validated: 1
EndChar

StartChar: uni2011
Encoding: 8209 8209 635
Width: 323
VWidth: 1111
Flags: W
HStem: 211 145<29 294>
VStem: 22 279<211 356>
LayerCount: 2
Fore
SplineSet
29 356 m 5
 294 361 l 29
 301 206 l 29
 22 211 l 29
 29 356 l 5
EndSplineSet
Validated: 1
EndChar

StartChar: figuredash
Encoding: 8210 8210 636
Width: 577
VWidth: 1111
Flags: W
HStem: 203 130<22 543>
LayerCount: 2
Fore
SplineSet
22 333 m 1
 543 334 l 29
 552 208 l 1
 13 203 l 25
 22 333 l 1
EndSplineSet
Validated: 1
EndChar

StartChar: endash
Encoding: 8211 8211 637
Width: 577
VWidth: 1111
Flags: W
HStem: 203 130<22 543>
LayerCount: 2
Fore
SplineSet
22 333 m 1
 543 334 l 29
 552 208 l 1
 13 203 l 25
 22 333 l 1
EndSplineSet
Validated: 1
EndChar

StartChar: ellipsis
Encoding: 8230 8230 638
Width: 920
VWidth: 1111
Flags: W
HStem: 0 251<84.2579 232.535 390.422 534.031 690.005 844.597>
VStem: 22 262<60.6431 193.48> 332 259<57.4935 192.654> 636 262<53.6176 193.472>
LayerCount: 2
Fore
SplineSet
156 251 m 0
 238 251 284 195 284 128 c 8
 284 61 243 0 159 0 c 8
 75 0 22 65 22 127 c 0
 22 189 74 251 156 251 c 0
468 251 m 0
 541 251 591 198 591 131 c 8
 591 64 544 0 460 0 c 8
 376 0 332 60 332 122 c 0
 332 184 377 251 468 251 c 0
762 251 m 0
 846 251 898 200 898 133 c 8
 898 66 861 0 777 0 c 8
 693 0 636 48 636 116 c 0
 636 189 683 251 762 251 c 0
EndSplineSet
Validated: 1
EndChar

StartChar: paragraph
Encoding: 182 182 639
Width: 718
VWidth: 1111
Flags: W
HStem: 686 96<431 523>
VStem: 339 83<23.4476 208.95> 524 81<10.0446 684.887>
LayerCount: 2
Fore
SplineSet
696 791 m 1
 701 699 l 1
 605 692 l 1
 605 692 605 530 605 240 c 0
 605 2.84217094304e-14 623 -169 623 -169 c 1
 511 -171 l 1
 511 -171 524 23 524 256 c 0
 524 530 523 685 523 685 c 1
 431 686 l 1
 431 686 422 524 422 271 c 0
 422 46 431 -171 431 -171 c 1
 327 -167 l 1
 327 -167 339 -52.7637795276 339 67 c 0
 339 140.027392121 336 209 336 209 c 1
 336 209 22 220.814814815 22 499 c 0
 22 724.04778157 202.005571031 782 431 782 c 0
 619.992248062 782 696 791 696 791 c 1
EndSplineSet
Validated: 1
EndChar

StartChar: periodcentered
Encoding: 183 183 640
Width: 306
VWidth: 1111
Flags: W
HStem: 289 251<85.1461 232.11>
VStem: 22 262<351.19 484.491>
LayerCount: 2
Fore
SplineSet
159 540 m 0
 241 540 284 479 284 412 c 12
 284 345 243 289 159 289 c 8
 75 289 22 357 22 419 c 0
 22 481 77 540 159 540 c 0
EndSplineSet
Validated: 1
EndChar

StartChar: bullet
Encoding: 8226 8226 641
Width: 400
VWidth: 1388
Flags: W
HStem: 236 354<114.589 293.634>
VStem: 17 367<330.748 495.426>
LayerCount: 2
Fore
SplineSet
200 590 m 0
 315 590 384 511 384 418 c 8
 384 325 323 236 205 236 c 8
 87 236 17 326 17 413 c 0
 17 500 85 590 200 590 c 0
EndSplineSet
Validated: 1
EndChar

StartChar: florin
Encoding: 402 402 642
Width: 503
VWidth: 1111
Flags: W
HStem: 351 155<353.6 481> 362 134<22 119> 682 127<283.338 369.546>
VStem: 112 170<605.412 680.416> 138 189<-99.3136 116> 374 165<562 678.459>
AnchorPoint: "Anchor-0" 349 841 basechar 0
LayerCount: 2
Fore
SplineSet
327 -66 m 0xac
 327 -187 290 -283 143 -283 c 0
 42 -283 -7 -256 -7 -256 c 1
 -11 -114 l 1
 138 -101 l 1xac
 123 364 l 1
 22 362 l 25
 22 496 l 17
 119 494 l 25
 119 494 112 531 112 618 c 16
 112 705 171 809 353 809 c 0
 535 809 539 657 539 626 c 0
 539 595 533 552 533 552 c 1
 380 562 l 1
 374 682 l 1
 282 682 l 1
 299 496 l 1x74
 481 506 l 1
 481 351 l 25
 317 349 l 17
 317 349 327 93 327 -66 c 0xac
EndSplineSet
Validated: 1
EndChar

StartChar: quotesinglbase
Encoding: 8218 8218 643
Width: 296
VWidth: 1111
Flags: W
HStem: -4 245<83.1489 153.988>
VStem: 22 252<21.0748 179.128>
LayerCount: 2
Fore
SplineSet
22 100 m 0
 22 198 97 241 148 241 c 0
 199 241 274 216 274 76 c 0
 274 -186 53 -156 53 -156 c 1
 48 -53 l 25
 157 -56 l 1
 154 2 l 1
 154 2 138 -4 110 -4 c 0
 52 -4 22 24 22 100 c 0
EndSplineSet
Validated: 33
EndChar

StartChar: quotedblbase
Encoding: 8222 8222 644
Width: 570
VWidth: 1111
Flags: W
HStem: -4 245<83.1489 153.988 342.452 433.309>
VStem: 22 252<21.0748 179.128> 296 252<41.0479 176.305>
LayerCount: 2
Fore
SplineSet
296 112 m 0
 296 210 359 241 410 241 c 0
 461 241 548 216 548 76 c 0
 548 -186 327 -156 327 -156 c 1
 321 -53 l 1
 433 -44 l 1
 436 0 l 1
 436 0 422 -4 394 -4 c 0
 336 -4 296 36 296 112 c 0
22 100 m 0
 22 198 97 241 148 241 c 0
 199 241 274 216 274 76 c 0
 274 -186 53 -156 53 -156 c 1
 40 -57 l 1
 158 -60 l 5
 154 2 l 1
 154 2 138 -4 110 -4 c 0
 52 -4 22 24 22 100 c 0
EndSplineSet
Validated: 33
EndChar

StartChar: trademark
Encoding: 8482 8482 645
Width: 658
VWidth: 1111
Flags: W
HStem: 459 312 741 20G<420 429>
LayerCount: 2
Fore
SplineSet
25 771 m 25x80
 124 770 278 767 278 767 c 25
 277 740 275 699 275 699 c 25
 247 699 197 698 197 698 c 25
 199 606 203 463 203 463 c 25
 163 462 109 459 109 459 c 25
 111 547 114 684 114 684 c 25
 80 681 22 677 22 677 c 25
 23 714 25 771 25 771 c 25x80
308 759 m 25
 352 759 420 761 420 761 c 25
 438 689 467 577 467 577 c 25
 486 650 515 763 515 763 c 25
 558 762 625 761 625 761 c 25x40
 630 645 637 462 637 462 c 25
 604 462 552 462 552 462 c 25
 551 538 550 656 550 656 c 25
 530 580 497 462 497 462 c 25
 467 462 421 462 421 462 c 25
 401 532 369 643 369 643 c 25
 369 573 370 462 370 462 c 25
 340 462 292 462 292 462 c 25
 298 578 308 759 308 759 c 25
EndSplineSet
Validated: 1
EndChar

StartChar: T_H
Encoding: 65561 -1 646
Width: 1196
VWidth: 1111
Flags: W
HStem: 0 21G<543.643 731 938 1174> 258 186<746 893.583> 547 21G<32 253> 611 151<471.968 745.873> 751 20G<20 22.5>
VStem: 544 187<0 258> 938 236<0 267> 999 168<456 760>
AnchorPoint: "Anchor-0" 351 788 basechar 0
AnchorPoint: "Anchor-2" 353 -38 basechar 0
LayerCount: 2
Fore
SplineSet
534 560 m 1xf6
 748 563 l 1
 746 444 l 1
 999 456 l 1
 994 760 l 1
 1167 762 l 1xf5
 1174 0 l 25
 938 0 l 1
 942 267 l 1
 727 258 l 1
 731 0 l 1
 544 0 l 25
 534 560 l 1xf6
20 771 m 25xec
 20 771 467 765 754 762 c 25
 754 762 749 662 746 613 c 25
 746 613 571 612 460 611 c 25xf4
 460 611 467 248 473 1 c 25
 473 1 323 -5 226 -8 c 25
 226 -8 243 334 253 553 c 25
 32 547 l 9
 32 547 25 679 20 771 c 25xec
EndSplineSet
Validated: 1
LCarets2: 1 500
Ligature2: "'dlig' Discretionary Ligatures in Latin lookup 0-1" T.ss01 H
Ligature2: "'dlig' Discretionary Ligatures in Latin lookup 0-1" T H.ss01
Ligature2: "'dlig' Discretionary Ligatures in Latin lookup 0-1" T H
Ligature2: "'dlig' Discretionary Ligatures in Latin lookup 0-1" T.ss01 H.ss01
EndChar

StartChar: T_h
Encoding: 65562 -1 647
Width: 1116
VWidth: 1111
Flags: W
HStem: -18 21G<876.701 1031.56> -3 21G<240.337 462 590 760.721 876.701 1031.56> 511 20G<896 997> 524 247<34 241.339>
VStem: 240 222<1 412.333> 249 222<129.222 531> 590 171<7 358> 591 192<473 579> 889 205<153.231 351.494>
AnchorPoint: "Anchor-2" 353 -38 basechar 0
AnchorPoint: "Anchor-0" 351 788 basechar 0
LayerCount: 2
Fore
SplineSet
591 579 m 1xa180
 471 578 l 1xa580
 462 1 l 1
 240 -3 l 1x4880
 249 531 l 1x6480
 33 524 l 1
 34 771 l 1
 281 768 793 748 793 748 c 1
 783 473 l 1x1580
 783 473 854 531 938 531 c 0
 1056 531 1094 443 1094 347 c 0
 1094 251 1086 9 1086 9 c 1
 876 -18 l 1
 889 353 l 1
 756 358 l 1
 761 0 l 1
 590 7 l 1xa280
 591 579 l 1xa180
EndSplineSet
Validated: 1
LCarets2: 1 538
Ligature2: "'dlig' Discretionary Ligatures in Latin lookup 0-1" T h.ss01
Ligature2: "'dlig' Discretionary Ligatures in Latin lookup 0-1" T.ss01 h
Ligature2: "'dlig' Discretionary Ligatures in Latin lookup 0-1" T h
Ligature2: "'dlig' Discretionary Ligatures in Latin lookup 0-1" T.ss01 h.ss01
EndChar

StartChar: uni0259
Encoding: 601 601 648
Width: 605
VWidth: 1111
Flags: W
HStem: -29 137<244.332 384.117> 190 94<237 379> 384 145<217.393 390.443>
AnchorPoint: "Anchor-2" 327 -60 basechar 0
AnchorPoint: "Anchor-0" 304 554 basechar 0
LayerCount: 2
Fore
SplineSet
589 253 m 0
 589 115 514 -29 303 -29 c 0
 79 -29 23 138 17 269 c 1
 400 284 l 1
 392 384 l 1
 209 384 l 1
 210 318 l 1
 19 320 l 25
 19 320 45 529 304 529 c 0
 507 529 589 391 589 253 c 0
386 112 m 1
 379 190 l 9
 237 183 l 1
 240 108 l 9
 386 112 l 1
EndSplineSet
Validated: 1
EndChar

StartChar: uni018F
Encoding: 399 399 649
Width: 776
VWidth: 1111
Flags: W
HStem: -23 167<277.273 452.1> 297 143<335 494> 609 185<330.2 487>
VStem: 494 267<440 515.984>
AnchorPoint: "Anchor-0" 386 821 basechar 0
AnchorPoint: "Anchor-2" 396 -60 basechar 0
LayerCount: 2
Fore
SplineSet
275 144 m 1
 528 154 l 1
 518 297 l 1
 281 290 l 1
 275 144 l 1
494 440 m 1
 487 609 l 1
 263 599 l 1
 241 477 l 1
 20 477 l 1
 20 477 55 794 398 794 c 0
 655 794 761 559 761 370 c 0
 761 189 666 -23 395 -23 c 0
 -9 -23 17 419 17 419 c 1
 494 440 l 1
EndSplineSet
Validated: 33
EndChar

StartChar: estimated
Encoding: 8494 8494 650
Width: 838
VWidth: 1111
Flags: W
HStem: -23 169<302.583 420.933> 316 136<297 439.423> 604 190<339.7 533.992>
VStem: 17 239<452 566>
LayerCount: 2
Fore
SplineSet
542 604 m 1
 253 594 l 1
 256 452 l 1
 540 462 l 1
 542 604 l 1
297 316 m 1
 301 146 l 1
 558 161 l 1
 561 283 l 1
 828 283 l 1
 828 283 819 -23 438 -23 c 0
 114.982097187 -23 17 192 17 368 c 0
 17 566 152.026737968 794 421 794 c 0
 803.159728318 794 827.520507812 457.517131696 827.520507812 371.720703125 c 0
 827.520507812 352.827135681 826 342 826 342 c 1
 297 316 l 1
EndSplineSet
EndChar

StartChar: t.ss02
Encoding: 65563 -1 651
Width: 384
VWidth: 1111
Flags: W
HStem: -24 162<255 369> 369 141<255 374> 497 20G<247 374.265>
VStem: 74 181<143.015 351.916> 80 167<510 663>
AnchorPoint: "Anchor-0" 175 671 basechar 0
AnchorPoint: "Anchor-1" 342 618 basechar 0
AnchorPoint: "Anchor-2" 258 -42 basechar 0
LayerCount: 2
Fore
SplineSet
82 663 m 1xc8
 251 663 l 1
 247 510 l 1xc8
 374 517 l 1xa8
 376 366 l 1
 255 369 l 1
 255 138 l 1
 369 143 l 1
 373 -7 l 1
 373 -7 337 -24 246 -24 c 0
 123.425287356 -24 74 20 74 149 c 0xd0
 74 236 79 352 79 352 c 1
 2 352 l 1
 7 507 l 1
 7 507 80 507 80 509 c 1
 82 663 l 1xc8
EndSplineSet
EndChar

StartChar: uni2047
Encoding: 8263 8263 652
Width: 1215
VWidth: 1111
Flags: W
HStem: 0 222<178.819 337.617 785.647 941.534> 258 222<804 951> 258 204<182 338 347 347> 541 27G<11 212.664 628 804> 660 149<213.922 386.558 812.167 986.547>
VStem: 127 261<51.2794 175.511> 386 205<470.47 651.611> 734 262<51.7224 174.514> 1000 199<476.66 617.222>
LayerCount: 2
Fore
SplineSet
619 547 m 1xd980
 637 766 803 809 932 809 c 0
 1061 809 1199 726 1199 530 c 0
 1199 374 1087 331 1014 331 c 0
 962 331 942 347 942 347 c 1
 951 257 l 1
 790 258 l 1xb980
 804 480 l 1
 1000 471 l 1
 991 659 l 1
 812 660 l 1
 804 554 l 9
 619 547 l 1xd980
874 223 m 0
 951 223 996 177 996 117 c 0
 996 57 949 0 862 0 c 8
 775 0 734 42 734 109 c 0
 734 176 786 223 874 223 c 0
256 222 m 0
 333 222 388 177 388 117 c 0
 388 57 349 0 262 0 c 8
 175 0 127 53 127 120 c 0x9d80
 127 187 179 222 256 222 c 0
11 547 m 17
 29 766 184 809 313 809 c 0
 442 809 591 759 591 563 c 0
 591 385 462 342 389 342 c 0
 359 342 338 347 338 347 c 1
 347 264 l 1
 182 258 l 1
 164 462 l 1
 386 467 l 25xbb80
 390 658 l 25
 211 660 l 25
 213 541 l 25
 11 547 l 17
EndSplineSet
Validated: 1
LCarets2: 1 0
Ligature2: "'liga' Standard Ligatures in Latin lookup 0-1" question question
EndChar

StartChar: uni2048
Encoding: 8264 8264 653
Width: 891
VWidth: 1111
Flags: W
HStem: -14 230<678.113 815.892> 0 222<178.819 337.617> 258 204<182 338> 342 125<338.015 386> 541 21G<11 212.664> 658 151<213.922 386.558>
VStem: 127 261<51.2794 175.511> 386 205<470.47 651.611> 629 240<30.9964 165.88> 669 168<364.346 737.537>
LayerCount: 2
Fore
SplineSet
736 216 m 0x8c80
 828 216 869 153 869 107 c 0
 869 48 843 -14 761 -14 c 0
 679 -14 629 32 629 91 c 0
 629 177 673 216 736 216 c 0x8c80
636 791 m 1
 827 778 l 1
 827 778 837 691 837 557 c 0
 837 422 793 266 793 266 c 1
 651 279 l 1
 651 279 669 356 669 520 c 0x0c40
 669 657 636 791 636 791 c 1
256 222 m 0x4e
 333 222 388 177 388 117 c 0
 388 57 349 0 262 0 c 8
 175 0 127 53 127 120 c 0
 127 187 179 222 256 222 c 0x4e
11 547 m 17
 29 766 184 809 313 809 c 0
 442 809 591 759 591 563 c 0
 591 385 462 342 389 342 c 0x1d
 359 342 338 347 338 347 c 1
 347 264 l 1
 182 258 l 1
 164 462 l 1x2d
 386 467 l 25x1d
 390 658 l 25
 211 660 l 25
 213 541 l 25
 11 547 l 17
EndSplineSet
Validated: 1
LCarets2: 1 0
Ligature2: "'liga' Standard Ligatures in Latin lookup 0-1" question exclam
EndChar

StartChar: uni2049
Encoding: 8265 8265 654
Width: 891
VWidth: 1111
Flags: W
HStem: -9 219<67.0131 217.356> 0 223<461.794 617.261> 258 222<480 627> 547 21G<303 480> 660 149<488 662.493>
VStem: 22 240<34.0208 164.849> 71 181<371.588 728.738> 410 261<51.7224 174.514> 676 198<476.66 617.222>
LayerCount: 2
Fore
SplineSet
141 210 m 0xbd80
 233 210 262 144 262 98 c 0
 262 39 226 -9 144 -9 c 0
 62 -9 22 41 22 100 c 0
 22 186 78 210 141 210 c 0xbd80
38 778 m 1
 231 790 l 1
 231 790 252 691 252 557 c 0
 252 422 207 277 207 277 c 1
 54 256 l 1
 54 256 71 359 71 523 c 0x3b80
 71 660 38 778 38 778 c 1
550 223 m 0x7980
 627 223 671 177 671 117 c 0
 671 57 625 0 538 0 c 8
 451 0 410 42 410 109 c 0
 410 176 462 223 550 223 c 0x7980
294 547 m 5
 312 766 479 809 608 809 c 4
 737 809 874 726 874 530 c 4
 874 374 763 331 690 331 c 4
 638 331 618 347 618 347 c 5
 627 257 l 5
 466 258 l 5
 480 480 l 5
 676 471 l 5
 667 659 l 5
 488 660 l 5
 480 554 l 13
 294 547 l 5
EndSplineSet
Validated: 1
LCarets2: 1 0
Ligature2: "'liga' Standard Ligatures in Latin lookup 0-1" exclam question
EndChar

StartChar: lira
Encoding: 8356 8356 655
Width: 666
VWidth: 1111
Flags: W
HStem: 0 187<270 633> 295 50<33 100 288 443> 404 60<36 98 294 444> 656 161<328.8 411.244>
VStem: 90 201<464.041 645.899>
LayerCount: 2
Fore
SplineSet
100 295 m 1
 33 293 l 1
 29 344 l 1
 102 345 l 1
 101 404 l 1
 30 402 l 1
 36 462 l 1
 98 464 l 1
 98 464 90 519.579710145 90 582 c 0
 90 695.674418605 143.977186312 817 363 817 c 0
 637.010791367 817 638 518 638 518 c 1
 424 527 l 1
 417 656 l 1
 291 646 l 1
 293 460 l 1
 444 464 l 1
 447 407 l 1
 294 404 l 1
 288 348 l 1
 448 350 l 1
 443 294 l 1
 282 297 l 1
 270 187 l 1
 633 181 l 1
 640 0 l 1
 17 0 l 1
 75 102 94 213 100 295 c 1
EndSplineSet
Validated: 1
EndChar

StartChar: franc
Encoding: 8355 8355 656
Width: 680
VWidth: 1111
Flags: W
HStem: -1 21G<305.75 307> 91 135<14 211> 96 115<240 438> 282 180<338.875 597> 290 167<325 560.125> 616 163<331 646>
VStem: 81 226<0 289.871> 93 232<457 608.934>
LayerCount: 2
Fore
SplineSet
8 226 m 5xc4
 443 211 l 5
 438 96 l 5xa4
 14 91 l 5
 8 226 l 5xc4
93 772 m 5x8d
 93 772 425.919055649 777 646 779 c 5
 646 779 650.5 679 652 616 c 5
 331 609 l 5
 331 609 326.5 518 325 457 c 5x8d
 603 462 l 5
 603 462 600 363 597 282 c 5x95
 302 290 l 5
 302 290 304.5 112.822878229 307 -1 c 5
 307 -1 169.195121951 0 81 0 c 5x8e
 93 772 l 5x8d
EndSplineSet
Validated: 5
EndChar

StartChar: peseta
Encoding: 8359 8359 657
Width: 818
VWidth: 1111
Flags: W
HStem: -24 138<668 722.666> 0 21G<22 264> 371 148<679 786> 612 181<188 331.391>
VStem: 22 242<0 210> 22 234<30 240> 22 161<407 611.903> 484 58<384 503> 511 157<114.875 368.845> 723 87<113.718 210>
AnchorPoint: "Anchor-2" 330 -20 basechar 0
AnchorPoint: "Anchor-0" 344 824 basechar 0
LayerCount: 2
Fore
SplineSet
610 670 m 17xb140
 680 673 l 25
 679 519 l 25
 786 519 l 25
 787 368 l 25
 670 371 l 25
 668 114 l 25
 723 111 l 25
 726 210 l 1
 793 211 l 1
 793 211 810 169 810 118 c 0
 810 26 770 -24 668 -24 c 0
 544 -24 511 52 511 139 c 16xb0c0
 511 226 530 384 530 384 c 25
 484 384 l 25
 484 503 l 25
 553 504 l 25
 610 670 l 17xb140
188 612 m 25
 188 612 185 478 183 407 c 25x3240
 183 407 248 406 346 406 c 29
 346 406 338 541 334 614 c 29
 334 614 280 613 188 612 c 25
22 787 m 17
 22 787 133 793 249 793 c 0
 365 793 542 744 542 511 c 0
 542 189 256 240 256 240 c 25x7540
 264 0 l 0
 22 0 l 25x7840
 22 787 l 17
EndSplineSet
Validated: 37
EndChar

StartChar: c.ss01
Encoding: 65564 -1 658
Width: 603
VWidth: 1111
Flags: W
HStem: -22 151<222.727 345> 392 162<234.577 373.611>
VStem: 17 214<238.583 384.596>
AnchorPoint: "Anchor-2" 294 -60 basechar 0
AnchorPoint: "Anchor-0" 323 588 basechar 0
LayerCount: 2
Fore
SplineSet
231 392 m 9
 219 129 l 1
 399 139 l 9
 401 230 l 9
 592 230 l 9
 592 230 590 -22 292 -22 c 0
 61 -22 17 180 17 282 c 8
 17 384 92 554 323 554 c 8
 554 554 588 309 588 309 c 25
 372 311 l 25
 374 392 l 1
 231 392 l 9
EndSplineSet
Validated: 1
EndChar

StartChar: longs
Encoding: 383 383 659
Width: 453
VWidth: 1111
Flags: W
HStem: 0 21G<71 269> 341 143<-8 77> 562 247<318 403.458> 677 132<233.338 311.399>
VStem: 62 169<437.263 676.026> 312 174<563.031 680.283>
AnchorPoint: "Anchor-2" 173 -16 basechar 0
AnchorPoint: "Anchor-0" 299 841 basechar 0
LayerCount: 2
Fore
SplineSet
77 336 m 1xcc
 -8 341 l 1
 -12 484 l 1
 83 487 l 1
 77 336 l 1xcc
71 0 m 1
 71 0 62 475 62 562 c 0xec
 62 702 121 809 303 809 c 0xdc
 485 809 486 668 486 637 c 16
 486 606 474 563 474 563 c 1
 318 562 l 25xec
 312 682 l 25
 233 677 l 1xdc
 231 536 l 1
 269 0 l 1
 71 0 l 1
EndSplineSet
EndChar

StartChar: uni0256
Encoding: 598 598 660
Width: 614
VWidth: 1111
Flags: W
HStem: -234 138<579.151 686> -26 180<203.623 342.98> 362 170<204.702 360>
VStem: 17 186<157.824 354.723> 394 185<-89 22.9519> 439 153<484 736>
AnchorPoint: "Anchor-0" 504 808 basechar 0
AnchorPoint: "Anchor-2" 272 -36 basechar 0
AnchorPoint: "Anchor-4" 608 607 basechar 0
LayerCount: 2
Fore
SplineSet
204 362 m 13xf0
 203 154 l 13
 369 149 l 13
 360 367 l 13
 204 362 l 13xf0
434 736 m 1
 592 742 l 9xf4
 579 -89 l 1
 686 -96 l 1
 688 -234 l 0
 610 -250 394 -284 394 -100 c 0xf8
 394 -43 399 23 399 23 c 1
 399 23 330 -26 228 -26 c 0
 124 -26 17 57 17 246 c 0
 17 490 188 532 267 532 c 0
 357 532 439 484 439 484 c 1xf4
 434 736 l 1
EndSplineSet
Validated: 33
EndChar

StartChar: uni0191
Encoding: 401 401 661
Width: 651
VWidth: 1111
Flags: W
HStem: -237 156<-93 30> 615 164<248 622>
VStem: 30 208<-79.0898 269.883>
AnchorPoint: "Anchor-0" 316 788 basechar 0
LayerCount: 2
Fore
SplineSet
23 772 m 1
 23 772 389 777 622 779 c 1
 622 779 624 671 624 616 c 1
 624 616 403 615 248 615 c 1
 248 615 255 518 259 448 c 1
 259 448 446 459 580 467 c 1
 580 467 578 341 577 261 c 1
 577 261 346 267 230 270 c 1
 230 270 238 109 238 -1 c 0
 238 -7 238 -12 238 -18 c 0
 238 -198 118 -237 56 -237 c 0
 -17 -237 -99 -218 -99 -218 c 5
 -93 -77 l 5
 30 -81 l 1
 23 772 l 1
EndSplineSet
Validated: 1
EndChar

StartChar: uni0194
Encoding: 404 404 662
Width: 662
VWidth: 1111
Flags: W
HStem: -186 118<303.279 381.718>
VStem: 384 133<-63.8828 31>
LayerCount: 2
Fore
SplineSet
316 36 m 9
 300 -68 l 25
 384 -66 l 25
 378 31 l 25
 316 36 l 9
-10 776 m 1
 -10 776 130 760 222 753 c 1
 221 740 369 303 369 303 c 1
 498 759 l 1
 498 759 611 759 684 759 c 1
 444 133 l 1
 444 133 517 45 517 -38 c 0
 517 -106 463 -186 352 -186 c 0
 241 -186 174 -122 174 -38 c 0
 174 37 247 132 247 132 c 1
 215 221 -10 776 -10 776 c 1
EndSplineSet
Validated: 33
EndChar

StartChar: uni0263
Encoding: 611 611 663
Width: 522
VWidth: 1111
Flags: W
HStem: -210 114<243 290> 518 20G<160.5 202>
VStem: 107 134<-93.3045 -16.5676> 107 127<-93.3045 -16.5676> 290 140<-93.5037 -40>
LayerCount: 2
Fore
SplineSet
234 -14 m 1xd8
 241 -96 l 25xe8
 290 -96 l 25
 300 -16 l 25
 234 -14 l 1xd8
-11 529 m 17
 -11 529 119 535 202 538 c 25
 202 538 252 314 283 171 c 25
 283 171 333 382 364 518 c 25
 364 518 467 519 533 519 c 25
 533 519 440 252 380 75 c 17
 380 75 430 -3 430 -73 c 0
 430 -164 351 -210 268 -210 c 0
 177 -210 107 -163 107 -73 c 0
 107 -9 159 75 159 75 c 9
 159 75 56 348 -11 529 c 17
EndSplineSet
Validated: 1
EndChar

StartChar: uni0186
Encoding: 390 390 664
Width: 775
VWidth: 1111
Flags: W
HStem: -23 184<292.275 373.8> 593 201<269 492.023>
VStem: 496 263<397.867 536.009>
AnchorPoint: "Anchor-0" 384 821 basechar 0
AnchorPoint: "Anchor-2" 367 -60 basechar 0
LayerCount: 2
Fore
SplineSet
269 593 m 1
 258 458 l 9
 12 467 l 1
 12 467 35 794 384 794 c 0
 666 794 759 566 759 390 c 8
 759 214 679 -23 369 -23 c 0
 15 -23 11 294 11 294 c 0
 274 294 l 5
 280 161 l 1
 481 176 l 1
 496 592 l 1
 496 592 358 593 269 593 c 1
EndSplineSet
Validated: 1
EndChar

StartChar: uni0254
Encoding: 596 596 665
Width: 603
VWidth: 1111
Flags: W
HStem: -22 166<207.915 306.917> 389 165<218 365.88>
VStem: 379 208<157.846 291.917>
AnchorPoint: "Anchor-2" 287 -60 basechar 0
AnchorPoint: "Anchor-0" 302 588 basechar 0
LayerCount: 2
Fore
SplineSet
367 389 m 1
 218 392 l 1
 209 311 l 25
 16 309 l 25
 16 309 49 554 302 554 c 0
 511 554 587 373 587 271 c 16
 587 169 531 -22 289 -22 c 0
 13 -22 11 219 11 219 c 1
 217 232 l 1
 206 144 l 1
 379 156 l 1
 367 389 l 1
EndSplineSet
Validated: 1
EndChar

StartChar: uni01B2
Encoding: 434 434 666
Width: 746
VWidth: 1111
Flags: W
HStem: -33 209<271.974 495.297> 532 21G<361.925 492> 539 195<363 492>
VStem: 22 240<180.269 693.65> 504 220<176.293 386.5>
AnchorPoint: "Anchor-2" 353 -38 basechar 0
AnchorPoint: "Anchor-3" 353 31 basechar 0
AnchorPoint: "Anchor-0" 376 788 basechar 0
LayerCount: 2
Fore
SplineSet
36 751 m 17xb8
 267 736 l 25
 262 176 l 25
 504 173 l 17
 492 539 l 1xb8
 363 532 l 5xd8
 353 718 l 1
 353 718 401 734 484 734 c 0
 694 734 724 544 724 324 c 0
 724 125 644 -33 353 -33 c 0
 84 -33 22 136 22 287 c 16
 22 438 36 751 36 751 c 17xb8
EndSplineSet
Validated: 1
EndChar

StartChar: uni028B
Encoding: 651 651 667
Width: 598
VWidth: 1111
Flags: W
HStem: -39 169<227.506 362> 348 166<308.667 387.955>
VStem: 22 200<132.117 506.897> 382 195<139.401 345.121>
AnchorPoint: "Anchor-2" 287 -38 basechar 0
AnchorPoint: "Anchor-3" 453 31 basechar 0
AnchorPoint: "Anchor-0" 298 554 basechar 0
LayerCount: 2
Fore
SplineSet
29 507 m 17
 217 510 l 25
 222 130 l 25
 382 138 l 1
 388 348 l 1
 286 357 l 1
 291 507 l 1
 291 507 322 514 380 514 c 0
 552 514 577 380 577 233 c 0
 577 6 414 -39 281 -39 c 0
 154 -39 22 18 22 192 c 16
 22 366 29 507 29 507 c 17
EndSplineSet
Validated: 1
EndChar

StartChar: uni0190
Encoding: 400 400 668
Width: 701
VWidth: 1111
Flags: W
HStem: -19 167<271.212 433.552> 311 167<270 389> 509 21G<411 679> 634 164<248.939 409.117>
VStem: 17 254<148 308.325> 49 193<493.98 631.982>
LayerCount: 2
Fore
SplineSet
684 509 m 9xf4
 411 514 l 25
 412 634 l 25
 242 632 l 25xf4
 247 478 l 5
 488 467 l 5
 491 324 l 1
 270 311 l 1
 271 148 l 1
 438 144 l 1
 447 271 l 25
 690 280 l 25
 690 280 685 -19 347 -19 c 0
 98 -19 17 116 17 217 c 0xf8
 17 385 172 413 172 413 c 25
 172 413 49 442 49 586 c 0
 49 697 159 798 360 798 c 0
 539 798 674 690 684 509 c 9xf4
EndSplineSet
Validated: 1
EndChar

StartChar: uni025B
Encoding: 603 603 669
Width: 547
VWidth: 1111
Flags: W
HStem: -19 138<188.994 308.1> 210 124<227 356> 420 125<236.845 336>
VStem: 39 197<347.667 416.622>
LayerCount: 2
Fore
SplineSet
533 357 m 9
 341 361 l 25
 336 421 l 25
 236 420 l 25
 227 327 l 1
 358 334 l 1
 356 210 l 1
 195 212 l 1
 187 119 l 1
 318 116 l 1
 316 182 l 25
 537 188 l 25
 537 188 533 -19 260 -19 c 0
 95 -19 17 58 17 150 c 0
 17 244 113 285 113 285 c 25
 113 285 39 313 39 393 c 0
 39 479 126 545 287 545 c 0
 422 545 526 482 533 357 c 9
EndSplineSet
Validated: 1
EndChar

StartChar: uni0189
Encoding: 393 393 670
Width: 817
VWidth: 1111
Flags: W
HStem: 0 183<341.079 519.988> 324 121<343 443> 331 122<34 90 343 429.375> 558 203<471.52 541.176>
VStem: 90 188<452 582.954> 546 255<257.023 540.55>
LayerCount: 2
Fore
SplineSet
89 754 m 1xbc
 89 754 161 761 352 761 c 0
 543 761 803 727 801 394 c 0
 799 61 511 0 361 0 c 0
 211 0 93 -1 93 -1 c 1
 92 95 92 220 91 330 c 5
 22 331 l 5
 34 453 l 5
 90 452 l 5
 89 616 89 754 89 754 c 1xbc
343 326 m 5
 342 280 342 223 341 183 c 1
 341 183 450 185 541 186 c 1
 541 186 544 417 546 558 c 1
 280 583 l 1
 280 583 279 520 278 448 c 5
 451 445 l 5
 443 324 l 5xdc
 343 326 l 5
EndSplineSet
Validated: 33
EndChar

StartChar: uni0186_tildecomb
Encoding: 65565 -1 671
Width: 775
VWidth: 1111
Flags: W
HStem: -23 184<292.275 373.8> 593 201<269 492.023> 826 21G<216 315.6> 926 93<319.748 360.484>
VStem: 496 263<397.867 536.009>
AnchorPoint: "Anchor-2" 367 -60 basechar 0
LayerCount: 2
Fore
SplineSet
269 593 m 1
 258 458 l 9
 12 467 l 1
 12 467 35 794 384 794 c 0
 666 794 759 566 759 390 c 8
 759 214 679 -23 369 -23 c 0
 15 -23 11 294 11 294 c 0
 274 294 l 1
 280 161 l 1
 481 176 l 1
 496 592 l 1
 496 592 358 593 269 593 c 1
EndSplineSet
Refer: 155 771 N 1 0 0 1 216 306 2
LCarets2: 1 0
Ligature2: "'liga' Standard Ligatures in Latin lookup 0-1" uni0186 tildecomb
EndChar

StartChar: uni0254_tildecomb
Encoding: 65566 -1 672
Width: 603
VWidth: 1111
Flags: W
HStem: -22 166<218.375 305.083> 389 165<229 348.576> 592 21G<114 213.6> 692 93<217.748 258.484>
VStem: 368 219<157.846 291.917>
AnchorPoint: "Anchor-2" 287 -60 basechar 0
LayerCount: 2
Fore
SplineSet
356 389 m 1
 229 392 l 1
 220 311 l 25
 16 309 l 25
 16 309 49 554 302 554 c 0
 511 554 587 373 587 271 c 16
 587 169 531 -22 289 -22 c 0
 13 -22 11 219 11 219 c 1
 228 232 l 1
 217 144 l 1
 368 156 l 1
 356 389 l 1
EndSplineSet
Refer: 155 771 N 1 0 0 1 114 72 2
LCarets2: 1 0
Ligature2: "'liga' Standard Ligatures in Latin lookup 0-1" uni0254 tildecomb
EndChar

StartChar: alpha
Encoding: 945 945 673
Width: 652
VWidth: 1111
Flags: W
HStem: -38 21G<436.588 544> -28 166<218 341.763> 382 179<206.213 360.728> 527 20G<456.278 601>
VStem: 17 185<275.25 378.638>
AnchorPoint: "Anchor-3" 253 31 basechar 0
AnchorPoint: "Anchor-2" 251 -60 basechar 0
AnchorPoint: "Anchor-0" 273 576 basechar 0
LayerCount: 2
Fore
SplineSet
17 276 m 0x48
 17 445 125 561 272 561 c 0x68
 374 561 444 475 444 475 c 1
 461 547 l 1
 664 518 l 1
 547 269 l 1
 646 2 l 1
 442 -38 l 1x98
 419 47 l 1
 419 47 352 -28 251 -28 c 0
 101 -28 17 107 17 276 c 0x48
202 382 m 1
 218 138 l 1
 376 133 l 1
 396 386 l 1
 202 382 l 1
EndSplineSet
Validated: 1
EndChar

StartChar: beta
Encoding: 946 946 674
Width: 610
VWidth: 1111
Flags: W
HStem: -14 166<237.056 371> 641 169<200.936 333.43>
VStem: 22 175<160 635.479> 30 206<-233 7> 338 188<512.058 636.836> 371 222<154.038 315.682>
LayerCount: 2
Fore
SplineSet
22 617 m 2xe0
 27 752 159 810 281 810 c 0
 407 810 526 737 526 600 c 0xe8
 526 473 420 431 420 431 c 1
 420 431 593 405 593 211 c 0
 593 67 501 -14 394 -14 c 0
 314 -14 237 7 237 7 c 1
 236 -233 l 1
 30 -233 l 1xd4
 22 617 l 2xe0
194 160 m 1
 371 152 l 1xe4
 375 323 l 1
 250 333 l 1
 252 489 l 1
 336 497 l 1
 338 641 l 1
 197 639 l 1
 194 160 l 1
EndSplineSet
Validated: 1
EndChar

StartChar: gamma
Encoding: 947 947 675
Width: 566
VWidth: 1111
Flags: W
HStem: 523 20G<115.185 202 402.944 408>
LayerCount: 2
Fore
SplineSet
-12 489 m 1
 190 543 l 1
 214 497 275 369 317 182 c 9
 408 542 l 9
 408 542 512 537 577 534 c 25
 399 11 l 1
 425 -228 l 0
 199 -237 l 0
 199 -237 211 -163 211 -66 c 0
 211 46 120 274 -12 489 c 1
EndSplineSet
Validated: 1
EndChar

StartChar: delta
Encoding: 948 948 676
Width: 621
VWidth: 1111
Flags: W
HStem: -28 160<210.718 408.264> 370 147<234.216 391> 633 159<232.149 408.455>
VStem: 17 190<134.803 240.267> 41 192<510.365 629.153> 391 213<277.056 361.722> 409 195<150.875 223.944>
AnchorPoint: "Anchor-2" 318 -38 basechar 0
AnchorPoint: "Anchor-3" 320 31 basechar 0
AnchorPoint: "Anchor-0" 316 577 basechar 0
LayerCount: 2
Fore
SplineSet
222 364 m 1xe4
 207 132 l 1
 409 131 l 1xf2
 391 370 l 1
 222 364 l 1xe4
233 510 m 1xe8
 258.914893617 514.666666667 286.617021277 517 317 517 c 0
 508 517 604 387 604 266 c 0
 604 102 490 -28 318 -28 c 0
 124 -28 17 73 17 242 c 0xf2
 17 327 59.4285714286 398 116 438 c 1
 61.5263157895 481.142857143 41 525.223602484 41 589 c 0
 41 717.321243523 153 792 297 792 c 0
 441 792 524 759 524 759 c 1
 511 622 l 1
 229 633 l 5
 233 510 l 1xe8
EndSplineSet
EndChar

StartChar: epsilon
Encoding: 949 949 677
Width: 547
VWidth: 1111
Flags: W
HStem: -19 138<222.917 340> 227 95<297.667 349> 428 117<198.159 311.933>
VStem: 17 203<120.432 209> 39 154<361.182 421.394>
AnchorPoint: "Anchor-0" 289 554 basechar 0
LayerCount: 2
Fore
SplineSet
533 357 m 9xe8
 306 361 l 1
 314 428 l 1
 193 421 l 1xe8
 204 327 l 1
 352 322 l 1
 349 227 l 1
 217 209 l 1
 220 119 l 1
 340 120 l 1
 349 182 l 1
 537 188 l 25
 537 188 533 -19 260 -19 c 0
 95 -19 17 58 17 150 c 0xf0
 17 244 103 277 103 277 c 25
 103 277 39 302 39 382 c 0
 39 468 126 545 287 545 c 0
 422 545 526 482 533 357 c 9xe8
EndSplineSet
Validated: 1
EndChar

StartChar: zeta
Encoding: 950 950 678
Width: 556
VWidth: 1111
Flags: W
HStem: -234 312<380.58 498.921> 573 161<109.125 324> 577 165<50 324>
VStem: 17 204<66.4409 186>
LayerCount: 2
Fore
SplineSet
50 742 m 17xb0
 523 734 l 25
 524 602 l 1
 218 186 l 1
 221 63 l 1
 221 63 341 78 420 78 c 0
 508 78 540 30 540 -50 c 0
 540 -140 514 -232 514 -232 c 1
 379 -234 l 1
 367 -108 l 1
 330.105658765 -113.61966787 290.34577497 -117.866263263 251.323192067 -117.866263263 c 0
 130.635374373 -117.866263263 17 -77.2466551547 17 89 c 0
 17 342 324 573 324 573 c 1xd0
 41 577 l 25
 50 742 l 17xb0
EndSplineSet
EndChar

StartChar: eta
Encoding: 951 951 679
Width: 591
VWidth: 1111
Flags: W
HStem: -8 21G<29 228.675> 367 166<293.96 381>
VStem: 22 201<0 361> 29 200<0 361> 381 188<-232 363.426>
AnchorPoint: "Anchor-2" 298 -16 basechar 0
AnchorPoint: "Anchor-0" 316 554 basechar 0
LayerCount: 2
Fore
SplineSet
22 498 m 1xe8
 169 499 l 1
 182 443 l 1
 182 443 277 533 397 533 c 0
 517 533 569 464 569 341 c 16
 569 218 564 -233 564 -233 c 29
 377 -232 l 29
 381 367 l 25
 223 361 l 25xe8
 229 -8 l 25
 29 0 l 25xd8
 22 498 l 1xe8
EndSplineSet
Validated: 1
EndChar

StartChar: theta
Encoding: 952 952 680
Width: 605
VWidth: 1111
Flags: W
HStem: -8 184<209.312 403.95> 319 145<218 297.333> 334 132<309.667 382> 611 173<221.898 369>
VStem: 17 191<190.937 319>
LayerCount: 2
Fore
SplineSet
17 363 m 0x98
 17 613 109 784 307 784 c 0
 460 784 589 648 589 404 c 0
 589 137 498 -8 307 -8 c 0
 116 -8 17 113 17 363 c 0x98
382 466 m 1xb8
 369 611 l 1
 221 604 l 1
 218 464 l 1xd8
 382 466 l 1xb8
396 334 m 1xb8
 211 319 l 1xd8
 208 176 l 1
 410 173 l 1
 396 334 l 1xb8
EndSplineSet
Validated: 1
EndChar

StartChar: iota
Encoding: 953 953 681
Width: 323
VWidth: 1111
Flags: W
HStem: 0 149<202.978 306> 497 20G<26 199.837>
VStem: 22 175<149 515.854>
AnchorPoint: "Anchor-0" 120 554 basechar 0
LayerCount: 2
Fore
SplineSet
26 516 m 21
 200 517 l 5
 197 149 l 1
 306 149 l 1
 307 0 l 17
 117 -37 22 -8 22 122 c 0
 22 315 26 516 26 516 c 21
EndSplineSet
Validated: 33
EndChar

StartChar: kappa
Encoding: 954 954 682
Width: 576
VWidth: 1111
Flags: W
HStem: 0 21G<36.4071 227 353.588 588> 497 20G<22 193.358>
VStem: 22 172<299 506> 37 190<0 177>
AnchorPoint: "Anchor-2" 292 -2 basechar 0
LayerCount: 2
Fore
SplineSet
22 506 m 17xe0
 194 517 l 17xe0
 187 299 l 1
 366 498 l 17
 546 487 l 1
 386 316 l 17
 588 16 l 1
 363 0 l 5
 259 221 l 1
 222 177 l 1
 227 0 l 17
 37 0 l 17xd0
 22 506 l 17xe0
EndSplineSet
Validated: 1
EndChar

StartChar: B.ss01
Encoding: 65567 -1 683
Width: 724
VWidth: 1111
Flags: W
HStem: -12 149<205.998 436.496> 300 160<254 427> 625 157<253.071 458.727>
VStem: 47 207<496.6 625> 438 278<140.772 240.909>
AnchorPoint: "Anchor-2" 339 -27 basechar 0
AnchorPoint: "Anchor-0" 344 824 basechar 0
LayerCount: 2
Fore
SplineSet
212 300 m 1
 202 137 l 1
 438 134 l 1
 427 302 l 9
 212 300 l 1
249 625 m 1
 254 460 l 1
 257 459 458 464 458 464 c 1
 458 462 460 630 460 630 c 9
 249 625 l 1
47 764 m 17
 47 764 182 782 351 782 c 0
 542 782 667 714 667 567 c 0
 667 443 549 400 549 400 c 4
 549 400 716 372 716 224 c 0
 716 21 488 -12 338 -12 c 16
 188 -12 27 0 27 0 c 1
 47 764 l 17
EndSplineSet
Validated: 33
EndChar

StartChar: lambda
Encoding: 955 955 684
Width: 531
VWidth: 1111
Flags: W
HStem: 1 21G<-2.92568 199 371.767 520.348>
AnchorPoint: "Anchor-2" 296 -10 basechar 0
AnchorPoint: "Anchor-0" 159 832 basechar 0
LayerCount: 2
Fore
SplineSet
-11 1 m 1
 228 593 l 1
 78 611 l 1
 70 736 l 1
 70 736 116 776 196 778 c 0
 308 781 360 724 403 531 c 0
 454 303 542 16 542 16 c 1
 376 -7 l 1
 296 371 l 1
 199 6 l 1
 -11 1 l 1
EndSplineSet
Validated: 33
EndChar

StartChar: uni03BC
Encoding: 956 956 685
Width: 587
VWidth: 1111
Flags: W
HStem: -22 154<257.444 364> -10 21G<427.756 566> 494 20G<35.6272 217>
VStem: 22 191<-232 13> 36 181<251.7 510> 364 202<132 329.615> 377 184<301.385 499>
LayerCount: 2
Fore
SplineSet
210 13 m 5xa4
 213 -232 l 5
 22 -237 l 5xb4
 36 514 l 5
 217 510 l 5
 227 141 l 5
 364 132 l 5xac
 377 499 l 5
 561 506 l 5xa2
 566 0 l 5
 438 -10 l 5x64
 417 31 l 5
 417 31 375.765957447 -22 303 -22 c 4
 245.855421687 -22 210 13 210 13 c 5xa4
EndSplineSet
Validated: 1
EndChar

StartChar: nu
Encoding: 957 957 686
Width: 551
VWidth: 1111
Flags: W
HStem: 0 21G<163.821 343> 518 20G<64.5806 207.691 362 513>
LayerCount: 2
Fore
SplineSet
-11 507 m 1
 202 538 l 1
 307 169 l 1
 393 333 l 1
 362 522 l 1
 513 537 l 1
 513 537 535.453070934 486 535.453070934 391.63111897 c 0
 535.453070934 162 343 0 343 0 c 5
 171 0 l 1
 -11 507 l 1
EndSplineSet
Validated: 1
EndChar

StartChar: xi
Encoding: 958 958 687
Width: 556
VWidth: 1111
Flags: W
HStem: -114.286 192.286<225.581 387.62> 219 198<253 388.333> 574 168<64 136 484 512>
VStem: 17 212<82.5 203.551> 51 202<419.327 508.636>
LayerCount: 2
Fore
SplineSet
50 742 m 1xe8
 512 746 l 1
 524 579 l 1
 264 561 l 1
 253 417 l 1xe8
 427 408 l 1
 433 226 l 1
 229 219 l 5
 221 63 l 1
 221 63 341 78 420 78 c 0
 508 78 540 30 540 -50 c 0
 540 -140 514 -232 514 -232 c 1
 364 -228 l 1
 389 -107 l 1
 359.609821219 -111.476649748 327.567794598 -114.286423711 295.019619294 -114.286423711 c 0
 160.342732527 -114.286423711 17 -66.1798719749 17 111 c 0xf0
 17 279 182 317 182 317 c 1
 182 317 51 325 51 452 c 0
 51 552 136 576 136 576 c 1
 64 574 l 1
 50 742 l 1xe8
EndSplineSet
EndChar

StartChar: omicron
Encoding: 959 959 688
Width: 621
VWidth: 1111
Flags: W
HStem: -28 156<299.467 385.988> 394 156<218.389 376.261>
VStem: 17 179<147.078 220.636> 390 214<162.788 297.273>
AnchorPoint: "Anchor-2" 318 -38 basechar 0
AnchorPoint: "Anchor-3" 320 31 basechar 0
AnchorPoint: "Anchor-0" 316 577 basechar 0
LayerCount: 2
Fore
SplineSet
218 387 m 9
 196 143 l 25
 390 128 l 25
 379 394 l 25
 218 387 l 9
17 264 m 4
 17 433 126 550 317 550 c 0
 508 550 604 387 604 266 c 16
 604 145 512 -28 318 -28 c 16
 124 -28 17 95 17 264 c 4
EndSplineSet
Validated: 1
EndChar

StartChar: pi
Encoding: 960 960 689
Width: 656
VWidth: 1111
Flags: W
HStem: 0 149<540 615> 360 144<29 100 286.157 365 532 628>
VStem: 100 187<134.561 358> 363 177<149 329.25>
AnchorPoint: "Anchor-0" 327 554 basechar 0
LayerCount: 2
Fore
SplineSet
29 504 m 1
 628 510 l 1
 634 354 l 1
 532 355 l 1
 540 149 l 1
 615 149 l 1
 623 0 l 1
 493 -42 370 -37 363 122 c 4
 359 206 365 357 365 357 c 5
 287 358 l 5
 278 184 269 0 269 0 c 5
 65 0 l 1
 76 110 90 255 100 360 c 1
 22 360 l 1
 29 504 l 1
EndSplineSet
Validated: 33
EndChar

StartChar: rho
Encoding: 961 961 690
Width: 611
VWidth: 1111
Flags: W
HStem: -16 164<228.029 394.51> 355 175<211.219 385.851>
VStem: 17 191<148.334 352.757> 33 195<-249.918 -3.09018> 397 197<153.026 352.005>
AnchorPoint: "Anchor-2" 123 -264 basechar 0
AnchorPoint: "Anchor-0" 320 577 basechar 0
LayerCount: 2
Fore
SplineSet
211 355 m 1xe8
 208 146 l 1
 397 148 l 1
 391 357 l 1
 211 355 l 1xe8
33 -27 m 0xd8
 33 74 17 190 17 244 c 0xe8
 17 367 77 530 307 530 c 0
 416 530 594 458 594 248 c 0
 594 38 441 -16 338 -16 c 0
 268 -16 228 0 228 0 c 1
 234 -251 l 1
 22 -250 l 1
 22 -250 33 -138 33 -27 c 0xd8
EndSplineSet
EndChar

StartChar: sigma1
Encoding: 962 962 691
Width: 598
VWidth: 1111
Flags: W
HStem: -124 267<410.7 540.921> -22 21G<160 306.5> 390 164<225.836 387.528>
VStem: 17 207<128.406 376.948> 410 172<-111.471 -7>
AnchorPoint: "Anchor-2" 294 -60 basechar 0
AnchorPoint: "Anchor-0" 323 588 basechar 0
LayerCount: 2
Fore
SplineSet
259 -22 m 0x78
 61 -22 17 124 17 260 c 0
 17 384 92 554 323 554 c 0
 574 554 588 309 588 309 c 25
 388 302 l 1
 388 390 l 1
 220 392 l 1
 224 126 l 1
 224 126 383 143 462 143 c 0
 550 143 582 96 582 16 c 0
 582 -41 557 -122 557 -122 c 1
 410 -124 l 1xb8
 410 -7 l 1
 410 -7 354 -22 259 -22 c 0x78
EndSplineSet
EndChar

StartChar: sigma
Encoding: 963 963 692
Width: 687
VWidth: 1111
Flags: W
HStem: -28 148<220.556 368.5> 383 178<210.986 393> 404 145<533 657>
VStem: 17 191<198.9 378.638> 390 214<134.34 333.353>
AnchorPoint: "Anchor-3" 298 31 basechar 0
AnchorPoint: "Anchor-2" 296 -60 basechar 0
AnchorPoint: "Anchor-0" 316 577 basechar 0
LayerCount: 2
Fore
SplineSet
208 383 m 1xd8
 218 120 l 1
 390 128 l 1
 393 383 l 1
 208 383 l 1xd8
533 404 m 5xb8
 533 404 604 340 604 243 c 0
 604 100 513 -28 296 -28 c 0
 102 -28 17 107 17 276 c 0
 17 445 126 561 317 561 c 0xd8
 324 561 331 560 338 560 c 2
 666 549 l 1
 657 409 l 1
 533 404 l 5xb8
EndSplineSet
Validated: 1
EndChar

StartChar: dong
Encoding: 8363 8363 693
Width: 678
VWidth: 1111
Flags: W
HStem: -3 108<19 602> 142 135<217.349 356> 424 125<224.41 387.395> 577 109<303 395> 585 100<303 395 586 653>
VStem: 22 194<280.342 418.914> 390 196<286 417 686 733>
LayerCount: 2
Fore
SplineSet
17 107 m 1xe6
 606 105 l 25
 602 -3 l 25
 19 3 l 25
 17 107 l 1xe6
393 736 m 5
 587 733 l 1
 586 685 l 1
 657 684 l 1
 653 583 l 1
 586 585 l 1xee
 584 167 l 1
 448 146 l 1
 428 201 l 1
 390.875 166.098591549 316.625 142 248 142 c 0
 113.8125 142 22 216.995391705 22 348 c 0
 22 489.015706806 121.724137931 549 263 549 c 0
 372.615384615 549 413 512 413 512 c 1
 412 577 l 1
 303 579 l 1
 301 687 l 1
 395 686 l 5xf6
 393 736 l 5
223 424 m 1
 216 277 l 1
 396 286 l 1
 390 417 l 1
 223 424 l 1
EndSplineSet
Validated: 1
EndChar

StartChar: tau
Encoding: 964 964 694
Width: 506
VWidth: 1111
Flags: W
HStem: 0 149<333.978 437> 362 172<27 155> 387 141<330 483>
VStem: 153 175<149 363>
AnchorPoint: "Anchor-0" 251 554 basechar 0
LayerCount: 2
Fore
SplineSet
22 362 m 5xd0
 27 534 l 1xd0
 483 528 l 1
 484 388 l 1
 330 387 l 1xb0
 328 149 l 1
 437 149 l 1
 438 0 l 1
 248 -37 153 -8 153 122 c 0
 153 218 154 292 155 363 c 5
 22 362 l 5xd0
EndSplineSet
Validated: 33
EndChar

StartChar: upsilon
Encoding: 965 965 695
Width: 598
VWidth: 1111
Flags: W
HStem: -39 169<227.506 362> 348 166<308.667 387.955>
VStem: 22 200<132.117 506.897> 382 195<139.401 345.121>
AnchorPoint: "Anchor-2" 287 -38 basechar 0
AnchorPoint: "Anchor-3" 453 31 basechar 0
AnchorPoint: "Anchor-0" 298 554 basechar 0
LayerCount: 2
Fore
SplineSet
29 507 m 17
 217 510 l 25
 222 130 l 25
 382 138 l 1
 388 348 l 1
 286 357 l 1
 291 507 l 1
 291 507 322 514 380 514 c 0
 552 514 577 380 577 233 c 0
 577 6 414 -39 281 -39 c 0
 154 -39 22 18 22 192 c 16
 22 366 29 507 29 507 c 17
EndSplineSet
Validated: 1
EndChar

StartChar: phi
Encoding: 966 966 696
Width: 710
VWidth: 1111
Flags: W
HStem: 376 152<193.495 267> 380 161<429.449 512>
VStem: 17 179<174.277 374.318> 268 184<-222 -44.125> 270 174<-200.875 -18> 295 131<167 377.529> 523 170<162.267 302.273>
AnchorPoint: "Anchor-2" 362 -251 basechar 0
AnchorPoint: "Anchor-3" 364 -182 basechar 0
AnchorPoint: "Anchor-0" 360 577 basechar 0
LayerCount: 2
Fore
SplineSet
426 157 m 1x66
 523 161 l 1
 512 383 l 1
 427 380 l 1
 426 157 l 1x66
469 541 m 0
 609 541 693 421 693 277 c 0
 693 18 444 -18 444 -18 c 1x6a
 452 -227 l 1
 268 -222 l 1x72
 270 -12 l 1
 270 -12 17 8 17 287 c 0
 17 446 118 528 211 528 c 0
 249 528 269 518 269 518 c 1
 267 379 l 1
 193 376 l 1xaa
 196 166 l 1
 295 167 l 1
 262 465 362 541 469 541 c 0
EndSplineSet
Validated: 33
EndChar

StartChar: phi1
Encoding: 981 981 697
Width: 710
VWidth: 1111
Flags: W
VStem: 17 190<155.708 291.273> 264 170<659.571 750> 265 186<-222 -18> 301 93<223.9 375> 306 98<157 313.1> 501 192<170.046 231.636>
AnchorPoint: "Anchor-2" 362 -251 basechar 0
AnchorPoint: "Anchor-3" 364 -182 basechar 0
AnchorPoint: "Anchor-0" 360 577 basechar 0
LayerCount: 2
Fore
SplineSet
264 753 m 1xc4
 434 750 l 1xc4
 447 541 l 1
 447 541 693 503 693 277 c 0
 693 40 451 -18 451 -18 c 1
 452 -222 l 1
 268 -233 l 1
 265 -12 l 1xa4
 265 -12 17 19 17 264 c 0
 17 484 257 535 257 535 c 1
 264 753 l 1xc4
218 376 m 1
 207 143 l 1
 306 145 l 1x8c
 301 375 l 1x94
 218 376 l 1
404 157 m 1
 501 161 l 1
 479 383 l 1
 394 380 l 1x94
 404 157 l 1
EndSplineSet
Validated: 1
EndChar

StartChar: chi
Encoding: 967 967 698
Width: 607
VWidth: 1111
Flags: W
HStem: 531 20G<122.098 232.621 429.45 591>
LayerCount: 2
Fore
SplineSet
13 510 m 17
 226 551 l 9
 323 258 l 29
 438 527 l 25
 591 516 l 25
 433 169 l 29
 619 -222 l 25
 378 -238 l 25
 271 30 l 29
 156 -262 l 25
 156 -262 -11 -223 -11 -222 c 16
 -11 -221 190 148 190 148 c 29
 13 510 l 17
EndSplineSet
Validated: 1
EndChar

StartChar: psi
Encoding: 968 968 699
Width: 703
VWidth: 1111
Flags: W
VStem: 17 182<139.827 501.949> 270 169<-227 -34 154 750> 507 180<161.618 491>
AnchorPoint: "Anchor-3" 517 -158 basechar 0
AnchorPoint: "Anchor-2" 350 -249 basechar 0
AnchorPoint: "Anchor-0" 361 554 basechar 0
LayerCount: 2
Fore
SplineSet
39 502 m 1
 193 506 l 1
 199 130 l 1
 268 130 l 1
 264 750 l 1
 440 754 l 1
 439 154 l 1
 507 154 l 5
 506 491 l 5
 668 503 l 1
 668 503 687 421 687 267 c 0
 687 10 439 -32 439 -32 c 1
 439 -233 l 1
 270 -227 l 1
 269 -34 l 1
 269 -34 17 -13 17 259 c 0
 17 433 39 502 39 502 c 1
EndSplineSet
Validated: 1
EndChar

StartChar: omega
Encoding: 969 969 700
Width: 791
VWidth: 1111
Flags: W
HStem: -6 179<214 311.195> 1 171<491.286 584.815> 521 20G<71 239 587 712>
VStem: 17 197<175.584 271.28> 309 188<174 387> 314 176<174 387> 589 185<177.658 261.444>
AnchorPoint: "Anchor-2" 390 -19 basechar 0
AnchorPoint: "Anchor-0" 397 507 basechar 0
LayerCount: 2
Fore
SplineSet
774 244 m 0x76
 774 73 681 1 563 1 c 0x76
 436 1 393 97 393 97 c 1
 393 97 343 -6 221 -6 c 0
 65 -6 17 119 17 246 c 0
 17 366 71 541 71 541 c 1
 239 524 l 25
 214 173 l 1
 314 174 l 0xb6
 309 394 l 25
 497 387 l 25xba
 490 172 l 25
 589 172 l 1
 562 517 l 1
 712 541 l 1
 712 541 774 417 774 244 c 0x76
EndSplineSet
Validated: 1
EndChar

StartChar: tonos
Encoding: 900 900 703
Width: 0
VWidth: 1111
Flags: W
HStem: 503 236<58 77.2128>
VStem: 0 187
AnchorPoint: "Anchor-8" 59 717 mark 0
AnchorPoint: "Anchor-0" 34 504 mark 0
LayerCount: 2
Fore
SplineSet
58 739 m 1
 187 692 l 0
 163 630 124 559 62 503 c 1
 0 519 l 17
 33 594 55 667 58 739 c 1
EndSplineSet
Validated: 1
EndChar

StartChar: dieresistonos
Encoding: 901 901 711
Width: 0
VWidth: 1111
Flags: W
HStem: 476 144<264.123 374.326> 498 144<23.3399 132.326>
VStem: 0 152<521.284 619.812> 242 152<498.737 597.263>
AnchorPoint: "Anchor-8" 236 728 mark 0
AnchorPoint: "Anchor-0" 194 477 mark 0
LayerCount: 2
Fore
SplineSet
189 746 m 1x30
 298 727 l 0
 282.346153846 674.599078341 256.019230769 623.460829493 224 590 c 1
 161 606 l 1
 176.931034483 653.727272727 187.551724138 700.181818182 189 746 c 1x30
319 620 m 0xb0
 366.727272727 620 394 587.035714286 394 549 c 4
 394 511.24137931 369.333333333 476 320 476 c 0
 271.586206897 476 242 512.631578947 242 548 c 4
 242 583.368421053 271.719298246 620 319 620 c 0xb0
77 642 m 0x70
 124.727272727 642 152 609.035714286 152 571 c 4
 152 533.24137931 127.333333333 498 78 498 c 0
 29.5862068966 498 0 535.75862069 0 571 c 4
 0 606.5 29.7192982456 642 77 642 c 0x70
EndSplineSet
Validated: 1
EndChar

StartChar: C.ss01
Encoding: 65568 -1 748
Width: 775
VWidth: 1111
Flags: W
HStem: -23 199<277.961 523.977> 607 187<282.208 525.082>
VStem: 17 259<224.255 499.773>
AnchorPoint: "Anchor-0" 413 821 basechar 0
AnchorPoint: "Anchor-2" 409 -60 basechar 0
LayerCount: 2
Fore
SplineSet
531 607 m 5
 268 614 l 5
 276 176 l 5
 528 172 l 5
 534 312 l 5
 764 317 l 4
 764 317 761 -23 407 -23 c 4
 97 -23 17 192 17 368 c 20
 17 544 131 794 413 794 c 4
 751 794 763 467 763 467 c 5
 534 471 l 5
 531 607 l 5
EndSplineSet
Validated: 1
EndChar

StartChar: D.ss01
Encoding: 65569 -1 749
Width: 751
VWidth: 1111
Flags: W
HStem: -11 21G<242 414> 741 20G<190.5 381.5>
VStem: 27 212<194 562.464> 478 256<222.283 481.444>
AnchorPoint: "Anchor-2" 339 -27 basechar 0
AnchorPoint: "Anchor-0" 336 788 basechar 0
LayerCount: 2
Fore
SplineSet
234 562 m 1
 239 194 l 9
 239 196 478 196 478 196 c 1
 487 563 l 9
 487 563 234 563 234 562 c 1
33 743 m 17
 33 743 95 761 286 761 c 0
 477 761 734 705 734 372 c 0
 734 64 511 -11 317 -11 c 0
 167 -11 27 10 27 10 c 17
 33 743 l 17
EndSplineSet
EndChar

StartChar: F.ss01
Encoding: 65570 -1 750
Width: 651
VWidth: 1111
Flags: W
HStem: -1 21G<266 267> 270 187<279 574> 616 163<275 623>
VStem: 22 244<0 269.88> 34 245<457 608.934>
AnchorPoint: "Anchor-2" 317 -35 basechar 0
AnchorPoint: "Anchor-0" 316 788 basechar 0
LayerCount: 2
Fore
SplineSet
34 772 m 9xe8
 34 772 391 777 627 779 c 25
 627 779 624 679 623 616 c 25
 275 609 l 9
 275 609 278 518 279 457 c 25xe8
 574 452 l 9
 574 452 576 342 576 272 c 25
 270 270 l 9
 270 270 268 105 266 -1 c 25
 266 -1 117.219512195 0 22 0 c 25xf0
 34 772 l 9xe8
EndSplineSet
Validated: 1
EndChar

StartChar: G.ss01
Encoding: 65571 -1 751
Width: 794
VWidth: 1111
Flags: W
HStem: -38 204<281.475 482.195> -4 21G<617.471 772> 270 133<383 524> 604 185<286.066 511.762>
VStem: 17 257<200.605 472.6>
AnchorPoint: "Anchor-2" 409 -49 basechar 0
AnchorPoint: "Anchor-0" 413 821 basechar 0
LayerCount: 2
Fore
SplineSet
519 604 m 17xb8
 284 604 l 25
 274 166 l 1xb8
 526 160 l 1
 524 270 l 5
 383 267 l 5
 381 403 l 29
 761 401 l 29
 772 7 l 0
 626 -4 l 25x78
 597 64 l 25
 597 64 521 -38 363 -38 c 0
 94 -38 17 184 17 344 c 16
 17 504 78 789 411 789 c 16
 753.910714286 789 757 467 757 467 c 17
 518 474 l 17
 519 604 l 17xb8
EndSplineSet
EndChar

StartChar: M.ss01
Encoding: 65572 -1 752
Width: 884
VWidth: 1111
Flags: W
HStem: -6 21G<11 202.653 333 514.058 659 873>
VStem: 11 191<5.56021 208.375>
AnchorPoint: "Anchor-2" 429 -16 basechar 0
AnchorPoint: "Anchor-0" 447 788 basechar 0
LayerCount: 2
Fore
SplineSet
61 720 m 17
 329 723 l 25
 375 544 439 286 439 286 c 17
 584 741 l 17
 842 734 l 25
 854 443 873 6 873 6 c 17
 660 -6 l 25
 658 183 654 473 654 473 c 17
 508 -9 l 17
 333 0 l 21
 218 484 l 1
 202 -6 l 17
 11 6 l 25
 27 296 61 720 61 720 c 17
EndSplineSet
Validated: 1
EndChar

StartChar: U.ss01
Encoding: 65573 -1 753
Width: 702
VWidth: 1111
Flags: W
HStem: -33 217<271.954 450.875>
VStem: 22 246<187.28 697.703> 477 203<181.214 668.24>
AnchorPoint: "Anchor-2" 342 -38 basechar 0
AnchorPoint: "Anchor-3" 342 31 basechar 0
AnchorPoint: "Anchor-0" 376 788 basechar 0
LayerCount: 2
Fore
SplineSet
43 742 m 21
 269 738 l 25
 268 184 l 25
 477 176 l 25
 478 747 l 25
 671 749 l 25
 671 749 680 555 680 302 c 0
 680 103 611 -33 342 -33 c 16
 73 -33 22 136 22 287 c 16
 22 437.33916849 43 742 43 742 c 21
EndSplineSet
EndChar

StartChar: d.ss01
Encoding: 65574 -1 754
Width: 614
VWidth: 1111
Flags: W
HStem: -26 173<215.479 357.397> -11 21G<444.982 579> 343 188<205.541 370.733>
VStem: 17 187<205.8 341.72> 380 199<152 304.444>
AnchorPoint: "Anchor-2" 312 -36 basechar 0
AnchorPoint: "Anchor-0" 504 808 basechar 0
AnchorPoint: "Anchor-4" 608 607 basechar 0
LayerCount: 2
Fore
SplineSet
204 343 m 9xb8
 214 147 l 9
 380 152 l 9
 371 348 l 9
 204 343 l 9xb8
411 742 m 17
 592 743 l 25
 579 0 l 25
 452 -11 l 25x78
 432 46 l 25
 432 46 365 -26 261 -26 c 16
 157 -26 17 35 17 257 c 0
 17 457 177 531 278 531 c 0
 357 531 419 484 419 484 c 17
 411 742 l 17
EndSplineSet
Validated: 1
EndChar

StartChar: nine.ss01
Encoding: 65575 -1 755
Width: 656
VWidth: 1111
Flags: W
HStem: -20 171<254.825 428.761> 287 177<242.136 390.994> 641 177<256 407.938>
LayerCount: 2
Fore
SplineSet
256 641 m 9
 242 464 l 1
 424 458 l 25
 412 646 l 1
 256 641 l 9
640 416 m 0
 640 125 515 -20 302 -20 c 0
 34 -20 34 250 34 250 c 25
 243 239 l 29
 246 151 l 25
 432 153 l 25
 439 331 l 25
 439 331 374 287 272 287 c 0
 170 287 17 347 17 540 c 8
 17 733 165 818 332 818 c 0
 499 818 640 707 640 416 c 0
EndSplineSet
Validated: 1
EndChar

StartChar: six.ss01
Encoding: 65576 -1 756
Width: 656
VWidth: 1111
Flags: W
HStem: -20 172<244.548 411.676> 333 178<265.483 424.285> 546 21G<413.723 622> 633 174<224.797 410.826>
VStem: 17 201<467 559.359>
LayerCount: 2
Fore
SplineSet
412 157 m 9
 426 333 l 1
 232 340 l 25
 244 152 l 1
 412 157 l 9
17 368 m 0
 17 659 129 807 342 807 c 0
 610 807 622 548 622 548 c 25
 413 546 l 25
 416 629 l 29
 224 633 l 25
 218 467 l 25
 218 467 282 511 384 511 c 0
 486 511 640 459 640 266 c 8
 640 73 503 -20 336 -20 c 0
 169 -20 17 77 17 368 c 0
EndSplineSet
Validated: 1
EndChar

StartChar: uni0410
Encoding: 1040 1040 757
Width: 678
VWidth: 1111
Flags: W
HStem: -15 21G<6.72727 189.076 446.05 669.182> 182 162<245 382>
AnchorPoint: "Anchor-2" 320 7 basechar 0
AnchorPoint: "Anchor-3" 487 31 basechar 0
AnchorPoint: "Anchor-0" 340 788 basechar 0
LayerCount: 2
Fore
SplineSet
317 594 m 1
 245 344 l 0
 382 342 l 1
 317 594 l 1
240 763 m 9
 457 759 l 25
 691 7 l 0
 451 -15 l 0
 401 187 l 25
 234 182 l 1
 184 -15 l 0
 -11 7 l 0
 240 763 l 9
EndSplineSet
Validated: 1
EndChar

StartChar: uni0412
Encoding: 1042 1042 758
Width: 724
VWidth: 1111
Flags: W
HStem: -12 138<260.555 460.344> 634 148<204.35 413.216>
VStem: 22 171<449 633.918> 469 247<130.494 295.456>
AnchorPoint: "Anchor-2" 339 -27 basechar 0
AnchorPoint: "Anchor-0" 344 824 basechar 0
LayerCount: 2
Fore
SplineSet
266 318 m 25
 254 124 l 9
 254 124 382 126 463 126 c 25
 463 126 467 242 469 316 c 25
 469 316 345 317 266 318 c 25
199 634 m 25
 199 634 195 521 193 449 c 25
 193 449 326 464 410 474 c 25
 410 474 416 573 420 636 c 25
 420 636 286 634 199 634 c 25
22 762 m 17
 88 773 182 782 384 782 c 0
 542 782 667 734 667 587 c 16
 667 440 537 402 537 402 c 0
 537 402 716 361 716 213 c 0
 716 10 488 -12 338 -12 c 16
 188 -12 27 0 27 0 c 25
 22 762 l 17
EndSplineSet
Validated: 1
EndChar

StartChar: uni0411
Encoding: 1041 1041 759
Width: 691
VWidth: 1111
Flags: W
HStem: 614 162<249 596>
VStem: 36 207<471 614> 426 256<157.701 286.7>
AnchorPoint: "Anchor-2" 339 -27 basechar 0
AnchorPoint: "Anchor-0" 344 824 basechar 0
LayerCount: 2
Fore
SplineSet
212 330 m 1
 202 134 l 1
 426 146 l 1
 416 347 l 1
 212 330 l 1
36 776 m 1
 596 782 l 1
 601 613 l 5
 249 614 l 1
 243 471 l 17
 243 471 323 491 422 491 c 0
 577 491 682 406 682 258 c 0
 682 55 488 -12 338 -12 c 0
 188 -12 27 0 27 0 c 1
 36 776 l 1
EndSplineSet
Validated: 1
EndChar

StartChar: uni0413
Encoding: 1043 1043 760
Width: 651
VWidth: 1111
Flags: W
HStem: -1 21G<259.672 260> 609 170<250 623>
VStem: 22 238<0 426> 34 216<321.667 609>
AnchorPoint: "Anchor-0" 316 788 basechar 0
LayerCount: 2
Fore
SplineSet
34 772 m 1xd0
 34 772 391 777 627 779 c 1
 627 779 624 667 623 604 c 5
 250 609 l 1xd0
 260 -1 l 1
 260 -1 102 0 22 0 c 1xe0
 34 772 l 1xd0
EndSplineSet
Validated: 1
EndChar

StartChar: uni0414
Encoding: 1044 1044 761
Width: 928
VWidth: 1111
Flags: W
HStem: -150 319<27.0211 166.889> 596 163<384 550>
VStem: 550 229<251.25 596> 558 216<202 546.75>
AnchorPoint: "Anchor-2" 420 7 basechar 0
AnchorPoint: "Anchor-0" 440 788 basechar 0
LayerCount: 2
Fore
SplineSet
558 202 m 1xd0
 550 596 l 1xe0
 384 594 l 1
 388 191 l 1
 558 202 l 1xd0
184 763 m 1
 779 759 l 1xe0
 774 202 l 5xd0
 883 202 l 5
 918 -142 l 5
 727 -153 l 5
 729 5 l 5
 230 -8 l 5
 240 -153 l 5
 11 -150 l 5
 27 174 l 5
 27 174 56 169 82 169 c 0
 241 169 225 277 184 763 c 1
EndSplineSet
Validated: 33
Substitution2: "'locl' Localized Forms in Cyrillic lookup 6-1" uni0414.loclBGR
EndChar

StartChar: uni041B
Encoding: 1051 1051 762
Width: 790
VWidth: 1111
Flags: W
HStem: -15 219<30 170> 583 180<373 528>
VStem: 507 262<-4 184.667>
AnchorPoint: "Anchor-2" 431 7 basechar 0
AnchorPoint: "Anchor-0" 451 788 basechar 0
LayerCount: 2
Fore
SplineSet
195 763 m 1
 746 759 l 1
 769 -4 l 1
 507 -15 l 5
 528 584 l 5
 373 583 l 1
 401 60 321 -15 173 -15 c 0
 82 -15 22 7 22 7 c 1
 30 202 l 1
 170 204 l 1
 195 763 l 1
EndSplineSet
Validated: 33
Substitution2: "'locl' Localized Forms in Cyrillic lookup 6-1" uni041B.loclBGR
EndChar

StartChar: uni0415
Encoding: 1045 1045 763
Width: 658
VWidth: 1111
Flags: W
HStem: 0 189<203 630> 316 166<266 572> 616 150<266 622.734> 747 20G<623 623>
VStem: 22 181<189 316>
AnchorPoint: "Anchor-2" 331 -16 basechar 0
AnchorPoint: "Anchor-3" 553 31 basechar 0
AnchorPoint: "Anchor-0" 316 788 basechar 0
LayerCount: 2
Fore
SplineSet
24 766 m 25xe8
 257 766 623 767 623 767 c 25xd8
 623 708 623 616 623 616 c 25
 483 616 266 616 266 616 c 25
 266 564 266 482 266 482 c 25
 387 480 577 478 577 478 c 25
 575 421 572 311 572 311 c 25
 426 313 199 316 199 316 c 1
 203 189 l 17
 630 189 l 1
 632 111 637 0 637 0 c 25
 397 0 22 1 22 1 c 25
 23 299 24 766 24 766 c 25xe8
EndSplineSet
Validated: 1
EndChar

StartChar: uni041A
Encoding: 1050 1050 764
Width: 754
VWidth: 1111
Flags: W
HStem: -1 1G<26 27 484.07 494> 509 235<558 713>
VStem: 27 242<1 256>
AnchorPoint: "Anchor-0" 382 788 basechar 0
AnchorPoint: "Anchor-2" 367 -2 basechar 0
LayerCount: 2
Fore
SplineSet
22 747 m 25
 116 747 241 748 241 748 c 25
 244 637 250 429 250 429 c 1
 338 430 l 1
 425 659 477 744 633 744 c 0
 691 744 727 719 727 719 c 1
 713 508 l 1
 558 509 l 1
 507 408 l 1
 766 3 l 1
 652 -7 494 -22 494 -22 c 17
 353 262 l 1
 273 256 l 17
 269 1 l 1
 188 1 27 0 27 0 c 25
 25 291 22 747 22 747 c 25
EndSplineSet
Validated: 1
EndChar

StartChar: uni0416
Encoding: 1046 1046 765
Width: 1088
VWidth: 1111
Flags: W
HStem: 0 21G<238 246.718 407 658.996 810.394 818> 509 235<926 1048>
VStem: 448 214<429 677.111> 457 196<499.889 748>
AnchorPoint: "Anchor-0" 551 788 basechar 0
AnchorPoint: "Anchor-2" 536 -2 basechar 0
LayerCount: 2
Fore
SplineSet
653 748 m 1xd0
 662 429 l 1
 706 430 l 1
 793 659 812 744 968 744 c 0
 1026 744 1061 719 1061 719 c 1
 1048 508 l 1
 926 509 l 1
 874 408 l 1
 1100 26 l 1
 986 16 818 0 818 0 c 1
 710 284 l 1
 646 279 l 1
 660 0 l 1
 407 1 l 1
 426 256 l 1
 357 251 l 1
 238 -22 l 1
 238 -22 103 -7 -11 3 c 1
 226 397 l 1
 186 509 l 1
 52 519 l 1
 61 719 l 1
 61 719 96 744 154 744 c 0
 287 744 347 684 406 423 c 1
 448 429 l 1xe0
 457 748 l 1
 653 748 l 1xd0
EndSplineSet
Validated: 1
EndChar

StartChar: uni0417
Encoding: 1047 1047 766
Width: 701
VWidth: 1111
Flags: W
HStem: -30 163<267.448 449.322> 313 154<213 400.222> 322 138<265.778 403> 621 171<228.224 401.072>
VStem: 403 238<469.901 617.863> 453 231<137.404 302.496>
AnchorPoint: "Anchor-0" 336 821 basechar 0
LayerCount: 2
Fore
SplineSet
17 498 m 17xb8
 27 679 151 792 330 792 c 0
 531 792 641 685 641 552 c 0xb8
 641 430 529 402 529 402 c 25
 529 402 684 374 684 206 c 0
 684 94 603 -30 354 -30 c 0
 16 -30 11 269 11 269 c 1
 254 260 l 25
 263 133 l 1
 453 137 l 1
 454 322 l 1xb4
 212 313 l 1
 213 467 l 1xd4
 403 460 l 5
 407 621 l 29
 222 623 l 25
 223 503 l 25
 17 498 l 17xb8
EndSplineSet
Validated: 1
EndChar

StartChar: uni0418
Encoding: 1048 1048 767
Width: 757
VWidth: 1111
Flags: W
HStem: -11 21G<507.409 736>
VStem: 32 212<390.344 761> 507 229<0 331.3>
AnchorPoint: "Anchor-2" 394 -16 basechar 0
AnchorPoint: "Anchor-0" 406 788 basechar 0
LayerCount: 2
Fore
SplineSet
734 774 m 9
 734 774 736 290 736 0 c 1
 507 -11 l 9
 517 478 l 9
 286 3 l 9
 23 -12 l 9
 23 -12 29 473 32 763 c 25
 32 763 173 762 243 761 c 25
 244 277 l 9
 480 770 l 1
 734 774 l 9
EndSplineSet
Validated: 1
EndChar

StartChar: uni041C
Encoding: 1052 1052 769
Width: 884
VWidth: 1111
Flags: W
HStem: 0 15G<307.5 523 660 873>
AnchorPoint: "Anchor-2" 429 -16 basechar 0
AnchorPoint: "Anchor-0" 447 788 basechar 0
LayerCount: 2
Fore
SplineSet
51 742 m 25
 160 743 329 746 329 746 c 25
 375 567 447 286 447 286 c 25
 494 468 567 752 567 752 c 25
 675 750 842 746 842 746 c 25
 854 455 873 6 873 6 c 21
 661 -6 l 29
 659 183 656 484 656 484 c 25
 605 295 523 0 523 0 c 25
 449 0 333 0 333 0 c 25
 282 176 203 451 203 451 c 25
 203 275 204 -6 204 -6 c 21
 11 6 l 29
 27 296 51 742 51 742 c 25
EndSplineSet
Validated: 1
EndChar

StartChar: uni041E
Encoding: 1054 1054 770
Width: 791
VWidth: 1111
Flags: W
HStem: -41 208<263.797 528.339> 556 216<292.551 523.515>
VStem: 17 246<201.484 491.169> 527 247<333.667 530.649>
AnchorPoint: "Anchor-2" 409 -38 basechar 0
AnchorPoint: "Anchor-3" 409 31 basechar 0
AnchorPoint: "Anchor-0" 417 788 basechar 0
LayerCount: 2
Fore
SplineSet
264 556 m 25
 263 164 l 9
 263 164 426 166 539 167 c 25
 527 567 l 9
 527 567 366 560 264 556 c 25
417 772 m 0
 639 772 774 610 774 383 c 8
 774 156 644 -41 406 -41 c 0
 213 -41 17 53 17 346 c 0
 17 662 250 772 417 772 c 0
EndSplineSet
Validated: 1
EndChar

StartChar: uni041D
Encoding: 1053 1053 771
Width: 718
VWidth: 1111
Flags: W
HStem: -11 21G<22 242.75 476.252 697> 304 167<254 443> 742 20G<439 689.21> 752 20G<17 191.535>
VStem: 17 174<515.2 763> 22 220<0 175.667> 27 227<122.333 309> 27 172<473 656.8> 443 246<471 757> 491 206<77.8235 304>
AnchorPoint: "Anchor-0" 316 788 basechar 0
LayerCount: 2
Fore
SplineSet
17 763 m 1xe8
 191 772 l 25xd8
 199 473 l 25
 443 471 l 25
 439 757 l 25
 689 762 l 25xe180
 697 0 l 25
 474 -11 l 5
 491 140 l 5
 484 304 l 5
 254 309 l 25xe240
 242 -11 l 25
 22 0 l 17xe4
 27 409 l 1xe1
 17 763 l 1xe8
EndSplineSet
Validated: 1
EndChar

StartChar: uni041F
Encoding: 1055 1055 772
Width: 718
VWidth: 1111
Flags: W
HStem: 0 21G<22 253 461 697> 599 172<249 464> 603 159<249 464>
VStem: 22 231<0 599> 461 236<0 603>
AnchorPoint: "Anchor-0" 347 788 basechar 0
LayerCount: 2
Fore
SplineSet
23 771 m 21xd8
 693 762 l 25
 697 0 l 25
 461 0 l 25
 464 603 l 25xb8
 249 599 l 25
 253 0 l 25
 22 0 l 25
 23 771 l 21xd8
EndSplineSet
Validated: 1
EndChar

StartChar: uni0420
Encoding: 1056 1056 773
Width: 692
VWidth: 1111
Flags: W
HStem: 0 21G<22 264> 612 181<188 422.896>
VStem: 22 242<0 210> 22 234<30 240> 22 161<407 611.903>
AnchorPoint: "Anchor-2" 330 -20 basechar 0
AnchorPoint: "Anchor-0" 344 824 basechar 0
LayerCount: 2
Fore
SplineSet
188 612 m 25xc8
 188 612 185 478 183 407 c 25
 183 407 336 406 434 406 c 25
 434 406 427 541 423 614 c 25
 423 614 280 613 188 612 c 25xc8
22 787 m 17
 22 787 211 793 327 793 c 0
 443 793 676 744 676 511 c 0
 676 189 256 240 256 240 c 25xd0
 264 0 l 0
 22 0 l 25xe0
 22 787 l 17
EndSplineSet
Validated: 33
EndChar

StartChar: uni0421
Encoding: 1057 1057 774
Width: 775
VWidth: 1111
Flags: W
HStem: -23 199<277.961 548.557> 627 167<292.911 515.48>
VStem: 17 255<242.423 341.789>
AnchorPoint: "Anchor-0" 413 821 basechar 0
AnchorPoint: "Anchor-2" 409 -60 basechar 0
LayerCount: 2
Fore
SplineSet
518 627 m 1
 429 627 291 626 291 626 c 1
 272 176 l 1
 551 183 l 1
 546 306 l 1
 764 294 l 0
 764 294 761 -23 407 -23 c 0
 97 -23 17 214 17 390 c 16
 17 566 131 794 413 794 c 0
 762 794 763 467 763 467 c 1
 663 467 518 469 518 469 c 17
 518 627 l 1
EndSplineSet
Validated: 1
EndChar

StartChar: uni0422
Encoding: 1058 1058 775
Width: 684
VWidth: 1111
Flags: W
HStem: -8 21G<240 242> 536 21G<22 23.5> 751 20G<30 153.5>
AnchorPoint: "Anchor-0" 351 788 basechar 0
AnchorPoint: "Anchor-2" 353 -38 basechar 0
LayerCount: 2
Fore
SplineSet
30 771 m 25
 277 768 662 762 662 762 c 25
 659 695 653 591 653 591 c 25
 582 590 460 589 460 589 c 25
 466 360 473 1 473 1 c 25
 373 -2 240 -8 240 -8 c 25
 244 211 251 553 251 553 c 25
 167 546 22 536 22 536 c 25
 25 628 30 771 30 771 c 25
EndSplineSet
Validated: 1
EndChar

StartChar: uni0423
Encoding: 1059 1059 776
Width: 653
VWidth: 1111
Flags: W
HStem: -38 154<180 259.492>
AnchorPoint: "Anchor-2" 331 -16 basechar 0
AnchorPoint: "Anchor-0" 350 788 basechar 0
LayerCount: 2
Fore
SplineSet
-8 736 m 1
 231 758 l 1
 356 429 l 1
 356 429 470 754 471 756 c 1
 664 733 l 1
 664 733 556 479 467 243 c 0
 426 134 372 -38 219 -38 c 0
 69 -38 37 95 24 182 c 1
 173 198 l 1
 180 116 l 1
 264 120 l 1
 273 213 l 1
 -8 736 l 1
EndSplineSet
Validated: 1
EndChar

StartChar: uni0424
Encoding: 1060 1060 777
Width: 828
VWidth: 1111
Flags: W
HStem: 0 21G<301 548> 463 169<225.878 305.985> 748 20G<299 535.873>
VStem: 17 200<285.719 440.5> 343 470<282 460>
AnchorPoint: "Anchor-2" 430 -27 basechar 0
AnchorPoint: "Anchor-0" 414 788 basechar 0
LayerCount: 2
Fore
SplineSet
299 756 m 1
 537 768 l 1
 529 626 l 1
 529 626 561 638 601 638 c 0
 681 638 813 589 813 388 c 0
 813 182 686 124 598 124 c 0
 557 124 536 129 536 129 c 1
 548 0 l 1
 301 0 l 1
 308 123 l 1
 308 123 272 108 216 108 c 0
 129 108 17 161 17 362 c 0
 17 588 161 632 247 632 c 0
 285 632 306 623 306 623 c 1
 299 756 l 1
225 463 m 1
 217 283 l 1
 217 283 283 282 343 282 c 1
 343 460 l 1
 310 461 254 462 225 463 c 1
485 280 m 1
 524 283 586 287 621 290 c 1
 599 482 l 1
 599 482 528 479 475 476 c 1
 485 280 l 1
EndSplineSet
Validated: 1
Substitution2: "'locl' Localized Forms in Cyrillic lookup 6-1" uni0424.loclBGR
EndChar

StartChar: uni0425
Encoding: 1061 1061 778
Width: 764
VWidth: 1111
Flags: W
HStem: -33 54G<110.727 214.615 491.5 776>
AnchorPoint: "Anchor-0" 412 788 basechar 0
AnchorPoint: "Anchor-2" 364 -16 basechar 0
LayerCount: 2
Fore
SplineSet
-11 726 m 9
 266 740 l 9
 402 523 l 9
 544 747 l 9
 744 722 l 1
 742 725 503 381 503 381 c 9
 503 381 669 159 776 9 c 25
 494 0 l 1
 489 2 354 227 354 227 c 9
 203 -33 l 9
 0 11 l 9
 0 11 149 232 243 380 c 25
 -11 726 l 9
EndSplineSet
Validated: 37
EndChar

StartChar: uni0426
Encoding: 1062 1062 779
Width: 817
VWidth: 1111
Flags: W
HStem: 0 192<254 477> 741 20G<23 263.649>
VStem: 22 232<192 590.3> 23 241<362.7 760> 477 218<193 751>
AnchorPoint: "Anchor-0" 360 799 basechar 0
LayerCount: 2
Fore
SplineSet
23 760 m 1xd8
 264 761 l 1xd8
 254 192 l 1
 477 193 l 1
 472 753 l 1
 689 751 l 1
 695 138 l 5
 789 142 l 5
 807 -142 l 5
 589 -147 l 5
 594 0 l 5
 22 0 l 1xe8
 23 760 l 1xd8
EndSplineSet
Validated: 1
EndChar

StartChar: uni0427
Encoding: 1063 1063 780
Width: 680
VWidth: 1111
Flags: W
HStem: -2 21G<426.589 658> 209 545<102.888 240.454>
VStem: 22 222<416.296 753.898> 427 231<0 290> 454 193<429 736>
AnchorPoint: "Anchor-2" 338 -16 basechar 0
AnchorPoint: "Anchor-0" 356 788 basechar 0
LayerCount: 2
Fore
SplineSet
29 754 m 1xf0
 250 758 l 1
 244 411 l 1
 454 429 l 1
 452 736 l 5
 647 746 l 1xe8
 658 0 l 1
 427 -2 l 1
 421 290 l 1
 421 290 308 209 192 209 c 0
 88 209 22 266 22 440 c 0
 22 614 29 754 29 754 c 1xf0
EndSplineSet
Validated: 1
EndChar

StartChar: uni0428
Encoding: 1064 1064 781
Width: 1032
VWidth: 1111
Flags: W
HStem: -6 21G<22 1010.81> 741 20G<23 263.551>
VStem: 22 230<226 538.083> 23 241<448.917 760> 423 219<216 698> 799 205<429.077 736> 812 199<166 472.923>
AnchorPoint: "Anchor-0" 538 799 basechar 0
LayerCount: 2
Fore
SplineSet
23 760 m 1xd8
 264 761 l 1xd8
 252 226 l 1
 423 216 l 1
 417 698 l 1
 647 699 l 1
 642 153 l 1
 812 166 l 1xea
 799 736 l 1
 1004 744 l 1xcc
 1011 -6 l 1
 22 0 l 1xea
 23 760 l 1xd8
EndSplineSet
Validated: 1
EndChar

StartChar: uni0429
Encoding: 1065 1065 782
Width: 1150
VWidth: 1111
Flags: W
HStem: 741 20G<23 257.102>
VStem: 22 238<170 760> 423 219<209 698> 799 194<491.562 736> 801 208<221 419.438> 939 200<-140 -22.75>
AnchorPoint: "Anchor-0" 538 799 basechar 0
LayerCount: 2
Fore
SplineSet
23 760 m 1xe4
 257 761 l 1
 260 170 l 1
 423 160 l 1
 428 698 l 1
 636 699 l 1
 642 209 l 1
 801 221 l 1xe8
 799 736 l 1
 993 744 l 1xf0
 1009 167 l 1xe8
 1132 146 l 1
 1139 -149 l 1
 939 -140 l 1
 931 -6 l 1
 22 0 l 1
 23 760 l 1xe4
EndSplineSet
Validated: 1
EndChar

StartChar: uni042C
Encoding: 1068 1068 783
Width: 692
VWidth: 1111
Flags: W
HStem: -22 183<194.005 411.985> 367 176<244.042 409.252> 751 20G<32.7161 253>
VStem: 33 220<585.889 771> 421 255<163.743 320.111>
AnchorPoint: "Anchor-0" 353 802 basechar 0
AnchorPoint: "Anchor-2" 368 -42 basechar 0
LayerCount: 2
Fore
SplineSet
189 161 m 5
 421 156 l 21
 412 367 l 21
 202 363 l 21
 189 161 l 5
22 -4 m 13
 33 771 l 29
 253 771 l 4
 244 533 l 21
 244 533 301 544 379 543 c 4
 505 542 676 479 676 260 c 4
 676 27 499 -22 271 -22 c 4
 155 -22 22 -4 22 -4 c 13
EndSplineSet
Validated: 33
EndChar

StartChar: uni042A
Encoding: 1066 1066 784
Width: 795
VWidth: 1111
Flags: W
HStem: -22 172<319.018 524> 367 176<348.041 524.676> 594 183<13 122>
VStem: 122 183<213.9 363> 126 189<150 299.1> 524 255<156 359.574>
AnchorPoint: "Anchor-0" 457 813 basechar 0
AnchorPoint: "Anchor-2" 471 -31 basechar 0
LayerCount: 2
Fore
SplineSet
315 150 m 1xec
 524 156 l 17
 528 367 l 17
 305 363 l 17xf4
 315 150 l 1xec
126 -4 m 1xec
 122 594 l 1xf4
 11 592 l 1
 13 777 l 9
 334 782 l 0
 348 522 l 17
 348 522 404 544 482 543 c 0
 608 542 779 479 779 260 c 0
 779 27 602 -22 374 -22 c 0
 258 -22 126 -4 126 -4 c 1xec
EndSplineSet
Validated: 33
EndChar

StartChar: uni042B
Encoding: 1067 1067 785
Width: 983
VWidth: 1111
Flags: W
HStem: -22 172<204.946 430.469> -11 21G<725.794 956> 378 165<323.6 427.938> 747 20G<718.206 961> 760 20G<33 249.567>
VStem: 22 181<150 363> 33 216<533 771> 434 242<156 374.931> 718 243<86.25 757> 726 230<-6 669.75>
AnchorPoint: "Anchor-0" 476 802 basechar 0
AnchorPoint: "Anchor-2" 368 -42 basechar 0
LayerCount: 2
Fore
SplineSet
718 767 m 17x7180
 961 757 l 17x7180
 956 -6 l 17
 726 -11 l 17x7140
 718 767 l 17x7180
203 150 m 1xa5
 434 156 l 17
 430 378 l 17
 202 363 l 17
 203 150 l 1xa5
22 -4 m 9
 33 771 l 25
 249 780 l 0xab
 256 533 l 17
 256 533 301 544 379 543 c 0
 505 542 676 479 676 260 c 0
 676 27 499 -22 271 -22 c 0
 155 -22 22 -4 22 -4 c 9
EndSplineSet
Validated: 33
EndChar

StartChar: uni042D
Encoding: 1069 1069 786
Width: 775
VWidth: 1111
Flags: W
HStem: -23 162<292.275 380.5> 315 146<389 486> 616 178<280.788 513.144>
VStem: 536 223<461 536.009>
AnchorPoint: "Anchor-0" 384 821 basechar 0
AnchorPoint: "Anchor-2" 367 -60 basechar 0
LayerCount: 2
Fore
SplineSet
273 616 m 1
 280 480 l 1
 12 467 l 1
 12 467 35 794 384 794 c 0
 666 794 759 566 759 390 c 0
 759 214 679 -23 369 -23 c 0
 15 -23 11 294 11 294 c 1
 282 283 l 1
 280 139 l 1
 481 153 l 1
 486 315 l 1
 332 306 l 1
 326 471 l 1
 536 461 l 1
 540 614 l 1
 273 616 l 1
EndSplineSet
Validated: 1
EndChar

StartChar: uni042E
Encoding: 1070 1070 787
Width: 1105
VWidth: 1111
Flags: W
HStem: -41 217<572 752.444> 0 21G<37.5733 237> 580 192<734.909 814.73>
VStem: 22 242<468 750> 38 199<0 257.25> 804 252<211.544 389.385>
AnchorPoint: "Anchor-0" 353 788 basechar 0
AnchorPoint: "Anchor-2" 346 -60 basechar 0
LayerCount: 2
Fore
SplineSet
22 750 m 1x74
 267 754 l 1
 264 468 l 1
 340 465 l 1
 340 465 394 772 709 772 c 0
 931 772 1056 588 1056 361 c 0
 1056 134 936 -41 676 -41 c 0xb4
 365 -41 326 280 324 299 c 1
 229 294 l 1
 237 0 l 1
 38 0 l 1x6c
 22 750 l 1x74
559 558 m 1
 572 176 l 1
 804 167 l 1
 817 580 l 1
 559 558 l 1
EndSplineSet
Validated: 1
EndChar

StartChar: uni042F
Encoding: 1071 1071 788
Width: 726
VWidth: 1111
Flags: W
HStem: -22 21G<456 704> 240 178<299 460> 244 167<299 460> 600 181<309.898 513.812>
VStem: 27 281<453 599.834> 33 238<15.2913 241.188> 456 248<-22 240>
AnchorPoint: "Anchor-0" 382 824 basechar 0
AnchorPoint: "Anchor-2" 370 -16 basechar 0
LayerCount: 2
Fore
SplineSet
514 601 m 17xda
 308 600 l 17
 299 411 l 17xba
 521 418 l 17
 514 601 l 17xda
704 -22 m 25
 625 -22 456 -22 456 -22 c 25
 460 240 l 1xda
 271 244 l 25
 276 7 l 5
 6 0 l 0
 6 0 33 68 33 166 c 0xb6
 33 284 96 326 177 352 c 1
 177 352 27 383 27 541 c 0
 27 710 184 781 382 781 c 16
 580 781 691 757 691 757 c 17
 704 -22 l 25
EndSplineSet
Validated: 1
EndChar

StartChar: uni0430
Encoding: 1072 1072 799
Width: 614
VWidth: 1111
Flags: W
HStem: -26 24G<133 259.5 421.762 619> 526 20G<175.5 404.487>
VStem: 17 199<104.915 200.454> 426 160<323 395.28>
AnchorPoint: "Anchor-2" 320 7 basechar 0
AnchorPoint: "Anchor-3" 476 31 basechar 0
AnchorPoint: "Anchor-0" 311 574 basechar 0
LayerCount: 2
Fore
SplineSet
217 203 m 29
 217 203 216 143 216 104 c 29
 216 104 315 115 378 122 c 29
 378 122 375 177 373 213 c 29
 373 213 278 207 217 203 c 29
28 369 m 21
 28 369 39 546 312 546 c 4
 496.974729242 546 586 459.751295337 586 343 c 4
 586 266.132653061 581 211.091836735 581 157 c 4
 581 75 619 -8 619 -8 c 5
 437 -23 l 29
 389 40 l 5
 389 40 331 -26 188 -26 c 4
 78 -26 17 54 17 141 c 4
 17 282 202 330 302 330 c 4
 369 330 426 323 426 323 c 13
 428 396 l 5
 256 424 l 29
 251 351 l 5
 28 369 l 21
EndSplineSet
Validated: 1
EndChar

StartChar: uni0431
Encoding: 1073 1073 800
Width: 621
VWidth: 1111
Flags: W
HStem: -28 167<210.718 393.82> 398 152<218 376.261>
VStem: 17 141<513 573.41> 401 203<156.342 220.136>
AnchorPoint: "Anchor-2" 318 -38 basechar 0
AnchorPoint: "Anchor-3" 320 31 basechar 0
AnchorPoint: "Anchor-0" 316 577 basechar 0
LayerCount: 2
Fore
SplineSet
218 398 m 1
 207 132 l 1
 401 139 l 1
 379 394 l 1
 218 398 l 1
158 513 m 1
 158 513 220 550 317 550 c 0
 508 550 604 430 604 266 c 0
 604 130 512 -28 318 -28 c 0
 124 -28 17 96 17 376 c 0
 17 676 107 767 320 787 c 0
 471 801 536 818 536 818 c 1
 547 604 l 1
 161 603 l 1
 158 513 l 1
EndSplineSet
Validated: 1
EndChar

StartChar: uni0432
Encoding: 1074 1074 801
Width: 606
VWidth: 1111
Flags: W
HStem: -17 114<240.502 387.858> 437 110<182.009 325.028>
VStem: 22 152<318 436.948> 395 196<100.197 204.909>
AnchorPoint: "Anchor-2" 284 -27 basechar 0
AnchorPoint: "Anchor-0" 289 577 basechar 0
LayerCount: 2
Fore
SplineSet
246 211 m 25
 238 97 l 9
 238 97 336 97 391 97 c 25
 391 97 393 161 395 209 c 25
 395 209 300 210 246 211 c 25
178 437 m 25
 178 437 176 365 174 318 c 25
 174 318 265 328 322 334 c 25
 322 334 326 397 329 438 c 25
 329 438 237 437 178 437 c 25
22 533 m 17
 76 541 153 547 319 547 c 0
 448 547 551 512 551 408 c 16
 551 304 444 277 444 277 c 0
 444 277 591 248 591 143 c 0
 591 -1 404 -17 281 -17 c 16
 158 -17 26 -8 26 -8 c 25
 22 533 l 17
EndSplineSet
Validated: 1
Substitution2: "'locl' Localized Forms in Cyrillic lookup 6-1" uni0432.loclBGR
EndChar

StartChar: uni0433
Encoding: 1075 1075 802
Width: 484
VWidth: 1111
Flags: W
HStem: -1 21G<226.469 227> 376 147<217 457>
VStem: 22 205<0 262.9> 34 183<215.417 376>
AnchorPoint: "Anchor-0" 249 543 basechar 0
LayerCount: 2
Fore
SplineSet
34 517 m 1xd0
 34 517 224 521 460 523 c 1
 460 523 458 434 457 371 c 5
 217 376 l 5xd0
 227 -1 l 1
 227 -1 102 0 22 0 c 1xe0
 34 517 l 1xd0
EndSplineSet
Validated: 1
Substitution2: "'locl' Localized Forms in Cyrillic lookup 6-1" uni0433.loclBGR
EndChar

StartChar: uni043B
Encoding: 1083 1083 803
Width: 667
VWidth: 1111
Flags: W
HStem: -15 175<30 137> 383 158<306 439>
AnchorPoint: "Anchor-2" 353 7 basechar 0
AnchorPoint: "Anchor-0" 413 568 basechar 0
LayerCount: 2
Fore
SplineSet
162 541 m 1
 623 536 l 1
 646 -4 l 1
 418 -15 l 5
 439 384 l 5
 306 383 l 1
 329 84 288 -15 140 -15 c 0
 49 -15 22 7 22 7 c 1
 30 158 l 1
 137 160 l 1
 162 541 l 1
EndSplineSet
Validated: 33
Substitution2: "'locl' Localized Forms in Cyrillic lookup 6-1" uni043B.loclBGR
EndChar

StartChar: uni0434
Encoding: 1076 1076 804
Width: 741
VWidth: 1111
Flags: W
HStem: -162 275<13.0262 134.047> -20 160<304 435> 385 146<300 428>
VStem: 11 150<-162 -20> 428 202<147 385> 435 191<147 385> 542 184<-157 -45.2222>
AnchorPoint: "Anchor-2" 366 -16 basechar 0
AnchorPoint: "Anchor-0" 368 577 basechar 0
LayerCount: 2
Fore
SplineSet
435 147 m 1x74
 428 385 l 1x78
 300 384 l 1
 304 140 l 1
 435 147 l 1x74
125 534 m 1
 630 531 l 1xb8
 626 136 l 1xb4
 730 136 l 1
 726 -157 l 1
 542 -165 l 1
 533 -11 l 1
 164 -20 l 1x72
 161 -165 l 1
 11 -162 l 1
 13 117 l 1
 13 117 49 113 71 113 c 0xb2
 162 113 187 164 125 534 c 1
EndSplineSet
Validated: 33
Substitution2: "'locl' Localized Forms in Cyrillic lookup 6-1" uni0434.loclBGR
EndChar

StartChar: uni0435
Encoding: 1077 1077 805
Width: 605
VWidth: 1111
Flags: W
HStem: -29 118<272.673 389.352> 208 93<270 369> 388 141<198.365 368.928>
AnchorPoint: "Anchor-2" 327 -38 basechar 0
AnchorPoint: "Anchor-3" 331 31 basechar 0
AnchorPoint: "Anchor-0" 300 554 basechar 0
LayerCount: 2
Fore
SplineSet
17 247 m 4
 17 385 113 529 302 529 c 0
 613 529 589 220 589 220 c 9
 270 208 l 25
 271 89 l 25
 392 96 l 25
 396 171 l 25
 587 169 l 25
 587 169 582 -29 323 -29 c 0
 97 -29 17 109 17 247 c 4
198 388 m 9
 197 300 l 9
 197 300 293 301 369 301 c 25
 370 393 l 9
 198 388 l 9
EndSplineSet
Validated: 33
EndChar

StartChar: uni043A
Encoding: 1082 1082 806
Width: 597
VWidth: 1111
Flags: W
HStem: -2 7G<25 232 369.215 380>
VStem: 26 206<-2 158.125>
AnchorPoint: "Anchor-0" 286 570 basechar 0
AnchorPoint: "Anchor-2" 282 -2 basechar 0
LayerCount: 2
Fore
SplineSet
22 559 m 25
 98 559 221 559 221 559 c 21
 217 332 l 5
 265 322 l 1
 335 493 367 557 492 557 c 0
 538 557 578 538 578 538 c 1
 567 380 l 1
 448 390 l 1
 401 306 l 1
 609 3 l 1
 517 -4 380 -16 380 -16 c 17
 277 175 l 1
 224 181 l 21
 232 -2 l 5
 167 -2 26 -2 26 -2 c 25
 24 215 22 559 22 559 c 25
EndSplineSet
Validated: 1
Substitution2: "'locl' Localized Forms in Cyrillic lookup 6-1" uni043A.loclBGR
EndChar

StartChar: uni0436
Encoding: 1078 1078 807
Width: 920
VWidth: 1111
Flags: W
HStem: -16 21G<185 195.099 344.842 554 661.775 931> 380 177<754 889>
VStem: 344 210<-6 157.25> 352 195<14.75 181> 392 144<445.133 559>
AnchorPoint: "Anchor-0" 464 570 basechar 0
AnchorPoint: "Anchor-2" 460 -2 basechar 0
LayerCount: 2
Fore
SplineSet
536 559 m 1xc8
 551 315 l 1
 587 318 l 1
 657 489 689 557 814 557 c 0
 860 557 900 542 900 542 c 1
 889 380 l 1
 754 380 l 1
 712 294 l 1
 931 3 l 1
 669 -16 l 1
 600 175 l 1
 547 181 l 1xd0
 554 -6 l 1
 344 -9 l 1xe0
 352 181 l 1xd0
 287 186 l 1
 185 -16 l 1
 185 -16 81 -4 -11 3 c 1
 197 306 l 1
 150 390 l 1
 31 380 l 1
 20 538 l 1
 20 538 60 557 106 557 c 0
 231 557 308 524 355 322 c 1
 387 329 l 1
 392 559 l 1
 536 559 l 1xc8
EndSplineSet
Validated: 1
Substitution2: "'locl' Localized Forms in Cyrillic lookup 6-1" uni0436.loclBGR
EndChar

StartChar: uni0437
Encoding: 1079 1079 808
Width: 536
VWidth: 1111
Flags: W
HStem: -19 138<183 317.396> 220 119<199 284.4> 421 124<214.702 339.982>
VStem: 321 199<120.432 208.488> 339 148<337.123 419.451>
AnchorPoint: "Anchor-0" 257 566 basechar 0
LayerCount: 2
Fore
SplineSet
15 357 m 17xe8
 15 357 50 545 261 545 c 0
 389 545 487 470 487 384 c 0xe8
 487 304 411 284 411 284 c 25
 411 284 520 255 520 150 c 0
 520 58 431 -19 266 -19 c 0
 10.0078431373 -19 9 188 9 188 c 25
 172 182 l 29
 183 116 l 5
 321 119 l 5xf0
 324 210 l 5
 192 220 l 1
 199 339 l 1
 339 337 l 1
 341 420 l 1
 212 421 l 25
 215 361 l 25
 15 357 l 17xe8
EndSplineSet
Validated: 1
Substitution2: "'locl' Localized Forms in Cyrillic lookup 6-1" uni0437.loclBGR
EndChar

